<?xml version="1.0" encoding="UTF-8" standalone="no"?>
<!-- This is a Stata 16.1 generated SVG file (http://www.stata.com) -->

<svg version="1.1" width="2400px" height="1600px" viewBox="0 0 4320 2880" xmlns="http://www.w3.org/2000/svg" xmlns:xlink="http://www.w3.org/1999/xlink">
	<desc>Stata Graph - corrs</desc>
	<rect x="0" y="0" width="4320" height="2880" style="fill:#FFFFFF;stroke:none"/>
	<rect x="0.00" y="0.00" width="4320.00" height="2880.00" style="fill:#FFFFFF"/>
	<rect x="2.88" y="2.88" width="4314.24" height="2874.24" style="fill:none;stroke:#FFFFFF;stroke-width:5.76"/>
	<rect x="636.93" y="317.39" width="3582.22" height="2110.76" style="fill:#FFFFFF"/>
	<rect x="639.81" y="320.27" width="3576.47" height="2105.00" style="fill:none;stroke:#FFFFFF;stroke-opacity:0.00;stroke-width:5.76"/>
	<line x1="935.14" y1="2428.15" x2="935.14" y2="2425.31" style="stroke:#808080;stroke-width:5.76"/>
	<line x1="935.14" y1="2405.06" x2="935.14" y2="2402.23" style="stroke:#808080;stroke-width:5.76"/>
	<line x1="935.14" y1="2381.98" x2="935.14" y2="2379.14" style="stroke:#808080;stroke-width:5.76"/>
	<line x1="935.14" y1="2358.89" x2="935.14" y2="2356.06" style="stroke:#808080;stroke-width:5.76"/>
	<line x1="935.14" y1="2335.81" x2="935.14" y2="2332.97" style="stroke:#808080;stroke-width:5.76"/>
	<line x1="935.14" y1="2312.86" x2="935.14" y2="2309.89" style="stroke:#808080;stroke-width:5.76"/>
	<line x1="935.14" y1="2289.77" x2="935.14" y2="2286.94" style="stroke:#808080;stroke-width:5.76"/>
	<line x1="935.14" y1="2266.69" x2="935.14" y2="2263.85" style="stroke:#808080;stroke-width:5.76"/>
	<line x1="935.14" y1="2243.60" x2="935.14" y2="2240.77" style="stroke:#808080;stroke-width:5.76"/>
	<line x1="935.14" y1="2220.51" x2="935.14" y2="2217.68" style="stroke:#808080;stroke-width:5.76"/>
	<line x1="935.14" y1="2197.43" x2="935.14" y2="2194.59" style="stroke:#808080;stroke-width:5.76"/>
	<line x1="935.14" y1="2174.48" x2="935.14" y2="2171.51" style="stroke:#808080;stroke-width:5.76"/>
	<line x1="935.14" y1="2151.39" x2="935.14" y2="2148.56" style="stroke:#808080;stroke-width:5.76"/>
	<line x1="935.14" y1="2128.31" x2="935.14" y2="2125.47" style="stroke:#808080;stroke-width:5.76"/>
	<line x1="935.14" y1="2105.22" x2="935.14" y2="2102.39" style="stroke:#808080;stroke-width:5.76"/>
	<line x1="935.14" y1="2082.14" x2="935.14" y2="2079.30" style="stroke:#808080;stroke-width:5.76"/>
	<line x1="935.14" y1="2059.19" x2="935.14" y2="2056.22" style="stroke:#808080;stroke-width:5.76"/>
	<line x1="935.14" y1="2036.10" x2="935.14" y2="2033.27" style="stroke:#808080;stroke-width:5.76"/>
	<line x1="935.14" y1="2013.02" x2="935.14" y2="2010.18" style="stroke:#808080;stroke-width:5.76"/>
	<line x1="935.14" y1="1989.93" x2="935.14" y2="1987.10" style="stroke:#808080;stroke-width:5.76"/>
	<line x1="935.14" y1="1966.85" x2="935.14" y2="1964.01" style="stroke:#808080;stroke-width:5.76"/>
	<line x1="935.14" y1="1943.76" x2="935.14" y2="1940.93" style="stroke:#808080;stroke-width:5.76"/>
	<line x1="935.14" y1="1920.81" x2="935.14" y2="1917.84" style="stroke:#808080;stroke-width:5.76"/>
	<line x1="935.14" y1="1897.72" x2="935.14" y2="1894.89" style="stroke:#808080;stroke-width:5.76"/>
	<line x1="935.14" y1="1874.64" x2="935.14" y2="1871.80" style="stroke:#808080;stroke-width:5.76"/>
	<line x1="935.14" y1="1851.55" x2="935.14" y2="1848.72" style="stroke:#808080;stroke-width:5.76"/>
	<line x1="935.14" y1="1828.47" x2="935.14" y2="1825.63" style="stroke:#808080;stroke-width:5.76"/>
	<line x1="935.14" y1="1805.38" x2="935.14" y2="1802.55" style="stroke:#808080;stroke-width:5.76"/>
	<line x1="935.14" y1="1782.43" x2="935.14" y2="1779.46" style="stroke:#808080;stroke-width:5.76"/>
	<line x1="935.14" y1="1759.35" x2="935.14" y2="1756.51" style="stroke:#808080;stroke-width:5.76"/>
	<line x1="935.14" y1="1736.26" x2="935.14" y2="1733.43" style="stroke:#808080;stroke-width:5.76"/>
	<line x1="935.14" y1="1713.18" x2="935.14" y2="1710.34" style="stroke:#808080;stroke-width:5.76"/>
	<line x1="935.14" y1="1690.09" x2="935.14" y2="1687.26" style="stroke:#808080;stroke-width:5.76"/>
	<line x1="935.14" y1="1667.01" x2="935.14" y2="1664.17" style="stroke:#808080;stroke-width:5.76"/>
	<line x1="935.14" y1="1644.06" x2="935.14" y2="1641.09" style="stroke:#808080;stroke-width:5.76"/>
	<line x1="935.14" y1="1620.97" x2="935.14" y2="1618.14" style="stroke:#808080;stroke-width:5.76"/>
	<line x1="935.14" y1="1597.88" x2="935.14" y2="1595.05" style="stroke:#808080;stroke-width:5.76"/>
	<line x1="935.14" y1="1574.80" x2="935.14" y2="1571.96" style="stroke:#808080;stroke-width:5.76"/>
	<line x1="935.14" y1="1551.71" x2="935.14" y2="1548.88" style="stroke:#808080;stroke-width:5.76"/>
	<line x1="935.14" y1="1528.63" x2="935.14" y2="1525.79" style="stroke:#808080;stroke-width:5.76"/>
	<line x1="935.14" y1="1505.68" x2="935.14" y2="1502.71" style="stroke:#808080;stroke-width:5.76"/>
	<line x1="935.14" y1="1482.59" x2="935.14" y2="1479.76" style="stroke:#808080;stroke-width:5.76"/>
	<line x1="935.14" y1="1459.51" x2="935.14" y2="1456.67" style="stroke:#808080;stroke-width:5.76"/>
	<line x1="935.14" y1="1436.42" x2="935.14" y2="1433.59" style="stroke:#808080;stroke-width:5.76"/>
	<line x1="935.14" y1="1413.34" x2="935.14" y2="1410.50" style="stroke:#808080;stroke-width:5.76"/>
	<line x1="935.14" y1="1390.25" x2="935.14" y2="1387.42" style="stroke:#808080;stroke-width:5.76"/>
	<line x1="935.14" y1="1367.30" x2="935.14" y2="1364.33" style="stroke:#808080;stroke-width:5.76"/>
	<line x1="935.14" y1="1344.22" x2="935.14" y2="1341.38" style="stroke:#808080;stroke-width:5.76"/>
	<line x1="935.14" y1="1321.13" x2="935.14" y2="1318.30" style="stroke:#808080;stroke-width:5.76"/>
	<line x1="935.14" y1="1298.05" x2="935.14" y2="1295.21" style="stroke:#808080;stroke-width:5.76"/>
	<line x1="935.14" y1="1274.96" x2="935.14" y2="1272.12" style="stroke:#808080;stroke-width:5.76"/>
	<line x1="935.14" y1="1251.87" x2="935.14" y2="1249.04" style="stroke:#808080;stroke-width:5.76"/>
	<line x1="935.14" y1="1228.92" x2="935.14" y2="1225.95" style="stroke:#808080;stroke-width:5.76"/>
	<line x1="935.14" y1="1205.84" x2="935.14" y2="1203.00" style="stroke:#808080;stroke-width:5.76"/>
	<line x1="935.14" y1="1182.75" x2="935.14" y2="1179.92" style="stroke:#808080;stroke-width:5.76"/>
	<line x1="935.14" y1="1159.67" x2="935.14" y2="1156.83" style="stroke:#808080;stroke-width:5.76"/>
	<line x1="935.14" y1="1136.58" x2="935.14" y2="1133.75" style="stroke:#808080;stroke-width:5.76"/>
	<line x1="935.14" y1="1113.50" x2="935.14" y2="1110.66" style="stroke:#808080;stroke-width:5.76"/>
	<line x1="935.14" y1="1090.55" x2="935.14" y2="1087.58" style="stroke:#808080;stroke-width:5.76"/>
	<line x1="935.14" y1="1067.46" x2="935.14" y2="1064.63" style="stroke:#808080;stroke-width:5.76"/>
	<line x1="935.14" y1="1044.38" x2="935.14" y2="1041.54" style="stroke:#808080;stroke-width:5.76"/>
	<line x1="935.14" y1="1021.29" x2="935.14" y2="1018.46" style="stroke:#808080;stroke-width:5.76"/>
	<line x1="935.14" y1="998.21" x2="935.14" y2="995.37" style="stroke:#808080;stroke-width:5.76"/>
	<line x1="935.14" y1="975.12" x2="935.14" y2="972.29" style="stroke:#808080;stroke-width:5.76"/>
	<line x1="935.14" y1="952.17" x2="935.14" y2="949.20" style="stroke:#808080;stroke-width:5.76"/>
	<line x1="935.14" y1="929.08" x2="935.14" y2="926.25" style="stroke:#808080;stroke-width:5.76"/>
	<line x1="935.14" y1="906.00" x2="935.14" y2="903.16" style="stroke:#808080;stroke-width:5.76"/>
	<line x1="935.14" y1="882.91" x2="935.14" y2="880.08" style="stroke:#808080;stroke-width:5.76"/>
	<line x1="935.14" y1="859.83" x2="935.14" y2="856.99" style="stroke:#808080;stroke-width:5.76"/>
	<line x1="935.14" y1="836.74" x2="935.14" y2="833.91" style="stroke:#808080;stroke-width:5.76"/>
	<line x1="935.14" y1="813.79" x2="935.14" y2="810.82" style="stroke:#808080;stroke-width:5.76"/>
	<line x1="935.14" y1="790.71" x2="935.14" y2="787.87" style="stroke:#808080;stroke-width:5.76"/>
	<line x1="935.14" y1="767.62" x2="935.14" y2="764.79" style="stroke:#808080;stroke-width:5.76"/>
	<line x1="935.14" y1="744.54" x2="935.14" y2="741.70" style="stroke:#808080;stroke-width:5.76"/>
	<line x1="935.14" y1="721.45" x2="935.14" y2="718.62" style="stroke:#808080;stroke-width:5.76"/>
	<line x1="935.14" y1="698.37" x2="935.14" y2="695.53" style="stroke:#808080;stroke-width:5.76"/>
	<line x1="935.14" y1="675.42" x2="935.14" y2="672.45" style="stroke:#808080;stroke-width:5.76"/>
	<line x1="935.14" y1="652.33" x2="935.14" y2="649.50" style="stroke:#808080;stroke-width:5.76"/>
	<line x1="935.14" y1="629.24" x2="935.14" y2="626.41" style="stroke:#808080;stroke-width:5.76"/>
	<line x1="935.14" y1="606.16" x2="935.14" y2="603.32" style="stroke:#808080;stroke-width:5.76"/>
	<line x1="935.14" y1="583.07" x2="935.14" y2="580.24" style="stroke:#808080;stroke-width:5.76"/>
	<line x1="935.14" y1="560.12" x2="935.14" y2="557.15" style="stroke:#808080;stroke-width:5.76"/>
	<line x1="935.14" y1="537.04" x2="935.14" y2="534.20" style="stroke:#808080;stroke-width:5.76"/>
	<line x1="935.14" y1="513.95" x2="935.14" y2="511.12" style="stroke:#808080;stroke-width:5.76"/>
	<line x1="935.14" y1="490.87" x2="935.14" y2="488.03" style="stroke:#808080;stroke-width:5.76"/>
	<line x1="935.14" y1="467.78" x2="935.14" y2="464.95" style="stroke:#808080;stroke-width:5.76"/>
	<line x1="935.14" y1="444.70" x2="935.14" y2="441.86" style="stroke:#808080;stroke-width:5.76"/>
	<line x1="935.14" y1="421.75" x2="935.14" y2="418.78" style="stroke:#808080;stroke-width:5.76"/>
	<line x1="935.14" y1="398.66" x2="935.14" y2="395.83" style="stroke:#808080;stroke-width:5.76"/>
	<line x1="935.14" y1="375.58" x2="935.14" y2="372.74" style="stroke:#808080;stroke-width:5.76"/>
	<line x1="935.14" y1="352.49" x2="935.14" y2="349.66" style="stroke:#808080;stroke-width:5.76"/>
	<line x1="935.14" y1="329.41" x2="935.14" y2="326.57" style="stroke:#808080;stroke-width:5.76"/>
	<line x1="1996.11" y1="2428.15" x2="1996.11" y2="2425.31" style="stroke:#808080;stroke-width:5.76"/>
	<line x1="1996.11" y1="2405.06" x2="1996.11" y2="2402.23" style="stroke:#808080;stroke-width:5.76"/>
	<line x1="1996.11" y1="2381.98" x2="1996.11" y2="2379.14" style="stroke:#808080;stroke-width:5.76"/>
	<line x1="1996.11" y1="2358.89" x2="1996.11" y2="2356.06" style="stroke:#808080;stroke-width:5.76"/>
	<line x1="1996.11" y1="2335.81" x2="1996.11" y2="2332.97" style="stroke:#808080;stroke-width:5.76"/>
	<line x1="1996.11" y1="2312.86" x2="1996.11" y2="2309.89" style="stroke:#808080;stroke-width:5.76"/>
	<line x1="1996.11" y1="2289.77" x2="1996.11" y2="2286.94" style="stroke:#808080;stroke-width:5.76"/>
	<line x1="1996.11" y1="2266.69" x2="1996.11" y2="2263.85" style="stroke:#808080;stroke-width:5.76"/>
	<line x1="1996.11" y1="2243.60" x2="1996.11" y2="2240.77" style="stroke:#808080;stroke-width:5.76"/>
	<line x1="1996.11" y1="2220.51" x2="1996.11" y2="2217.68" style="stroke:#808080;stroke-width:5.76"/>
	<line x1="1996.11" y1="2197.43" x2="1996.11" y2="2194.59" style="stroke:#808080;stroke-width:5.76"/>
	<line x1="1996.11" y1="2174.48" x2="1996.11" y2="2171.51" style="stroke:#808080;stroke-width:5.76"/>
	<line x1="1996.11" y1="2151.39" x2="1996.11" y2="2148.56" style="stroke:#808080;stroke-width:5.76"/>
	<line x1="1996.11" y1="2128.31" x2="1996.11" y2="2125.47" style="stroke:#808080;stroke-width:5.76"/>
	<line x1="1996.11" y1="2105.22" x2="1996.11" y2="2102.39" style="stroke:#808080;stroke-width:5.76"/>
	<line x1="1996.11" y1="2082.14" x2="1996.11" y2="2079.30" style="stroke:#808080;stroke-width:5.76"/>
	<line x1="1996.11" y1="2059.19" x2="1996.11" y2="2056.22" style="stroke:#808080;stroke-width:5.76"/>
	<line x1="1996.11" y1="2036.10" x2="1996.11" y2="2033.27" style="stroke:#808080;stroke-width:5.76"/>
	<line x1="1996.11" y1="2013.02" x2="1996.11" y2="2010.18" style="stroke:#808080;stroke-width:5.76"/>
	<line x1="1996.11" y1="1989.93" x2="1996.11" y2="1987.10" style="stroke:#808080;stroke-width:5.76"/>
	<line x1="1996.11" y1="1966.85" x2="1996.11" y2="1964.01" style="stroke:#808080;stroke-width:5.76"/>
	<line x1="1996.11" y1="1943.76" x2="1996.11" y2="1940.93" style="stroke:#808080;stroke-width:5.76"/>
	<line x1="1996.11" y1="1920.81" x2="1996.11" y2="1917.84" style="stroke:#808080;stroke-width:5.76"/>
	<line x1="1996.11" y1="1897.72" x2="1996.11" y2="1894.89" style="stroke:#808080;stroke-width:5.76"/>
	<line x1="1996.11" y1="1874.64" x2="1996.11" y2="1871.80" style="stroke:#808080;stroke-width:5.76"/>
	<line x1="1996.11" y1="1851.55" x2="1996.11" y2="1848.72" style="stroke:#808080;stroke-width:5.76"/>
	<line x1="1996.11" y1="1828.47" x2="1996.11" y2="1825.63" style="stroke:#808080;stroke-width:5.76"/>
	<line x1="1996.11" y1="1805.38" x2="1996.11" y2="1802.55" style="stroke:#808080;stroke-width:5.76"/>
	<line x1="1996.11" y1="1782.43" x2="1996.11" y2="1779.46" style="stroke:#808080;stroke-width:5.76"/>
	<line x1="1996.11" y1="1759.35" x2="1996.11" y2="1756.51" style="stroke:#808080;stroke-width:5.76"/>
	<line x1="1996.11" y1="1736.26" x2="1996.11" y2="1733.43" style="stroke:#808080;stroke-width:5.76"/>
	<line x1="1996.11" y1="1713.18" x2="1996.11" y2="1710.34" style="stroke:#808080;stroke-width:5.76"/>
	<line x1="1996.11" y1="1690.09" x2="1996.11" y2="1687.26" style="stroke:#808080;stroke-width:5.76"/>
	<line x1="1996.11" y1="1667.01" x2="1996.11" y2="1664.17" style="stroke:#808080;stroke-width:5.76"/>
	<line x1="1996.11" y1="1644.06" x2="1996.11" y2="1641.09" style="stroke:#808080;stroke-width:5.76"/>
	<line x1="1996.11" y1="1620.97" x2="1996.11" y2="1618.14" style="stroke:#808080;stroke-width:5.76"/>
	<line x1="1996.11" y1="1597.88" x2="1996.11" y2="1595.05" style="stroke:#808080;stroke-width:5.76"/>
	<line x1="1996.11" y1="1574.80" x2="1996.11" y2="1571.96" style="stroke:#808080;stroke-width:5.76"/>
	<line x1="1996.11" y1="1551.71" x2="1996.11" y2="1548.88" style="stroke:#808080;stroke-width:5.76"/>
	<line x1="1996.11" y1="1528.63" x2="1996.11" y2="1525.79" style="stroke:#808080;stroke-width:5.76"/>
	<line x1="1996.11" y1="1505.68" x2="1996.11" y2="1502.71" style="stroke:#808080;stroke-width:5.76"/>
	<line x1="1996.11" y1="1482.59" x2="1996.11" y2="1479.76" style="stroke:#808080;stroke-width:5.76"/>
	<line x1="1996.11" y1="1459.51" x2="1996.11" y2="1456.67" style="stroke:#808080;stroke-width:5.76"/>
	<line x1="1996.11" y1="1436.42" x2="1996.11" y2="1433.59" style="stroke:#808080;stroke-width:5.76"/>
	<line x1="1996.11" y1="1413.34" x2="1996.11" y2="1410.50" style="stroke:#808080;stroke-width:5.76"/>
	<line x1="1996.11" y1="1390.25" x2="1996.11" y2="1387.42" style="stroke:#808080;stroke-width:5.76"/>
	<line x1="1996.11" y1="1367.30" x2="1996.11" y2="1364.33" style="stroke:#808080;stroke-width:5.76"/>
	<line x1="1996.11" y1="1344.22" x2="1996.11" y2="1341.38" style="stroke:#808080;stroke-width:5.76"/>
	<line x1="1996.11" y1="1321.13" x2="1996.11" y2="1318.30" style="stroke:#808080;stroke-width:5.76"/>
	<line x1="1996.11" y1="1298.05" x2="1996.11" y2="1295.21" style="stroke:#808080;stroke-width:5.76"/>
	<line x1="1996.11" y1="1274.96" x2="1996.11" y2="1272.12" style="stroke:#808080;stroke-width:5.76"/>
	<line x1="1996.11" y1="1251.87" x2="1996.11" y2="1249.04" style="stroke:#808080;stroke-width:5.76"/>
	<line x1="1996.11" y1="1228.92" x2="1996.11" y2="1225.95" style="stroke:#808080;stroke-width:5.76"/>
	<line x1="1996.11" y1="1205.84" x2="1996.11" y2="1203.00" style="stroke:#808080;stroke-width:5.76"/>
	<line x1="1996.11" y1="1182.75" x2="1996.11" y2="1179.92" style="stroke:#808080;stroke-width:5.76"/>
	<line x1="1996.11" y1="1159.67" x2="1996.11" y2="1156.83" style="stroke:#808080;stroke-width:5.76"/>
	<line x1="1996.11" y1="1136.58" x2="1996.11" y2="1133.75" style="stroke:#808080;stroke-width:5.76"/>
	<line x1="1996.11" y1="1113.50" x2="1996.11" y2="1110.66" style="stroke:#808080;stroke-width:5.76"/>
	<line x1="1996.11" y1="1090.55" x2="1996.11" y2="1087.58" style="stroke:#808080;stroke-width:5.76"/>
	<line x1="1996.11" y1="1067.46" x2="1996.11" y2="1064.63" style="stroke:#808080;stroke-width:5.76"/>
	<line x1="1996.11" y1="1044.38" x2="1996.11" y2="1041.54" style="stroke:#808080;stroke-width:5.76"/>
	<line x1="1996.11" y1="1021.29" x2="1996.11" y2="1018.46" style="stroke:#808080;stroke-width:5.76"/>
	<line x1="1996.11" y1="998.21" x2="1996.11" y2="995.37" style="stroke:#808080;stroke-width:5.76"/>
	<line x1="1996.11" y1="975.12" x2="1996.11" y2="972.29" style="stroke:#808080;stroke-width:5.76"/>
	<line x1="1996.11" y1="952.17" x2="1996.11" y2="949.20" style="stroke:#808080;stroke-width:5.76"/>
	<line x1="1996.11" y1="929.08" x2="1996.11" y2="926.25" style="stroke:#808080;stroke-width:5.76"/>
	<line x1="1996.11" y1="906.00" x2="1996.11" y2="903.16" style="stroke:#808080;stroke-width:5.76"/>
	<line x1="1996.11" y1="882.91" x2="1996.11" y2="880.08" style="stroke:#808080;stroke-width:5.76"/>
	<line x1="1996.11" y1="859.83" x2="1996.11" y2="856.99" style="stroke:#808080;stroke-width:5.76"/>
	<line x1="1996.11" y1="836.74" x2="1996.11" y2="833.91" style="stroke:#808080;stroke-width:5.76"/>
	<line x1="1996.11" y1="813.79" x2="1996.11" y2="810.82" style="stroke:#808080;stroke-width:5.76"/>
	<line x1="1996.11" y1="790.71" x2="1996.11" y2="787.87" style="stroke:#808080;stroke-width:5.76"/>
	<line x1="1996.11" y1="767.62" x2="1996.11" y2="764.79" style="stroke:#808080;stroke-width:5.76"/>
	<line x1="1996.11" y1="744.54" x2="1996.11" y2="741.70" style="stroke:#808080;stroke-width:5.76"/>
	<line x1="1996.11" y1="721.45" x2="1996.11" y2="718.62" style="stroke:#808080;stroke-width:5.76"/>
	<line x1="1996.11" y1="698.37" x2="1996.11" y2="695.53" style="stroke:#808080;stroke-width:5.76"/>
	<line x1="1996.11" y1="675.42" x2="1996.11" y2="672.45" style="stroke:#808080;stroke-width:5.76"/>
	<line x1="1996.11" y1="652.33" x2="1996.11" y2="649.50" style="stroke:#808080;stroke-width:5.76"/>
	<line x1="1996.11" y1="629.24" x2="1996.11" y2="626.41" style="stroke:#808080;stroke-width:5.76"/>
	<line x1="1996.11" y1="606.16" x2="1996.11" y2="603.32" style="stroke:#808080;stroke-width:5.76"/>
	<line x1="1996.11" y1="583.07" x2="1996.11" y2="580.24" style="stroke:#808080;stroke-width:5.76"/>
	<line x1="1996.11" y1="560.12" x2="1996.11" y2="557.15" style="stroke:#808080;stroke-width:5.76"/>
	<line x1="1996.11" y1="537.04" x2="1996.11" y2="534.20" style="stroke:#808080;stroke-width:5.76"/>
	<line x1="1996.11" y1="513.95" x2="1996.11" y2="511.12" style="stroke:#808080;stroke-width:5.76"/>
	<line x1="1996.11" y1="490.87" x2="1996.11" y2="488.03" style="stroke:#808080;stroke-width:5.76"/>
	<line x1="1996.11" y1="467.78" x2="1996.11" y2="464.95" style="stroke:#808080;stroke-width:5.76"/>
	<line x1="1996.11" y1="444.70" x2="1996.11" y2="441.86" style="stroke:#808080;stroke-width:5.76"/>
	<line x1="1996.11" y1="421.75" x2="1996.11" y2="418.78" style="stroke:#808080;stroke-width:5.76"/>
	<line x1="1996.11" y1="398.66" x2="1996.11" y2="395.83" style="stroke:#808080;stroke-width:5.76"/>
	<line x1="1996.11" y1="375.58" x2="1996.11" y2="372.74" style="stroke:#808080;stroke-width:5.76"/>
	<line x1="1996.11" y1="352.49" x2="1996.11" y2="349.66" style="stroke:#808080;stroke-width:5.76"/>
	<line x1="1996.11" y1="329.41" x2="1996.11" y2="326.57" style="stroke:#808080;stroke-width:5.76"/>
	<line x1="3057.21" y1="2428.15" x2="3057.21" y2="2425.31" style="stroke:#808080;stroke-width:5.76"/>
	<line x1="3057.21" y1="2405.06" x2="3057.21" y2="2402.23" style="stroke:#808080;stroke-width:5.76"/>
	<line x1="3057.21" y1="2381.98" x2="3057.21" y2="2379.14" style="stroke:#808080;stroke-width:5.76"/>
	<line x1="3057.21" y1="2358.89" x2="3057.21" y2="2356.06" style="stroke:#808080;stroke-width:5.76"/>
	<line x1="3057.21" y1="2335.81" x2="3057.21" y2="2332.97" style="stroke:#808080;stroke-width:5.76"/>
	<line x1="3057.21" y1="2312.86" x2="3057.21" y2="2309.89" style="stroke:#808080;stroke-width:5.76"/>
	<line x1="3057.21" y1="2289.77" x2="3057.21" y2="2286.94" style="stroke:#808080;stroke-width:5.76"/>
	<line x1="3057.21" y1="2266.69" x2="3057.21" y2="2263.85" style="stroke:#808080;stroke-width:5.76"/>
	<line x1="3057.21" y1="2243.60" x2="3057.21" y2="2240.77" style="stroke:#808080;stroke-width:5.76"/>
	<line x1="3057.21" y1="2220.51" x2="3057.21" y2="2217.68" style="stroke:#808080;stroke-width:5.76"/>
	<line x1="3057.21" y1="2197.43" x2="3057.21" y2="2194.59" style="stroke:#808080;stroke-width:5.76"/>
	<line x1="3057.21" y1="2174.48" x2="3057.21" y2="2171.51" style="stroke:#808080;stroke-width:5.76"/>
	<line x1="3057.21" y1="2151.39" x2="3057.21" y2="2148.56" style="stroke:#808080;stroke-width:5.76"/>
	<line x1="3057.21" y1="2128.31" x2="3057.21" y2="2125.47" style="stroke:#808080;stroke-width:5.76"/>
	<line x1="3057.21" y1="2105.22" x2="3057.21" y2="2102.39" style="stroke:#808080;stroke-width:5.76"/>
	<line x1="3057.21" y1="2082.14" x2="3057.21" y2="2079.30" style="stroke:#808080;stroke-width:5.76"/>
	<line x1="3057.21" y1="2059.19" x2="3057.21" y2="2056.22" style="stroke:#808080;stroke-width:5.76"/>
	<line x1="3057.21" y1="2036.10" x2="3057.21" y2="2033.27" style="stroke:#808080;stroke-width:5.76"/>
	<line x1="3057.21" y1="2013.02" x2="3057.21" y2="2010.18" style="stroke:#808080;stroke-width:5.76"/>
	<line x1="3057.21" y1="1989.93" x2="3057.21" y2="1987.10" style="stroke:#808080;stroke-width:5.76"/>
	<line x1="3057.21" y1="1966.85" x2="3057.21" y2="1964.01" style="stroke:#808080;stroke-width:5.76"/>
	<line x1="3057.21" y1="1943.76" x2="3057.21" y2="1940.93" style="stroke:#808080;stroke-width:5.76"/>
	<line x1="3057.21" y1="1920.81" x2="3057.21" y2="1917.84" style="stroke:#808080;stroke-width:5.76"/>
	<line x1="3057.21" y1="1897.72" x2="3057.21" y2="1894.89" style="stroke:#808080;stroke-width:5.76"/>
	<line x1="3057.21" y1="1874.64" x2="3057.21" y2="1871.80" style="stroke:#808080;stroke-width:5.76"/>
	<line x1="3057.21" y1="1851.55" x2="3057.21" y2="1848.72" style="stroke:#808080;stroke-width:5.76"/>
	<line x1="3057.21" y1="1828.47" x2="3057.21" y2="1825.63" style="stroke:#808080;stroke-width:5.76"/>
	<line x1="3057.21" y1="1805.38" x2="3057.21" y2="1802.55" style="stroke:#808080;stroke-width:5.76"/>
	<line x1="3057.21" y1="1782.43" x2="3057.21" y2="1779.46" style="stroke:#808080;stroke-width:5.76"/>
	<line x1="3057.21" y1="1759.35" x2="3057.21" y2="1756.51" style="stroke:#808080;stroke-width:5.76"/>
	<line x1="3057.21" y1="1736.26" x2="3057.21" y2="1733.43" style="stroke:#808080;stroke-width:5.76"/>
	<line x1="3057.21" y1="1713.18" x2="3057.21" y2="1710.34" style="stroke:#808080;stroke-width:5.76"/>
	<line x1="3057.21" y1="1690.09" x2="3057.21" y2="1687.26" style="stroke:#808080;stroke-width:5.76"/>
	<line x1="3057.21" y1="1667.01" x2="3057.21" y2="1664.17" style="stroke:#808080;stroke-width:5.76"/>
	<line x1="3057.21" y1="1644.06" x2="3057.21" y2="1641.09" style="stroke:#808080;stroke-width:5.76"/>
	<line x1="3057.21" y1="1620.97" x2="3057.21" y2="1618.14" style="stroke:#808080;stroke-width:5.76"/>
	<line x1="3057.21" y1="1597.88" x2="3057.21" y2="1595.05" style="stroke:#808080;stroke-width:5.76"/>
	<line x1="3057.21" y1="1574.80" x2="3057.21" y2="1571.96" style="stroke:#808080;stroke-width:5.76"/>
	<line x1="3057.21" y1="1551.71" x2="3057.21" y2="1548.88" style="stroke:#808080;stroke-width:5.76"/>
	<line x1="3057.21" y1="1528.63" x2="3057.21" y2="1525.79" style="stroke:#808080;stroke-width:5.76"/>
	<line x1="3057.21" y1="1505.68" x2="3057.21" y2="1502.71" style="stroke:#808080;stroke-width:5.76"/>
	<line x1="3057.21" y1="1482.59" x2="3057.21" y2="1479.76" style="stroke:#808080;stroke-width:5.76"/>
	<line x1="3057.21" y1="1459.51" x2="3057.21" y2="1456.67" style="stroke:#808080;stroke-width:5.76"/>
	<line x1="3057.21" y1="1436.42" x2="3057.21" y2="1433.59" style="stroke:#808080;stroke-width:5.76"/>
	<line x1="3057.21" y1="1413.34" x2="3057.21" y2="1410.50" style="stroke:#808080;stroke-width:5.76"/>
	<line x1="3057.21" y1="1390.25" x2="3057.21" y2="1387.42" style="stroke:#808080;stroke-width:5.76"/>
	<line x1="3057.21" y1="1367.30" x2="3057.21" y2="1364.33" style="stroke:#808080;stroke-width:5.76"/>
	<line x1="3057.21" y1="1344.22" x2="3057.21" y2="1341.38" style="stroke:#808080;stroke-width:5.76"/>
	<line x1="3057.21" y1="1321.13" x2="3057.21" y2="1318.30" style="stroke:#808080;stroke-width:5.76"/>
	<line x1="3057.21" y1="1298.05" x2="3057.21" y2="1295.21" style="stroke:#808080;stroke-width:5.76"/>
	<line x1="3057.21" y1="1274.96" x2="3057.21" y2="1272.12" style="stroke:#808080;stroke-width:5.76"/>
	<line x1="3057.21" y1="1251.87" x2="3057.21" y2="1249.04" style="stroke:#808080;stroke-width:5.76"/>
	<line x1="3057.21" y1="1228.92" x2="3057.21" y2="1225.95" style="stroke:#808080;stroke-width:5.76"/>
	<line x1="3057.21" y1="1205.84" x2="3057.21" y2="1203.00" style="stroke:#808080;stroke-width:5.76"/>
	<line x1="3057.21" y1="1182.75" x2="3057.21" y2="1179.92" style="stroke:#808080;stroke-width:5.76"/>
	<line x1="3057.21" y1="1159.67" x2="3057.21" y2="1156.83" style="stroke:#808080;stroke-width:5.76"/>
	<line x1="3057.21" y1="1136.58" x2="3057.21" y2="1133.75" style="stroke:#808080;stroke-width:5.76"/>
	<line x1="3057.21" y1="1113.50" x2="3057.21" y2="1110.66" style="stroke:#808080;stroke-width:5.76"/>
	<line x1="3057.21" y1="1090.55" x2="3057.21" y2="1087.58" style="stroke:#808080;stroke-width:5.76"/>
	<line x1="3057.21" y1="1067.46" x2="3057.21" y2="1064.63" style="stroke:#808080;stroke-width:5.76"/>
	<line x1="3057.21" y1="1044.38" x2="3057.21" y2="1041.54" style="stroke:#808080;stroke-width:5.76"/>
	<line x1="3057.21" y1="1021.29" x2="3057.21" y2="1018.46" style="stroke:#808080;stroke-width:5.76"/>
	<line x1="3057.21" y1="998.21" x2="3057.21" y2="995.37" style="stroke:#808080;stroke-width:5.76"/>
	<line x1="3057.21" y1="975.12" x2="3057.21" y2="972.29" style="stroke:#808080;stroke-width:5.76"/>
	<line x1="3057.21" y1="952.17" x2="3057.21" y2="949.20" style="stroke:#808080;stroke-width:5.76"/>
	<line x1="3057.21" y1="929.08" x2="3057.21" y2="926.25" style="stroke:#808080;stroke-width:5.76"/>
	<line x1="3057.21" y1="906.00" x2="3057.21" y2="903.16" style="stroke:#808080;stroke-width:5.76"/>
	<line x1="3057.21" y1="882.91" x2="3057.21" y2="880.08" style="stroke:#808080;stroke-width:5.76"/>
	<line x1="3057.21" y1="859.83" x2="3057.21" y2="856.99" style="stroke:#808080;stroke-width:5.76"/>
	<line x1="3057.21" y1="836.74" x2="3057.21" y2="833.91" style="stroke:#808080;stroke-width:5.76"/>
	<line x1="3057.21" y1="813.79" x2="3057.21" y2="810.82" style="stroke:#808080;stroke-width:5.76"/>
	<line x1="3057.21" y1="790.71" x2="3057.21" y2="787.87" style="stroke:#808080;stroke-width:5.76"/>
	<line x1="3057.21" y1="767.62" x2="3057.21" y2="764.79" style="stroke:#808080;stroke-width:5.76"/>
	<line x1="3057.21" y1="744.54" x2="3057.21" y2="741.70" style="stroke:#808080;stroke-width:5.76"/>
	<line x1="3057.21" y1="721.45" x2="3057.21" y2="718.62" style="stroke:#808080;stroke-width:5.76"/>
	<line x1="3057.21" y1="698.37" x2="3057.21" y2="695.53" style="stroke:#808080;stroke-width:5.76"/>
	<line x1="3057.21" y1="675.42" x2="3057.21" y2="672.45" style="stroke:#808080;stroke-width:5.76"/>
	<line x1="3057.21" y1="652.33" x2="3057.21" y2="649.50" style="stroke:#808080;stroke-width:5.76"/>
	<line x1="3057.21" y1="629.24" x2="3057.21" y2="626.41" style="stroke:#808080;stroke-width:5.76"/>
	<line x1="3057.21" y1="606.16" x2="3057.21" y2="603.32" style="stroke:#808080;stroke-width:5.76"/>
	<line x1="3057.21" y1="583.07" x2="3057.21" y2="580.24" style="stroke:#808080;stroke-width:5.76"/>
	<line x1="3057.21" y1="560.12" x2="3057.21" y2="557.15" style="stroke:#808080;stroke-width:5.76"/>
	<line x1="3057.21" y1="537.04" x2="3057.21" y2="534.20" style="stroke:#808080;stroke-width:5.76"/>
	<line x1="3057.21" y1="513.95" x2="3057.21" y2="511.12" style="stroke:#808080;stroke-width:5.76"/>
	<line x1="3057.21" y1="490.87" x2="3057.21" y2="488.03" style="stroke:#808080;stroke-width:5.76"/>
	<line x1="3057.21" y1="467.78" x2="3057.21" y2="464.95" style="stroke:#808080;stroke-width:5.76"/>
	<line x1="3057.21" y1="444.70" x2="3057.21" y2="441.86" style="stroke:#808080;stroke-width:5.76"/>
	<line x1="3057.21" y1="421.75" x2="3057.21" y2="418.78" style="stroke:#808080;stroke-width:5.76"/>
	<line x1="3057.21" y1="398.66" x2="3057.21" y2="395.83" style="stroke:#808080;stroke-width:5.76"/>
	<line x1="3057.21" y1="375.58" x2="3057.21" y2="372.74" style="stroke:#808080;stroke-width:5.76"/>
	<line x1="3057.21" y1="352.49" x2="3057.21" y2="349.66" style="stroke:#808080;stroke-width:5.76"/>
	<line x1="3057.21" y1="329.41" x2="3057.21" y2="326.57" style="stroke:#808080;stroke-width:5.76"/>
	<line x1="4118.31" y1="2428.15" x2="4118.31" y2="2425.31" style="stroke:#808080;stroke-width:5.76"/>
	<line x1="4118.31" y1="2405.06" x2="4118.31" y2="2402.23" style="stroke:#808080;stroke-width:5.76"/>
	<line x1="4118.31" y1="2381.98" x2="4118.31" y2="2379.14" style="stroke:#808080;stroke-width:5.76"/>
	<line x1="4118.31" y1="2358.89" x2="4118.31" y2="2356.06" style="stroke:#808080;stroke-width:5.76"/>
	<line x1="4118.31" y1="2335.81" x2="4118.31" y2="2332.97" style="stroke:#808080;stroke-width:5.76"/>
	<line x1="4118.31" y1="2312.86" x2="4118.31" y2="2309.89" style="stroke:#808080;stroke-width:5.76"/>
	<line x1="4118.31" y1="2289.77" x2="4118.31" y2="2286.94" style="stroke:#808080;stroke-width:5.76"/>
	<line x1="4118.31" y1="2266.69" x2="4118.31" y2="2263.85" style="stroke:#808080;stroke-width:5.76"/>
	<line x1="4118.31" y1="2243.60" x2="4118.31" y2="2240.77" style="stroke:#808080;stroke-width:5.76"/>
	<line x1="4118.31" y1="2220.51" x2="4118.31" y2="2217.68" style="stroke:#808080;stroke-width:5.76"/>
	<line x1="4118.31" y1="2197.43" x2="4118.31" y2="2194.59" style="stroke:#808080;stroke-width:5.76"/>
	<line x1="4118.31" y1="2174.48" x2="4118.31" y2="2171.51" style="stroke:#808080;stroke-width:5.76"/>
	<line x1="4118.31" y1="2151.39" x2="4118.31" y2="2148.56" style="stroke:#808080;stroke-width:5.76"/>
	<line x1="4118.31" y1="2128.31" x2="4118.31" y2="2125.47" style="stroke:#808080;stroke-width:5.76"/>
	<line x1="4118.31" y1="2105.22" x2="4118.31" y2="2102.39" style="stroke:#808080;stroke-width:5.76"/>
	<line x1="4118.31" y1="2082.14" x2="4118.31" y2="2079.30" style="stroke:#808080;stroke-width:5.76"/>
	<line x1="4118.31" y1="2059.19" x2="4118.31" y2="2056.22" style="stroke:#808080;stroke-width:5.76"/>
	<line x1="4118.31" y1="2036.10" x2="4118.31" y2="2033.27" style="stroke:#808080;stroke-width:5.76"/>
	<line x1="4118.31" y1="2013.02" x2="4118.31" y2="2010.18" style="stroke:#808080;stroke-width:5.76"/>
	<line x1="4118.31" y1="1989.93" x2="4118.31" y2="1987.10" style="stroke:#808080;stroke-width:5.76"/>
	<line x1="4118.31" y1="1966.85" x2="4118.31" y2="1964.01" style="stroke:#808080;stroke-width:5.76"/>
	<line x1="4118.31" y1="1943.76" x2="4118.31" y2="1940.93" style="stroke:#808080;stroke-width:5.76"/>
	<line x1="4118.31" y1="1920.81" x2="4118.31" y2="1917.84" style="stroke:#808080;stroke-width:5.76"/>
	<line x1="4118.31" y1="1897.72" x2="4118.31" y2="1894.89" style="stroke:#808080;stroke-width:5.76"/>
	<line x1="4118.31" y1="1874.64" x2="4118.31" y2="1871.80" style="stroke:#808080;stroke-width:5.76"/>
	<line x1="4118.31" y1="1851.55" x2="4118.31" y2="1848.72" style="stroke:#808080;stroke-width:5.76"/>
	<line x1="4118.31" y1="1828.47" x2="4118.31" y2="1825.63" style="stroke:#808080;stroke-width:5.76"/>
	<line x1="4118.31" y1="1805.38" x2="4118.31" y2="1802.55" style="stroke:#808080;stroke-width:5.76"/>
	<line x1="4118.31" y1="1782.43" x2="4118.31" y2="1779.46" style="stroke:#808080;stroke-width:5.76"/>
	<line x1="4118.31" y1="1759.35" x2="4118.31" y2="1756.51" style="stroke:#808080;stroke-width:5.76"/>
	<line x1="4118.31" y1="1736.26" x2="4118.31" y2="1733.43" style="stroke:#808080;stroke-width:5.76"/>
	<line x1="4118.31" y1="1713.18" x2="4118.31" y2="1710.34" style="stroke:#808080;stroke-width:5.76"/>
	<line x1="4118.31" y1="1690.09" x2="4118.31" y2="1687.26" style="stroke:#808080;stroke-width:5.76"/>
	<line x1="4118.31" y1="1667.01" x2="4118.31" y2="1664.17" style="stroke:#808080;stroke-width:5.76"/>
	<line x1="4118.31" y1="1644.06" x2="4118.31" y2="1641.09" style="stroke:#808080;stroke-width:5.76"/>
	<line x1="4118.31" y1="1620.97" x2="4118.31" y2="1618.14" style="stroke:#808080;stroke-width:5.76"/>
	<line x1="4118.31" y1="1597.88" x2="4118.31" y2="1595.05" style="stroke:#808080;stroke-width:5.76"/>
	<line x1="4118.31" y1="1574.80" x2="4118.31" y2="1571.96" style="stroke:#808080;stroke-width:5.76"/>
	<line x1="4118.31" y1="1551.71" x2="4118.31" y2="1548.88" style="stroke:#808080;stroke-width:5.76"/>
	<line x1="4118.31" y1="1528.63" x2="4118.31" y2="1525.79" style="stroke:#808080;stroke-width:5.76"/>
	<line x1="4118.31" y1="1505.68" x2="4118.31" y2="1502.71" style="stroke:#808080;stroke-width:5.76"/>
	<line x1="4118.31" y1="1482.59" x2="4118.31" y2="1479.76" style="stroke:#808080;stroke-width:5.76"/>
	<line x1="4118.31" y1="1459.51" x2="4118.31" y2="1456.67" style="stroke:#808080;stroke-width:5.76"/>
	<line x1="4118.31" y1="1436.42" x2="4118.31" y2="1433.59" style="stroke:#808080;stroke-width:5.76"/>
	<line x1="4118.31" y1="1413.34" x2="4118.31" y2="1410.50" style="stroke:#808080;stroke-width:5.76"/>
	<line x1="4118.31" y1="1390.25" x2="4118.31" y2="1387.42" style="stroke:#808080;stroke-width:5.76"/>
	<line x1="4118.31" y1="1367.30" x2="4118.31" y2="1364.33" style="stroke:#808080;stroke-width:5.76"/>
	<line x1="4118.31" y1="1344.22" x2="4118.31" y2="1341.38" style="stroke:#808080;stroke-width:5.76"/>
	<line x1="4118.31" y1="1321.13" x2="4118.31" y2="1318.30" style="stroke:#808080;stroke-width:5.76"/>
	<line x1="4118.31" y1="1298.05" x2="4118.31" y2="1295.21" style="stroke:#808080;stroke-width:5.76"/>
	<line x1="4118.31" y1="1274.96" x2="4118.31" y2="1272.12" style="stroke:#808080;stroke-width:5.76"/>
	<line x1="4118.31" y1="1251.87" x2="4118.31" y2="1249.04" style="stroke:#808080;stroke-width:5.76"/>
	<line x1="4118.31" y1="1228.92" x2="4118.31" y2="1225.95" style="stroke:#808080;stroke-width:5.76"/>
	<line x1="4118.31" y1="1205.84" x2="4118.31" y2="1203.00" style="stroke:#808080;stroke-width:5.76"/>
	<line x1="4118.31" y1="1182.75" x2="4118.31" y2="1179.92" style="stroke:#808080;stroke-width:5.76"/>
	<line x1="4118.31" y1="1159.67" x2="4118.31" y2="1156.83" style="stroke:#808080;stroke-width:5.76"/>
	<line x1="4118.31" y1="1136.58" x2="4118.31" y2="1133.75" style="stroke:#808080;stroke-width:5.76"/>
	<line x1="4118.31" y1="1113.50" x2="4118.31" y2="1110.66" style="stroke:#808080;stroke-width:5.76"/>
	<line x1="4118.31" y1="1090.55" x2="4118.31" y2="1087.58" style="stroke:#808080;stroke-width:5.76"/>
	<line x1="4118.31" y1="1067.46" x2="4118.31" y2="1064.63" style="stroke:#808080;stroke-width:5.76"/>
	<line x1="4118.31" y1="1044.38" x2="4118.31" y2="1041.54" style="stroke:#808080;stroke-width:5.76"/>
	<line x1="4118.31" y1="1021.29" x2="4118.31" y2="1018.46" style="stroke:#808080;stroke-width:5.76"/>
	<line x1="4118.31" y1="998.21" x2="4118.31" y2="995.37" style="stroke:#808080;stroke-width:5.76"/>
	<line x1="4118.31" y1="975.12" x2="4118.31" y2="972.29" style="stroke:#808080;stroke-width:5.76"/>
	<line x1="4118.31" y1="952.17" x2="4118.31" y2="949.20" style="stroke:#808080;stroke-width:5.76"/>
	<line x1="4118.31" y1="929.08" x2="4118.31" y2="926.25" style="stroke:#808080;stroke-width:5.76"/>
	<line x1="4118.31" y1="906.00" x2="4118.31" y2="903.16" style="stroke:#808080;stroke-width:5.76"/>
	<line x1="4118.31" y1="882.91" x2="4118.31" y2="880.08" style="stroke:#808080;stroke-width:5.76"/>
	<line x1="4118.31" y1="859.83" x2="4118.31" y2="856.99" style="stroke:#808080;stroke-width:5.76"/>
	<line x1="4118.31" y1="836.74" x2="4118.31" y2="833.91" style="stroke:#808080;stroke-width:5.76"/>
	<line x1="4118.31" y1="813.79" x2="4118.31" y2="810.82" style="stroke:#808080;stroke-width:5.76"/>
	<line x1="4118.31" y1="790.71" x2="4118.31" y2="787.87" style="stroke:#808080;stroke-width:5.76"/>
	<line x1="4118.31" y1="767.62" x2="4118.31" y2="764.79" style="stroke:#808080;stroke-width:5.76"/>
	<line x1="4118.31" y1="744.54" x2="4118.31" y2="741.70" style="stroke:#808080;stroke-width:5.76"/>
	<line x1="4118.31" y1="721.45" x2="4118.31" y2="718.62" style="stroke:#808080;stroke-width:5.76"/>
	<line x1="4118.31" y1="698.37" x2="4118.31" y2="695.53" style="stroke:#808080;stroke-width:5.76"/>
	<line x1="4118.31" y1="675.42" x2="4118.31" y2="672.45" style="stroke:#808080;stroke-width:5.76"/>
	<line x1="4118.31" y1="652.33" x2="4118.31" y2="649.50" style="stroke:#808080;stroke-width:5.76"/>
	<line x1="4118.31" y1="629.24" x2="4118.31" y2="626.41" style="stroke:#808080;stroke-width:5.76"/>
	<line x1="4118.31" y1="606.16" x2="4118.31" y2="603.32" style="stroke:#808080;stroke-width:5.76"/>
	<line x1="4118.31" y1="583.07" x2="4118.31" y2="580.24" style="stroke:#808080;stroke-width:5.76"/>
	<line x1="4118.31" y1="560.12" x2="4118.31" y2="557.15" style="stroke:#808080;stroke-width:5.76"/>
	<line x1="4118.31" y1="537.04" x2="4118.31" y2="534.20" style="stroke:#808080;stroke-width:5.76"/>
	<line x1="4118.31" y1="513.95" x2="4118.31" y2="511.12" style="stroke:#808080;stroke-width:5.76"/>
	<line x1="4118.31" y1="490.87" x2="4118.31" y2="488.03" style="stroke:#808080;stroke-width:5.76"/>
	<line x1="4118.31" y1="467.78" x2="4118.31" y2="464.95" style="stroke:#808080;stroke-width:5.76"/>
	<line x1="4118.31" y1="444.70" x2="4118.31" y2="441.86" style="stroke:#808080;stroke-width:5.76"/>
	<line x1="4118.31" y1="421.75" x2="4118.31" y2="418.78" style="stroke:#808080;stroke-width:5.76"/>
	<line x1="4118.31" y1="398.66" x2="4118.31" y2="395.83" style="stroke:#808080;stroke-width:5.76"/>
	<line x1="4118.31" y1="375.58" x2="4118.31" y2="372.74" style="stroke:#808080;stroke-width:5.76"/>
	<line x1="4118.31" y1="352.49" x2="4118.31" y2="349.66" style="stroke:#808080;stroke-width:5.76"/>
	<line x1="4118.31" y1="329.41" x2="4118.31" y2="326.57" style="stroke:#808080;stroke-width:5.76"/>
	<rect x="1996.11" y="2220.51" width="1954.53" height="88.97" style="fill:#A65D62;fill-opacity:0.80"/>
	<rect x="1998.27" y="2222.67" width="1950.21" height="84.65" style="fill:none;stroke:#90353B;stroke-opacity:0.80;stroke-width:4.32"/>
	<rect x="1996.11" y="2071.74" width="1506.73" height="89.10" style="fill:#A65D62;fill-opacity:0.80"/>
	<rect x="1998.27" y="2073.90" width="1502.42" height="84.78" style="fill:none;stroke:#90353B;stroke-opacity:0.80;stroke-width:4.32"/>
	<rect x="1996.11" y="1923.11" width="1290.33" height="88.97" style="fill:#A65D62;fill-opacity:0.80"/>
	<rect x="1998.27" y="1925.27" width="1286.01" height="84.65" style="fill:none;stroke:#90353B;stroke-opacity:0.80;stroke-width:4.32"/>
	<rect x="1996.11" y="1774.33" width="1277.64" height="89.10" style="fill:#A65D62;fill-opacity:0.80"/>
	<rect x="1998.27" y="1776.49" width="1273.32" height="84.78" style="fill:none;stroke:#90353B;stroke-opacity:0.80;stroke-width:4.32"/>
	<rect x="1996.11" y="1625.70" width="1184.22" height="88.97" style="fill:#A65D62;fill-opacity:0.80"/>
	<rect x="1998.27" y="1627.86" width="1179.90" height="84.65" style="fill:none;stroke:#90353B;stroke-opacity:0.80;stroke-width:4.32"/>
	<rect x="1996.11" y="1476.92" width="1078.11" height="89.10" style="fill:#A65D62;fill-opacity:0.80"/>
	<rect x="1998.27" y="1479.08" width="1073.79" height="84.78" style="fill:none;stroke:#90353B;stroke-opacity:0.80;stroke-width:4.32"/>
	<rect x="1996.11" y="1328.29" width="967.82" height="88.97" style="fill:#A65D62;fill-opacity:0.80"/>
	<rect x="1998.27" y="1330.45" width="963.50" height="84.65" style="fill:none;stroke:#90353B;stroke-opacity:0.80;stroke-width:4.32"/>
	<rect x="1996.11" y="1179.51" width="407.57" height="89.10" style="fill:#A65D62;fill-opacity:0.80"/>
	<rect x="1998.27" y="1181.67" width="403.25" height="84.78" style="fill:none;stroke:#90353B;stroke-opacity:0.80;stroke-width:4.32"/>
	<rect x="1996.11" y="1030.74" width="284.44" height="89.10" style="fill:#A65D62;fill-opacity:0.80"/>
	<rect x="1998.27" y="1032.90" width="280.13" height="84.78" style="fill:none;stroke:#90353B;stroke-opacity:0.80;stroke-width:4.32"/>
	<rect x="1561.14" y="882.10" width="434.97" height="89.10" style="fill:#A65D62;fill-opacity:0.80"/>
	<rect x="1563.30" y="884.26" width="430.65" height="84.78" style="fill:none;stroke:#90353B;stroke-opacity:0.80;stroke-width:4.32"/>
	<rect x="1522.93" y="733.33" width="473.17" height="89.10" style="fill:#A65D62;fill-opacity:0.80"/>
	<rect x="1525.09" y="735.49" width="468.86" height="84.78" style="fill:none;stroke:#90353B;stroke-opacity:0.80;stroke-width:4.32"/>
	<rect x="1389.29" y="584.69" width="606.82" height="88.97" style="fill:#A65D62;fill-opacity:0.80"/>
	<rect x="1391.44" y="586.85" width="602.51" height="84.65" style="fill:none;stroke:#90353B;stroke-opacity:0.80;stroke-width:4.32"/>
	<rect x="737.77" y="435.92" width="1258.34" height="89.10" style="fill:#A65D62;fill-opacity:0.80"/>
	<rect x="739.93" y="438.08" width="1254.02" height="84.78" style="fill:none;stroke:#90353B;stroke-opacity:0.80;stroke-width:4.32"/>
	<line x1="935.14" y1="2428.15" x2="935.14" y2="2468.11" style="stroke:#808080;stroke-width:5.76"/>
	<text x="935.14" y="2566.36" style="font-family:'Helvetica';font-size:111.92px;fill:#000000" text-anchor="middle">-.5</text>
	<line x1="1996.11" y1="2428.15" x2="1996.11" y2="2468.11" style="stroke:#808080;stroke-width:5.76"/>
	<text x="1996.11" y="2566.36" style="font-family:'Helvetica';font-size:111.92px;fill:#000000" text-anchor="middle">0</text>
	<line x1="3057.21" y1="2428.15" x2="3057.21" y2="2468.11" style="stroke:#808080;stroke-width:5.76"/>
	<text x="3057.21" y="2566.36" style="font-family:'Helvetica';font-size:111.92px;fill:#000000" text-anchor="middle">.5</text>
	<line x1="4118.31" y1="2428.15" x2="4118.31" y2="2468.11" style="stroke:#808080;stroke-width:5.76"/>
	<text x="4118.31" y="2566.36" style="font-family:'Helvetica';font-size:111.92px;fill:#000000" text-anchor="middle">1</text>
	<line x1="935.14" y1="2428.15" x2="4118.31" y2="2428.15" style="stroke:#000000;stroke-width:5.76"/>
	<text x="2427.97" y="2700.57" style="font-family:'Helvetica';font-size:79.92px;fill:#000000" text-anchor="middle">Relative Responsiveness</text>
	<text x="596.97" y="2293.07" style="font-family:'Helvetica';font-size:79.92px;fill:#000000" text-anchor="end">Czechia</text>
	<text x="596.97" y="2144.30" style="font-family:'Helvetica';font-size:79.92px;fill:#000000" text-anchor="end">Hungary</text>
	<text x="596.97" y="1995.53" style="font-family:'Helvetica';font-size:79.92px;fill:#000000" text-anchor="end">Poland</text>
	<text x="596.97" y="1846.89" style="font-family:'Helvetica';font-size:79.92px;fill:#000000" text-anchor="end">Greece</text>
	<text x="596.97" y="1698.12" style="font-family:'Helvetica';font-size:79.92px;fill:#000000" text-anchor="end">Italy</text>
	<text x="596.97" y="1549.48" style="font-family:'Helvetica';font-size:79.92px;fill:#000000" text-anchor="end">Romania</text>
	<text x="596.97" y="1400.71" style="font-family:'Helvetica';font-size:79.92px;fill:#000000" text-anchor="end">Netherlands</text>
	<text x="596.97" y="1252.07" style="font-family:'Helvetica';font-size:79.92px;fill:#000000" text-anchor="end">Bulgaria</text>
	<text x="596.97" y="1103.30" style="font-family:'Helvetica';font-size:79.92px;fill:#000000" text-anchor="end">Germany</text>
	<text x="596.97" y="954.66" style="font-family:'Helvetica';font-size:79.92px;fill:#000000" text-anchor="end">Denmark</text>
	<text x="596.97" y="805.89" style="font-family:'Helvetica';font-size:79.92px;fill:#000000" text-anchor="end">Spain</text>
	<text x="596.97" y="657.25" style="font-family:'Helvetica';font-size:79.92px;fill:#000000" text-anchor="end">Croatia</text>
	<text x="596.97" y="508.48" style="font-family:'Helvetica';font-size:79.92px;fill:#000000" text-anchor="end">Finland</text>
	<line x1="636.93" y1="2265.07" x2="636.93" y2="480.47" style="stroke:#808080;stroke-width:7.20"/>
	<text x="654.21" y="245.45" style="font-family:'Helvetica';font-size:181.98px;fill:#000000">A)</text>
</svg>
