<?xml version="1.0" encoding="UTF-8"?>
<svg id="Layer_1" xmlns="http://www.w3.org/2000/svg" xmlns:xlink="http://www.w3.org/1999/xlink" version="1.1" viewBox="0 0 3698 1920">
  <!-- Generator: Adobe Illustrator 29.1.0, SVG Export Plug-In . SVG Version: 2.1.0 Build 142)  -->
  <defs>
    <style>
      .st0, .st1, .st2, .st3, .st4, .st5, .st6 {
        fill: none;
      }

      .st1 {
        stroke: #70ad47;
      }

      .st1, .st2, .st3, .st4, .st6 {
        stroke-width: 6.9px;
      }

      .st1, .st2, .st4, .st5, .st6 {
        stroke-linejoin: round;
      }

      .st1, .st2, .st4, .st6 {
        stroke-linecap: round;
      }

      .st7 {
        font-size: 46px;
      }

      .st7, .st8, .st9, .st10, .st11, .st12, .st13 {
        isolation: isolate;
      }

      .st7, .st8, .st9, .st11, .st12 {
        font-family: Helvetica, Helvetica;
      }

      .st8, .st11 {
        font-size: 50px;
      }

      .st2 {
        stroke: #ffc000;
      }

      .st3 {
        stroke-miterlimit: 8;
      }

      .st3, .st12 {
        stroke: #000;
      }

      .st9 {
        font-size: 41px;
      }

      .st4 {
        stroke: #a5a5a5;
      }

      .st14 {
        clip-path: url(#clippath-1);
      }

      .st11 {
        fill: #595959;
      }

      .st12 {
        stroke-miterlimit: 10;
      }

      .st12, .st13 {
        font-size: 55px;
      }

      .st13 {
        font-family: Helvetica-Bold, Helvetica;
        font-weight: 700;
      }

      .st5 {
        stroke: #d9d9d9;
        stroke-width: 3.4px;
      }

      .st6 {
        stroke: #5b9bd5;
      }

      .st15 {
        clip-path: url(#clippath);
      }
    </style>
    <clipPath id="clippath">
      <rect class="st0" y="0" width="3698" height="1920"/>
    </clipPath>
    <clipPath id="clippath-1">
      <rect class="st0" y="0" width="3698" height="1920"/>
    </clipPath>
  </defs>
  <g class="st15">
    <g class="st14">
      <g>
        <path class="st5" d="M231.5,1462.5h2968M231.5,1227.5h2968M231.5,992.5h2968M231.5,757.5h2968M231.5,522.5h2968M231.5,287.5h2968M231.5,52.5h2968"/>
        <path class="st5" d="M231.5,1697.5h2968"/>
        <path class="st5" d="M231.5,1697.5v16M281.5,1697.5v16M327.5,1697.5v16M377.5,1697.5v16M426.5,1697.5v16M477.5,1697.5v16M525.5,1697.5v16M576.5,1697.5v16M626.5,1697.5v16M675.5,1697.5v16M726.5,1697.5v16M774.5,1697.5v16M825.5,1697.5v16M875.5,1697.5v16M923.5,1697.5v16M973.5,1697.5v16M1022.5,1697.5v16M1072.5,1697.5v16M1121.5,1697.5v16M1172.5,1697.5v16M1222.5,1697.5v16M1271.5,1697.5v16M1321.5,1697.5v16M1370.5,1697.5v16M1421.5,1697.5v16M1471.5,1697.5v16M1517.5,1697.5v16M1567.5,1697.5v16M1616.5,1697.5v16M1666.5,1697.5v16M1715.5,1697.5v16M1766.5,1697.5v16M1816.5,1697.5v16M1865.5,1697.5v16M1915.5,1697.5v16M1964.5,1697.5v16M2015.5,1697.5v16M2065.5,1697.5v16M2111.5,1697.5v16M2161.5,1697.5v16M2210.5,1697.5v16M2260.5,1697.5v16M2309.5,1697.5v16M2360.5,1697.5v16M2410.5,1697.5v16M2459.5,1697.5v16M2509.5,1697.5v16M2558.5,1697.5v16M2609.5,1697.5v16M2659.5,1697.5v16M2705.5,1697.5v16M2755.5,1697.5v16M2804.5,1697.5v16M2854.5,1697.5v16M2903.5,1697.5v16M2954.5,1697.5v16M3004.5,1697.5v16M3053.5,1697.5v16M3103.5,1697.5v16M3152.5,1697.5v16"/>
        <path class="st6" d="M232.5,1592.5l1-1,2,2,2-3,5,6,1-4,2,3,1-1,2-2,5,3,2-1,1-2,2-3,1,2,5,4h2l2-1,1,2,2,2,5,2h1l2,2,2,2,1,3h5l2,1,1-1,2,1,2,2,4,2,2,1,2-1,1,1,2-1,5,3,2-2,1-1,2,3,1,1,5,1h2l2-3,1-1,2,2h5l1,1,2,2h3l5,1,2,2,1,2h2l2,2h4l2,2,2-1,1,3h2l5,1,1-2,2-1,2,3,1-1,5,2,2,3,1-4,2-3,2-8,5,4,1-5,2,5,1-2,2,2,5,4,2-1,1-1,2,4h6l2,1h2l1-3,2,3,5-1,1,1,2,1,2-2,1-1,5,2,2,1,1-2,2,1,2,1,5,2,1-2,2,1,1,3,2,1h5l2,1h1l2,2h1l5,1,2-1,2,1,1,3h2l5,2,1-4,2,1,2,3,1-2,5-1,2,2,1,1,2-1,2-1,5,1,1,2,2,2,1,1,2-1,5,2,2,1,1,1h2l1-2,5-2h4l1-1,2-3,5-3,1,3,2-6,2-2,1-2,5,3,2,7h1l2,3h2l4,2,2-2,2,2,1,1h2l5,1,2-1,1-5,2-8,1,4,5,2,2,2,2-1,1-5,2,3,5,2,1-2,2,2,2,1h1l5,1,2-2h1l2,1,2,3h4l2,1,2-1,1-1,2-10,5,4,1-1,2,1,2-2h6l2-10,1,3,2-4,2,1,5-4,1,8,2,4,2,1h1l5,1h2l1,2,2-1,2,1,4,3,2-24,2,2,1-1,2,2,5,1,1-1,2-1,2,1,1-1h7l1-1,2,1h2l5,1,1,1,2,1,1-2,2,2,5,4,2,3h1l2-11h1l5-2h2l2,1,1,1,2,1,5,1,1,1h2l2-1h1l5,2h2l1-1,2-1,2-2,5-1,1,2,2-1,1,2,2-3,5,2,2,1h1l2,2,1,1,5,2,2,1,2,3,1-4,2,4,5-1,1-2,2-3h2l1,4,5,5,2,3h3l2-1,4,2,2,1h3l2-4,5,3,2,2h4l5-1,2,4h2l1,1,2,1,5,1,1-1,2,2h2l1-1h5l2-1,1,3,2,1,2,1,4,3,2-1h2l1,1h2l5,3h1l2-1h2l1-1,5-3,2,1,1-1h2l2,1,5,2h1l2-1,2,2,1-1h7l1,1,2-1,2,1,4,1,2-3,2-1h3l5,3,1,1,2,2,2-2h1l5,3h3l2,2,2,1,5,2,1-1h2l1,1h2l5-2,2-1,1,1h10l2,2,1-2,2,1,5,2,1,1,2,1,2,1,1,1,5-1,2-1,1,1,2,1h11l2-1,5,2,2,1,1,1,2-1h1l5,2,2,1,2,1,1,2h2l5-5,1,5,2,1h2l1,1,5-3,2-3,1-2h2l2-1h4l2,3h2l1-1,2-1h5l2,1,1-1,2-1h6l2-1h2l1,2h2l5-2,1-1,2,1,2-1h1l5-1h2l1,1,2,1,2,1,4,2h2l2-1,1,1h2l5,2,1-1h2l2-1,1,1h7l1-2,2,1,2-1h5l1-10,2,1,2-3h1l5,1h2l1,2h2l2-4,4-1,2-1,2,1,1,1,2,2,5-3,1-2,2-2,2,1,1-4,5-2,2-5,1,1,2-4h2l5,2,1,3h2l1,1,2,1,5-2h2l1-2,2-1,1,1,5-1h2l2-2h1l2,2,5-3,1-3,2,5,2-8,1,2,5-2,2,1,1-3,2-1,2,1h5l1,1,2-2,1-1,2-1,5-2h3l2-2h1l5,3,2-1,2,2,1,1,2,1,5,2,1-1,2-1,2-1,1,2h5l2-1h3l2-1,4-1,2,3,2,1,1,3h2l5-3,2-1h1l2-1,1-2,5-2h2l2-1,1,5,2-3,5,2,1-1,2-1,2-4,1-2,5-2,2-4,1,4,2,1,2,1,4-5,2-3,2,1,1-1h7l1-6h2l2-1,6-3,2,7,1,4,2-9,2-6,5-9,1-12,2,12,2,6,1,6,5,5,2-7,1,2h2l2-8,4,7,2,2,2,1,1-8,2,4,5,11,1-1,2,3,2-1,1-3,5-6,2,4,1,3,2,3,2-1,5,7,1-2,2,1,1-3,2,4,5,2,2-2,1,1,2,2,1-1,5-1,2,2,2,1,1-2,2-2h5l1-3,2-3,2-2,1-2,5,3,2,3,1-4,2,3,2,1,5-4,1-1,2-1,1,1,2-2,5,2,2-3h1l2-1,8-3,2,2,1,2,2-1,5-3,1,1,2-1,2-2,1-2,5-2h2l1-1h2l2,8,4-2,2-8h2l1-3,2-3,5-4,2,4,1-4,2-2h1l5-4,2-5,2,1,1-1,2-2,5,5,1,5,2,5,2-5,1-2,5,1,2-5,1-1,2,4h2l4-1,2-2h3l2-1,5-4,1-4,2-2,2-3,1,3,5-3,2,3h1l2-1,2-6h5l1-6,2-2,2-1,1-4,5-1,2-5,1-7,2-4,2,1,4-11,2,23,2,1,1-2,2-16,5,11,1-3,2,8,2-3,1-6,5-3,2,3,1-2,2-2,2,3,5-7,1-3,2-10h1l2-3,5-8,2,3,1-3,2-2,1-3,5-1,2-5,2-10,1,5,2,4,5-15,1,6,2,8,2,18,1-2,5-5,2-14,1,2,2-4,2-8h6l2-11,1-6,2-2,5-4,2-5,1-7,2-9,1-4,5-19,2-23,2,7,1,12,2-16,5-35,1,5,2,12,2-3,1-4,5-27,2-10,1-34,2-21h2l5-19,1-105,2,16,1,57,2,85h5l2-18,1-31,2-15,1,43,5-43,2,26,2-7,1,16,2,9,5-4,1,6,2,15,2,44,1,44,5-11,2-14,1-37,2,28,2-4,4-21,2,39,2-7,1-18,2,1,5-31,1-58,2-7,2,14,1,28,5,7,2-27,1-12h2l2,23,5-30,1-2,2,7,2,13,1,7h5l2-27,1-35,2,13,2-25,4-56,2-65,2,38,1-60,2,6,5-61,1-158,2,73,2,181,1,118h7l1,25,2,47,2,83h5l1-97,2-33,1-7,2,66,5-13,2,23,1,38,2-51,1,3,5,31,2-12,2,31,1-14,2-14h5l1-63,2,7,2,2,1-5,5,32,2,44,1-9,2-11,2-3,5,15,1,9,2-1,1,13,2-20,5-17,2,58,1-4,2-27,1,16,5-1,2-32,2-26,1-168,2,129,5-23,1-99,2-256,2,117,1-267,5-47,2,23,1,291,2,71,2-1,5,104,1-4,2,33,1-1,2,19,5,28,2-18,1-66,2,28,1,38,5-47,2,11,2-54,1-23,2,47,5,20,1,13,2-6,2,14,1,12,5,1,2-4,1-8,2,75,8-26,2-11,1-6h2l5,20,1-25,2-48,2,41,1,8h5l2-1,1-27,2-32,2,50,5,31,1-11,2,11,2-53,1,24,5,32,2-3,1,5,2,13,2,12,4,12,2-4,2-9,1,7,2-6,5,2,1-1,2,24,2-12,1,5,5,9,2,6,1,7,2-35,2,16,5-7,1-67,2-73,1-24,2-23,5,3,2-11,1-3,2-18,1,2,5-5,2,5,2-31,1-58,2,8,5-70,1-54,2-3,2-33,1,54,5,3,2-20,1-41,2,15,2,88,5,4,1-19,2,8,1,49,2-54,5-67,2-164,1,33,2-6,1,51,5-21,2-42h2l1,43,2,24,5,11,1-17,2-40,2-19,1,8,5-104,2,31,1-38,2-52,2-70,5-103,1,84,2-188,1-52,2,24,5,183,2,75,1-47,2,127,1,118,5-172,2,21,2,148,1-49,2,82,5,50,1-3,2-84,2-8,1,116,5,54,2-94,1,63,2-21,2,29,4,35,2-92,2-56,1,97,2,86,5-15,1,22,2-52,2,19,1,78,5-8,2-11,2,2,1,24,2,55,5,55,1,88,2-41,2-18,1,39,5,89,2-11,1-4,2-32,2-14,4,139,2-173,2-81,1,45,2,16,5,50,1-28,2,28,2,6,1,49,5-76,2-39,1,34,2,16,5-14,2-3,1-16,2-47,1,27,5-3,2,6,2-43,1-66,2,34,5,17,1,4,2-18,2-50,1,48,5-1,2,12,1-4,2,28,2-15,5,90,1,33,2,13,1,38,2,27,2,42,6,14"/>
        <path class="st4" d="M2611.5,1330.5l2,1,1,28,2-14,1,5,5-12,2,10,2,12,1,6,2,12,5,31,1-12,2-12,2-3,1-18,5-3,2,31,1,10h2l2-1,5-3,1-8,2-8,1,6,2-4,5,5,2,7,1,8,2,5,1-1,5,6h2l2-4,1,3,2,9,5,3,1,6,2-4,2-3,1-2,5,12,2,2,1,3,2,3,2,7,4,11,2-4,2,1,1-1,2-34,5,6,1,23,2,5,2-6,1,2,5,13,2-13,2,8,1-12,2,6,5-2,1-4,2,3,2-10,1-20,5-19,2,12,1,15,2,6,8-11,2-3,1,4,2,2h5l1-4,2,7h2l1,3,5,2,2-5h1l2-11,2,3,6,2,2,5,1,3,2-1,5-3,2-3,1,1h2l1,9,5,14,2,7,2-7,1,6,2-2,5-1,1-2,2,3,2,16,1,11,5,1,2,2,1-4,2,7,2,1,5-9,1,11h2l1-5,2-16,5-1,2-14,1-15,2-8,1,19,5,1,2-13,2,4,1,5,2,5,5,2,1-2,2,3,2-4,1-7,5,10,2-8,1-3h2l2-8,5,16,1,9,2,8,1-1,2-2,5,2,2-12,1-7,2-5,1,4,5-5,2-5,2,11,1-1,2,11,5-5,1,7,2,1,2-1,1,2,5-3,2-2,1-13,2,6h6l2-17,2,1,1,3,2-2,5-9,1-4,2,13,2,20,1-6,5-14,2,9,2-6,1,8h2l5,4,1-3,2,9,2-3,1,1,5-3,2,1,1-6,2,4,2-1,4,6,2-2,2,5h3l5-7,1,12,2,2,2,4,1,1,5,7,2,10,1-6,2,5,2-6,5-15,1-18,2,9,1-21,2-6,5,14,2-3,1-8,2-1,2-3,4-1,2,12,2,4,1-2h7l1,22h2l2-4h1l5,15,2-3,1,2,2-10,2,6,5-4,1-1,2,3,1,4,2,4,5-2,2,6h1l2-8h1l5,11,2,6,2,10,1-4,2-6,5,13,1,10,2-5,2-3,1,6,5,10,2,6,1-5,2,4,2,7,5-9,1,12,2-3,1-2,2-1,8-5"/>
        <path class="st2" d="M2611.5,1401.5h2l1,11,2-5,1,5,5-4,2,4,2,8,1,7,2,7,5,21,1-1,2-5,2-1,1-7,5,1,2,13,1,3,2-3,2-3,5-1,1-5,2-4,1,1,2-2,5,1,2,5,1,6,2,3h1l5,3h2l2-2,1,1,2,6,5,3,1,3h2l2-5,1-1,5,8h2l1,5,2,4,2,4,4,8h5l2-20,5,1,1,16,2,3,2-2,1,3,5,6,2-8,2,5,1-6,2,2,5-3,1-3,2,1,2-9,1-15,5-13,2,8,1,9,2,5,8-8,2-4,1,2,2,1,5-2,1-1,2,4h2l1,2,5,1,2-4,1-1,2-8,2,2,6,2,2,5,1,2,2-1,5-3,2-4,1,3,2-1,1,4,5,6,2,4,2-4,1,6,2,2,5-1,1-2,2,1,2,11,1,7,5,1h2l1-3,2,7,2-2,5-7,1,7,2-2,1-2,2-8,5-2,2-6,1-6,2-5,1,12,5,1,2-5,2,4,1,6,2,4,5,5,1-2h2l2-5,1-4,5,5,2-5,1-5,2-1,2-5,5,13,1,6,2,4,1-1,2-2,5-1,2-9,1-6,2-4,1,1,5-3,2-3,2,7,1,1,2,5,5-4,1,5,2-1,2-2h1l5-1,2-1,1-6,2,6h2l4-1,2-8h2l1,1,2-1,5-2h1l2,5,2,10,1-4,5-9,2,4,2-5,1,4,2-1,5,2,1-4,2,6,2-2h1l5-3,2,2,1-4,2,3,2-1,4,4,2-1,2,3,1,2h2l5-6,1,9,2,1,2,1h1l5,4,2,8,1-4,2,3,2-3,5-11,1-9,2,6,1-10,2,1,5,8,2-2,1-4h4l4-2,2,4,2,2,1-2,2,1h5l1,12h2l2-2,1-2,5,10,2-2,1,1,2-6,2,4,5-3,1-1,2,2,1,1,2,2,5-2,2,3h1l2-3,1-1,5,6,2,3,2,9,1-4,2-4,5,9,1,6,2-3,2-1,1,4,5,7,2,3,1-3,2,1,2,4,5-6,1,10,2-2h1l2-1,8-3,2,6,1,5"/>
        <path class="st1" d="M2611.5,1486.5h2l1,3,2-4,1,1,5-4,2,5,2,1,1,6,2,11,5,3h1l2-2,2-1,1-1,5,3,2,6,1,2h2l2-1,5-2h3l1,1h7l2,1,1,5,2-1,1-2,5,6,2-5,2-2,1,8,2-2,5,8,1-4,2,6,2-6,1-1,5,9,2-5,1,3,2,2,2,6,4,1,2-1,2-1,1-1,2-11,5-1,1,12,2,3,2-7,1,3,5,2,2-4,2,2,1-2,2-1h5l1-3h2l2-6,1-8,5-7,2,5,1,4,2,2,8-5,2-2,1,3,2-2,5-1,1-2,2,2h2l1-2h7l1-1,2-5,2,2,6,4,2,2,1-1h2l5-3,2-1,1,1,2-1,1,3,5,2,2,2,2-4,1,6,2,5h5l1-2,2,3,2,5,1,2h5l2,1,1-3,2,4,2-1,5-6,1,3,2-2,1-5,2-4,5,2,2-2,1-2,2-1,1,8,5-2,2-1,2,6,1,6,2,6,5,4,1-4,2-3,2-4,1-4,5,4,2-2,1-6,2,1,2-2,5,9,1,4,2,1,1-3,2-2,5-1,2-6,1-4,2-1h1l5-3,2,1,2,3,1,1,2,1h5l1,2,2-1,2-2,1,2,5-2,2-3,1-1,2,2h2l4-1,2-6,2,2,1,2,2-2,5-1,1,1,2,3,2,4,1-2,5-8,2,4,2-3,1,2,2-2,5,1,1-3,2,3,2-2,1-3,5-2,2,2,1-2,2,1h2l4,2h2l2,4,1,1,2,1,5-4,1,5,2,2,2-2,1,1,5,3,2,7,1-3,2,2,2-2,5-7,1-4,2,1,1-3,2,2,5,5,2-1,1-1h4l4-3,2,3h2l1-2,2,1h5l1,5,2,1,2-3,1-1,5,5,2-1h1l2-4,2,3,5-1,1-1,2,1,1,1h7l2,1,1-1,2-1,1-1,5,3,2,2,2,5,1-3,2-2,5,4,1,3,2-2,2,1,1,1,5,5,2,3,1-3,2,1,2,3,5-4,1,8,2-1,1-1,2-1,8-1,2,3,1,5"/>
        <g class="st10">
          <g class="st10">
            <text class="st9" transform="translate(172.3 1708)"><tspan x="0" y="0">0</tspan></text>
          </g>
        </g>
        <g class="st10">
          <g class="st10">
            <text class="st9" transform="translate(151.4 1473)"><tspan x="0" y="0">50</tspan></text>
          </g>
        </g>
        <g class="st10">
          <g class="st10">
            <text class="st9" transform="translate(130.5 1238)"><tspan x="0" y="0">100</tspan></text>
          </g>
        </g>
        <g class="st10">
          <g class="st10">
            <text class="st9" transform="translate(130.5 1003)"><tspan x="0" y="0">150</tspan></text>
          </g>
        </g>
        <g class="st10">
          <g class="st10">
            <text class="st9" transform="translate(130.5 768)"><tspan x="0" y="0">200</tspan></text>
          </g>
        </g>
        <g class="st10">
          <g class="st10">
            <text class="st9" transform="translate(130.5 533)"><tspan x="0" y="0">250</tspan></text>
          </g>
        </g>
        <g class="st10">
          <g class="st10">
            <text class="st9" transform="translate(130.5 298)"><tspan x="0" y="0">300</tspan></text>
          </g>
        </g>
        <g class="st10">
          <g class="st10">
            <text class="st9" transform="translate(130.5 63)"><tspan x="0" y="0">350</tspan></text>
          </g>
        </g>
        <g class="st10">
          <g class="st10">
            <text class="st8" transform="translate(249.5 1863) rotate(-90)"><tspan x="0" y="0">Jan-19</tspan></text>
          </g>
        </g>
        <g class="st10">
          <g class="st10">
            <text class="st8" transform="translate(300 1871) rotate(-90)"><tspan x="0" y="0">Feb-19</tspan></text>
          </g>
        </g>
        <g class="st10">
          <g class="st10">
            <text class="st8" transform="translate(345.5 1881) rotate(-90)"><tspan x="0" y="0">Mar-19</tspan></text>
          </g>
        </g>
        <g class="st10">
          <g class="st10">
            <text class="st8" transform="translate(396 1869) rotate(-90)"><tspan x="0" y="0">Apr-19</tspan></text>
          </g>
        </g>
        <g class="st10">
          <g class="st10">
            <text class="st8" transform="translate(444.8 1886) rotate(-90)"><tspan x="0" y="0">May-19</tspan></text>
          </g>
        </g>
        <g class="st10">
          <g class="st10">
            <text class="st8" transform="translate(495.2 1865) rotate(-90)"><tspan x="0" y="0">Jun-19</tspan></text>
          </g>
        </g>
        <g class="st10">
          <g class="st10">
            <text class="st8" transform="translate(544.1 1850) rotate(-90)"><tspan x="0" y="0">Jul-19</tspan></text>
          </g>
        </g>
        <g class="st10">
          <g class="st10">
            <text class="st8" transform="translate(594.5 1875) rotate(-90)"><tspan x="0" y="0">Aug-19</tspan></text>
          </g>
        </g>
        <g class="st10">
          <g class="st10">
            <text class="st8" transform="translate(644.9 1871) rotate(-90)"><tspan x="0" y="0">Sep-19</tspan></text>
          </g>
        </g>
        <g class="st10">
          <g class="st10">
            <text class="st8" transform="translate(693.8 1868) rotate(-90)"><tspan x="0" y="0">Oct-19</tspan></text>
          </g>
        </g>
        <g class="st10">
          <g class="st10">
            <text class="st8" transform="translate(744.2 1878) rotate(-90)"><tspan x="0" y="0">Nov-19</tspan></text>
          </g>
        </g>
        <g class="st10">
          <g class="st10">
            <text class="st8" transform="translate(793 1873) rotate(-90)"><tspan x="0" y="0">Dec-19</tspan></text>
          </g>
        </g>
        <g class="st10">
          <g class="st10">
            <text class="st8" transform="translate(843.5 1863) rotate(-90)"><tspan x="0" y="0">Jan-20</tspan></text>
          </g>
        </g>
        <g class="st10">
          <g class="st10">
            <text class="st8" transform="translate(893.9 1871) rotate(-90)"><tspan x="0" y="0">Feb-20</tspan></text>
          </g>
        </g>
        <g class="st10">
          <g class="st10">
            <text class="st8" transform="translate(941.1 1881) rotate(-90)"><tspan x="0" y="0">Mar-20</tspan></text>
          </g>
        </g>
        <g class="st10">
          <g class="st10">
            <text class="st8" transform="translate(991.6 1869) rotate(-90)"><tspan x="0" y="0">Apr-20</tspan></text>
          </g>
        </g>
        <g class="st10">
          <g class="st10">
            <text class="st8" transform="translate(1040.4 1886) rotate(-90)"><tspan x="0" y="0">May-20</tspan></text>
          </g>
        </g>
        <g class="st10">
          <g class="st10">
            <text class="st8" transform="translate(1090.9 1865) rotate(-90)"><tspan x="0" y="0">Jun-20</tspan></text>
          </g>
        </g>
        <g class="st10">
          <g class="st10">
            <text class="st8" transform="translate(1139.7 1850) rotate(-90)"><tspan x="0" y="0">Jul-20</tspan></text>
          </g>
        </g>
        <g class="st10">
          <g class="st10">
            <text class="st8" transform="translate(1190.1 1875) rotate(-90)"><tspan x="0" y="0">Aug-20</tspan></text>
          </g>
        </g>
        <g class="st10">
          <g class="st10">
            <text class="st8" transform="translate(1240.6 1871) rotate(-90)"><tspan x="0" y="0">Sep-20</tspan></text>
          </g>
        </g>
        <g class="st10">
          <g class="st10">
            <text class="st8" transform="translate(1289.4 1868) rotate(-90)"><tspan x="0" y="0">Oct-20</tspan></text>
          </g>
        </g>
        <g class="st10">
          <g class="st10">
            <text class="st8" transform="translate(1339.8 1878) rotate(-90)"><tspan x="0" y="0">Nov-20</tspan></text>
          </g>
        </g>
        <g class="st10">
          <g class="st10">
            <text class="st8" transform="translate(1388.6 1873) rotate(-90)"><tspan x="0" y="0">Dec-20</tspan></text>
          </g>
        </g>
        <g class="st10">
          <g class="st10">
            <text class="st8" transform="translate(1439.1 1863) rotate(-90)"><tspan x="0" y="0">Jan-21</tspan></text>
          </g>
        </g>
        <g class="st10">
          <g class="st10">
            <text class="st8" transform="translate(1489.6 1871) rotate(-90)"><tspan x="0" y="0">Feb-21</tspan></text>
          </g>
        </g>
        <g class="st10">
          <g class="st10">
            <text class="st8" transform="translate(1535.1 1881) rotate(-90)"><tspan x="0" y="0">Mar-21</tspan></text>
          </g>
        </g>
        <g class="st10">
          <g class="st10">
            <text class="st8" transform="translate(1585.6 1869) rotate(-90)"><tspan x="0" y="0">Apr-21</tspan></text>
          </g>
        </g>
        <g class="st10">
          <g class="st10">
            <text class="st8" transform="translate(1634.4 1886) rotate(-90)"><tspan x="0" y="0">May-21</tspan></text>
          </g>
        </g>
        <g class="st10">
          <g class="st10">
            <text class="st8" transform="translate(1684.8 1865) rotate(-90)"><tspan x="0" y="0">Jun-21</tspan></text>
          </g>
        </g>
        <g class="st10">
          <g class="st10">
            <text class="st8" transform="translate(1733.6 1850) rotate(-90)"><tspan x="0" y="0">Jul-21</tspan></text>
          </g>
        </g>
        <g class="st10">
          <g class="st10">
            <text class="st8" transform="translate(1784.1 1875) rotate(-90)"><tspan x="0" y="0">Aug-21</tspan></text>
          </g>
        </g>
        <g class="st10">
          <g class="st10">
            <text class="st8" transform="translate(1834.5 1871) rotate(-90)"><tspan x="0" y="0">Sep-21</tspan></text>
          </g>
        </g>
        <g class="st10">
          <g class="st10">
            <text class="st8" transform="translate(1883.4 1868) rotate(-90)"><tspan x="0" y="0">Oct-21</tspan></text>
          </g>
        </g>
        <g class="st10">
          <g class="st10">
            <text class="st8" transform="translate(1933.8 1878) rotate(-90)"><tspan x="0" y="0">Nov-21</tspan></text>
          </g>
        </g>
        <g class="st10">
          <g class="st10">
            <text class="st8" transform="translate(1982.6 1873) rotate(-90)"><tspan x="0" y="0">Dec-21</tspan></text>
          </g>
        </g>
        <g class="st10">
          <g class="st10">
            <text class="st8" transform="translate(2033.1 1863) rotate(-90)"><tspan x="0" y="0">Jan-22</tspan></text>
          </g>
        </g>
        <g class="st10">
          <g class="st10">
            <text class="st8" transform="translate(2083.5 1871) rotate(-90)"><tspan x="0" y="0">Feb-22</tspan></text>
          </g>
        </g>
        <g class="st10">
          <g class="st10">
            <text class="st8" transform="translate(2129.1 1881) rotate(-90)"><tspan x="0" y="0">Mar-22</tspan></text>
          </g>
        </g>
        <g class="st10">
          <g class="st10">
            <text class="st8" transform="translate(2179.5 1869) rotate(-90)"><tspan x="0" y="0">Apr-22</tspan></text>
          </g>
        </g>
        <g class="st10">
          <g class="st10">
            <text class="st8" transform="translate(2228.4 1886) rotate(-90)"><tspan x="0" y="0">May-22</tspan></text>
          </g>
        </g>
        <g class="st10">
          <g class="st10">
            <text class="st8" transform="translate(2278.8 1865) rotate(-90)"><tspan x="0" y="0">Jun-22</tspan></text>
          </g>
        </g>
        <g class="st10">
          <g class="st10">
            <text class="st8" transform="translate(2327.6 1850) rotate(-90)"><tspan x="0" y="0">Jul-22</tspan></text>
          </g>
        </g>
        <g class="st10">
          <g class="st10">
            <text class="st8" transform="translate(2378.1 1875) rotate(-90)"><tspan x="0" y="0">Aug-22</tspan></text>
          </g>
        </g>
        <g class="st10">
          <g class="st10">
            <text class="st8" transform="translate(2428.5 1871) rotate(-90)"><tspan x="0" y="0">Sep-22</tspan></text>
          </g>
        </g>
        <g class="st10">
          <g class="st10">
            <text class="st8" transform="translate(2477.4 1868) rotate(-90)"><tspan x="0" y="0">Oct-22</tspan></text>
          </g>
        </g>
        <g class="st10">
          <g class="st10">
            <text class="st8" transform="translate(2527.8 1878) rotate(-90)"><tspan x="0" y="0">Nov-22</tspan></text>
          </g>
        </g>
        <g class="st10">
          <g class="st10">
            <text class="st8" transform="translate(2576.6 1873) rotate(-90)"><tspan x="0" y="0">Dec-22</tspan></text>
          </g>
        </g>
        <g class="st10">
          <g class="st10">
            <text class="st8" transform="translate(2627.1 1863) rotate(-90)"><tspan x="0" y="0">Jan-23</tspan></text>
          </g>
        </g>
        <g class="st10">
          <g class="st10">
            <text class="st8" transform="translate(2677.5 1871) rotate(-90)"><tspan x="0" y="0">Feb-23</tspan></text>
          </g>
        </g>
        <g class="st10">
          <g class="st10">
            <text class="st8" transform="translate(2723.1 1881) rotate(-90)"><tspan x="0" y="0">Mar-23</tspan></text>
          </g>
        </g>
        <g class="st10">
          <g class="st10">
            <text class="st8" transform="translate(2773.5 1869) rotate(-90)"><tspan x="0" y="0">Apr-23</tspan></text>
          </g>
        </g>
        <g class="st10">
          <g class="st10">
            <text class="st8" transform="translate(2822.3 1886) rotate(-90)"><tspan x="0" y="0">May-23</tspan></text>
          </g>
        </g>
        <g class="st10">
          <g class="st10">
            <text class="st8" transform="translate(2872.8 1865) rotate(-90)"><tspan x="0" y="0">Jun-23</tspan></text>
          </g>
        </g>
        <g class="st10">
          <g class="st10">
            <text class="st8" transform="translate(2921.6 1850) rotate(-90)"><tspan x="0" y="0">Jul-23</tspan></text>
          </g>
        </g>
        <g class="st10">
          <g class="st10">
            <text class="st8" transform="translate(2972.1 1875) rotate(-90)"><tspan x="0" y="0">Aug-23</tspan></text>
          </g>
        </g>
        <g class="st10">
          <g class="st10">
            <text class="st8" transform="translate(3022.5 1871) rotate(-90)"><tspan x="0" y="0">Sep-23</tspan></text>
          </g>
        </g>
        <g class="st10">
          <g class="st10">
            <text class="st8" transform="translate(3071.3 1868) rotate(-90)"><tspan x="0" y="0">Oct-23</tspan></text>
          </g>
        </g>
        <g class="st10">
          <g class="st10">
            <text class="st8" transform="translate(3121.8 1878) rotate(-90)"><tspan x="0" y="0">Nov-23</tspan></text>
          </g>
        </g>
        <g class="st10">
          <g class="st10">
            <text class="st8" transform="translate(3170.6 1873) rotate(-90)"><tspan x="0" y="0">Dec-23</tspan></text>
          </g>
        </g>
        <g class="st10">
          <g class="st10">
            <text class="st7" transform="translate(104.8 1156) rotate(-90)"><tspan x="0" y="0" xml:space="preserve">Natural gas  price (EUR/MWh)</tspan></text>
          </g>
        </g>
        <path class="st6" d="M3271.5,826.5h88"/>
        <g class="st10">
          <g class="st10">
            <text class="st11" transform="translate(3368.7 840)"><tspan x="0" y="0">Month-ahead</tspan></text>
          </g>
        </g>
        <path class="st4" d="M3271.5,914.5h88"/>
        <g class="st10">
          <g class="st10">
            <text class="st11" transform="translate(3368.7 928)"><tspan x="0" y="0">Cal 2024</tspan></text>
          </g>
        </g>
        <path class="st2" d="M3271.5,1003.5h88"/>
        <g class="st10">
          <g class="st10">
            <text class="st11" transform="translate(3368.7 1016)"><tspan x="0" y="0">Cal 2025</tspan></text>
          </g>
        </g>
        <path class="st1" d="M3271.5,1091.5h88"/>
        <g class="st10">
          <g class="st10">
            <text class="st11" transform="translate(3368.7 1105)"><tspan x="0" y="0">Cal 2026</tspan></text>
          </g>
        </g>
        <rect class="st3" x="1557.5" y="525.5" width="695" height="1162"/>
        <g class="st10">
          <g class="st10">
            <text class="st13" transform="translate(1392.6 1499) rotate(-90)"><tspan x="0" y="0" xml:space="preserve">Sample period with exogenous  price </tspan></text>
          </g>
        </g>
        <g class="st10">
          <g class="st10">
            <text class="st13" transform="translate(1460.6 1405) rotate(-90)"><tspan x="0" y="0">shocks due to geo</tspan></text>
          </g>
        </g>
        <g class="st10">
          <g class="st10">
            <text class="st13" transform="translate(1460.6 999) rotate(-90)"><tspan x="0" y="0">-</tspan></text>
          </g>
        </g>
        <g class="st10">
          <g class="st10">
            <text class="st13" transform="translate(1459.6 924) rotate(-90)"><tspan x="0" y="0">political event</tspan></text>
          </g>
        </g>
        <g class="st10">
          <g class="st10">
            <text class="st12" transform="translate(2023.5 1079)"><tspan x="0" y="0">124</tspan></text>
          </g>
        </g>
        <g class="st10">
          <g class="st10">
            <text class="st12" transform="translate(1490.7 1595)"><tspan x="0" y="0">18</tspan></text>
          </g>
        </g>
      </g>
    </g>
  </g>
  <g>
    <path d="M228.2-128.7h21.2l33.3,102h-19.2l-15.5-54.3c-3.2-10.8-6.2-22.4-9.2-33.6h-.6c-2.8,11.3-5.8,22.8-9,33.6l-15.7,54.3h-18.5l33.3-102h0ZM214.6-68.5h48v14.2h-48v-14.2Z"/>
    <path d="M289-3.8c11.7-20,17.2-43.3,17.2-66.2s-5.4-46.2-17.2-66.2l11.2-4.9c13,21.2,20.6,43.6,20.6,71.1s-7.6,49.9-20.6,71.1c0,0-11.2-4.9-11.2-4.9Z"/>
  </g>
</svg>