<?xml version="1.0" encoding="UTF-8"?>
<svg id="Layer_1" xmlns="http://www.w3.org/2000/svg" version="1.1" viewBox="0 0 2300 1533">
  <!-- Generator: Adobe Illustrator 29.1.0, SVG Export Plug-In . SVG Version: 2.1.0 Build 142)  -->
  <defs>
    <style>
      .st0 {
        stroke-opacity: 0;
      }

      .st0, .st1, .st2, .st3, .st4, .st5 {
        fill: none;
        stroke-miterlimit: 2.1;
      }

      .st0, .st1, .st2, .st5 {
        stroke-width: 3.1px;
      }

      .st0, .st2 {
        stroke: #fff;
      }

      .st1 {
        stroke: #000;
      }

      .st6 {
        font-size: 42.5px;
      }

      .st6, .st7, .st8 {
        font-family: Helvetica, Helvetica;
        isolation: isolate;
      }

      .st9 {
        fill: #fff;
      }

      .st10 {
        fill: #e1ce82;
        fill-opacity: .9;
      }

      .st7 {
        font-size: 74.5px;
      }

      .st3 {
        stroke: #d9c263;
        stroke-opacity: .9;
        stroke-width: 2.3px;
      }

      .st4 {
        stroke-width: 3.8px;
      }

      .st4, .st5 {
        stroke: gray;
      }

      .st8 {
        font-size: 59.6px;
      }
    </style>
  </defs>
  <rect class="st9" x=".2" y="0" width="2299.5" height="1533"/>
  <rect class="st9" x=".2" y="0" width="2299.5" height="1533"/>
  <rect class="st2" x="1.8" y="1.5" width="2296.4" height="1529.9"/>
  <rect class="st9" x="339.3" y="53.7" width="1906.8" height="1238.8"/>
  <rect class="st0" x="340.8" y="55.2" width="1903.7" height="1235.7"/>
  <line class="st5" x1="470.6" y1="1292.5" x2="470.6" y2="1291"/>
  <line class="st5" x1="470.6" y1="1280.2" x2="470.6" y2="1278.7"/>
  <line class="st5" x1="470.6" y1="1267.9" x2="470.6" y2="1266.4"/>
  <line class="st5" x1="470.6" y1="1255.6" x2="470.6" y2="1254.1"/>
  <line class="st5" x1="470.6" y1="1243.3" x2="470.6" y2="1241.8"/>
  <line class="st5" x1="470.6" y1="1231.1" x2="470.6" y2="1229.5"/>
  <line class="st5" x1="470.6" y1="1218.8" x2="470.6" y2="1217.3"/>
  <line class="st5" x1="470.6" y1="1206.5" x2="470.6" y2="1205"/>
  <line class="st5" x1="470.6" y1="1194.2" x2="470.6" y2="1192.7"/>
  <line class="st5" x1="470.6" y1="1182" x2="470.6" y2="1180.5"/>
  <line class="st5" x1="470.6" y1="1169.7" x2="470.6" y2="1168.2"/>
  <line class="st5" x1="470.6" y1="1157.5" x2="470.6" y2="1155.9"/>
  <line class="st5" x1="470.6" y1="1145.2" x2="470.6" y2="1143.7"/>
  <line class="st5" x1="470.6" y1="1132.9" x2="470.6" y2="1131.4"/>
  <line class="st5" x1="470.6" y1="1120.6" x2="470.6" y2="1119.1"/>
  <line class="st5" x1="470.6" y1="1108.3" x2="470.6" y2="1106.8"/>
  <line class="st5" x1="470.6" y1="1096.1" x2="470.6" y2="1094.5"/>
  <line class="st5" x1="470.6" y1="1083.8" x2="470.6" y2="1082.3"/>
  <line class="st5" x1="470.6" y1="1071.5" x2="470.6" y2="1070"/>
  <line class="st5" x1="470.6" y1="1059.2" x2="470.6" y2="1057.7"/>
  <line class="st5" x1="470.6" y1="1046.9" x2="470.6" y2="1045.4"/>
  <line class="st5" x1="470.6" y1="1034.6" x2="470.6" y2="1033.1"/>
  <line class="st5" x1="470.6" y1="1022.4" x2="470.6" y2="1020.9"/>
  <line class="st5" x1="470.6" y1="1010.1" x2="470.6" y2="1008.6"/>
  <line class="st5" x1="470.6" y1="997.9" x2="470.6" y2="996.3"/>
  <line class="st5" x1="470.6" y1="985.6" x2="470.6" y2="984.1"/>
  <line class="st5" x1="470.6" y1="973.3" x2="470.6" y2="971.8"/>
  <line class="st5" x1="470.6" y1="961" x2="470.6" y2="959.5"/>
  <line class="st5" x1="470.6" y1="948.8" x2="470.6" y2="947.2"/>
  <line class="st5" x1="470.6" y1="936.5" x2="470.6" y2="935"/>
  <line class="st5" x1="470.6" y1="924.2" x2="470.6" y2="922.7"/>
  <line class="st5" x1="470.6" y1="911.9" x2="470.6" y2="910.4"/>
  <line class="st5" x1="470.6" y1="899.6" x2="470.6" y2="898.1"/>
  <line class="st5" x1="470.6" y1="887.3" x2="470.6" y2="885.8"/>
  <line class="st5" x1="470.6" y1="875.1" x2="470.6" y2="873.5"/>
  <line class="st5" x1="470.6" y1="862.8" x2="470.6" y2="861.3"/>
  <line class="st5" x1="470.6" y1="850.5" x2="470.6" y2="849"/>
  <line class="st5" x1="470.6" y1="838.3" x2="470.6" y2="836.7"/>
  <line class="st5" x1="470.6" y1="826" x2="470.6" y2="824.5"/>
  <line class="st5" x1="470.6" y1="813.7" x2="470.6" y2="812.2"/>
  <line class="st5" x1="470.6" y1="801.5" x2="470.6" y2="799.9"/>
  <line class="st5" x1="470.6" y1="789.2" x2="470.6" y2="787.7"/>
  <line class="st5" x1="470.6" y1="776.9" x2="470.6" y2="775.4"/>
  <line class="st5" x1="470.6" y1="764.6" x2="470.6" y2="763.1"/>
  <line class="st5" x1="470.6" y1="752.3" x2="470.6" y2="750.8"/>
  <line class="st5" x1="470.6" y1="740" x2="470.6" y2="738.5"/>
  <line class="st5" x1="470.6" y1="727.8" x2="470.6" y2="726.2"/>
  <line class="st5" x1="470.6" y1="715.5" x2="470.6" y2="714"/>
  <line class="st5" x1="470.6" y1="703.2" x2="470.6" y2="701.7"/>
  <line class="st5" x1="470.6" y1="690.9" x2="470.6" y2="689.4"/>
  <line class="st5" x1="470.6" y1="678.7" x2="470.6" y2="677.1"/>
  <line class="st5" x1="470.6" y1="666.4" x2="470.6" y2="664.9"/>
  <line class="st5" x1="470.6" y1="654.1" x2="470.6" y2="652.6"/>
  <line class="st5" x1="470.6" y1="641.9" x2="470.6" y2="640.3"/>
  <line class="st5" x1="470.6" y1="629.6" x2="470.6" y2="628.1"/>
  <line class="st5" x1="470.6" y1="617.3" x2="470.6" y2="615.8"/>
  <line class="st5" x1="470.6" y1="605" x2="470.6" y2="603.5"/>
  <line class="st5" x1="470.6" y1="592.7" x2="470.6" y2="591.2"/>
  <line class="st5" x1="470.6" y1="580.5" x2="470.6" y2="578.9"/>
  <line class="st5" x1="470.6" y1="568.2" x2="470.6" y2="566.7"/>
  <line class="st5" x1="470.6" y1="555.9" x2="470.6" y2="554.4"/>
  <line class="st5" x1="470.6" y1="543.6" x2="470.6" y2="542.1"/>
  <line class="st5" x1="470.6" y1="531.3" x2="470.6" y2="529.8"/>
  <line class="st5" x1="470.6" y1="519" x2="470.6" y2="517.5"/>
  <line class="st5" x1="470.6" y1="506.8" x2="470.6" y2="505.3"/>
  <line class="st5" x1="470.6" y1="494.5" x2="470.6" y2="493"/>
  <line class="st5" x1="470.6" y1="482.3" x2="470.6" y2="480.7"/>
  <line class="st5" x1="470.6" y1="470" x2="470.6" y2="468.5"/>
  <line class="st5" x1="470.6" y1="457.7" x2="470.6" y2="456.2"/>
  <line class="st5" x1="470.6" y1="445.4" x2="470.6" y2="443.9"/>
  <line class="st5" x1="470.6" y1="433.2" x2="470.6" y2="431.6"/>
  <line class="st5" x1="470.6" y1="420.9" x2="470.6" y2="419.4"/>
  <line class="st5" x1="470.6" y1="408.6" x2="470.6" y2="407.1"/>
  <line class="st5" x1="470.6" y1="396.3" x2="470.6" y2="394.8"/>
  <line class="st5" x1="470.6" y1="384" x2="470.6" y2="382.5"/>
  <line class="st5" x1="470.6" y1="371.7" x2="470.6" y2="370.2"/>
  <line class="st5" x1="470.6" y1="359.5" x2="470.6" y2="357.9"/>
  <line class="st5" x1="470.6" y1="347.2" x2="470.6" y2="345.7"/>
  <line class="st5" x1="470.6" y1="334.9" x2="470.6" y2="333.4"/>
  <line class="st5" x1="470.6" y1="322.7" x2="470.6" y2="321.1"/>
  <line class="st5" x1="470.6" y1="310.4" x2="470.6" y2="308.9"/>
  <line class="st5" x1="470.6" y1="298.1" x2="470.6" y2="296.6"/>
  <line class="st5" x1="470.6" y1="285.9" x2="470.6" y2="284.4"/>
  <line class="st5" x1="470.6" y1="273.6" x2="470.6" y2="272.1"/>
  <line class="st5" x1="470.6" y1="261.3" x2="470.6" y2="259.8"/>
  <line class="st5" x1="470.6" y1="249" x2="470.6" y2="247.5"/>
  <line class="st5" x1="470.6" y1="236.7" x2="470.6" y2="235.2"/>
  <line class="st5" x1="470.6" y1="224.5" x2="470.6" y2="222.9"/>
  <line class="st5" x1="470.6" y1="212.2" x2="470.6" y2="210.7"/>
  <line class="st5" x1="470.6" y1="199.9" x2="470.6" y2="198.4"/>
  <line class="st5" x1="470.6" y1="187.6" x2="470.6" y2="186.1"/>
  <line class="st5" x1="470.6" y1="175.3" x2="470.6" y2="173.8"/>
  <line class="st5" x1="470.6" y1="163.1" x2="470.6" y2="161.5"/>
  <line class="st5" x1="470.6" y1="150.8" x2="470.6" y2="149.3"/>
  <line class="st5" x1="470.6" y1="138.5" x2="470.6" y2="137"/>
  <line class="st5" x1="470.6" y1="126.3" x2="470.6" y2="124.7"/>
  <line class="st5" x1="470.6" y1="114" x2="470.6" y2="112.5"/>
  <line class="st5" x1="470.6" y1="101.7" x2="470.6" y2="100.2"/>
  <line class="st5" x1="470.6" y1="89.4" x2="470.6" y2="87.9"/>
  <line class="st5" x1="470.6" y1="77.2" x2="470.6" y2="75.6"/>
  <line class="st5" x1="470.6" y1="64.9" x2="470.6" y2="63.4"/>
  <line class="st5" x1="901.1" y1="1292.5" x2="901.1" y2="1291"/>
  <line class="st5" x1="901.1" y1="1280.2" x2="901.1" y2="1278.7"/>
  <line class="st5" x1="901.1" y1="1267.9" x2="901.1" y2="1266.4"/>
  <line class="st5" x1="901.1" y1="1255.6" x2="901.1" y2="1254.1"/>
  <line class="st5" x1="901.1" y1="1243.3" x2="901.1" y2="1241.8"/>
  <line class="st5" x1="901.1" y1="1231.1" x2="901.1" y2="1229.5"/>
  <line class="st5" x1="901.1" y1="1218.8" x2="901.1" y2="1217.3"/>
  <line class="st5" x1="901.1" y1="1206.5" x2="901.1" y2="1205"/>
  <line class="st5" x1="901.1" y1="1194.2" x2="901.1" y2="1192.7"/>
  <line class="st5" x1="901.1" y1="1182" x2="901.1" y2="1180.5"/>
  <line class="st5" x1="901.1" y1="1169.7" x2="901.1" y2="1168.2"/>
  <line class="st5" x1="901.1" y1="1157.5" x2="901.1" y2="1155.9"/>
  <line class="st5" x1="901.1" y1="1145.2" x2="901.1" y2="1143.7"/>
  <line class="st5" x1="901.1" y1="1132.9" x2="901.1" y2="1131.4"/>
  <line class="st5" x1="901.1" y1="1120.6" x2="901.1" y2="1119.1"/>
  <line class="st5" x1="901.1" y1="1108.3" x2="901.1" y2="1106.8"/>
  <line class="st5" x1="901.1" y1="1096.1" x2="901.1" y2="1094.5"/>
  <line class="st5" x1="901.1" y1="1083.8" x2="901.1" y2="1082.3"/>
  <line class="st5" x1="901.1" y1="1071.5" x2="901.1" y2="1070"/>
  <line class="st5" x1="901.1" y1="1059.2" x2="901.1" y2="1057.7"/>
  <line class="st5" x1="901.1" y1="1046.9" x2="901.1" y2="1045.4"/>
  <line class="st5" x1="901.1" y1="1034.6" x2="901.1" y2="1033.1"/>
  <line class="st5" x1="901.1" y1="1022.4" x2="901.1" y2="1020.9"/>
  <line class="st5" x1="901.1" y1="1010.1" x2="901.1" y2="1008.6"/>
  <line class="st5" x1="901.1" y1="997.9" x2="901.1" y2="996.3"/>
  <line class="st5" x1="901.1" y1="985.6" x2="901.1" y2="984.1"/>
  <line class="st5" x1="901.1" y1="973.3" x2="901.1" y2="971.8"/>
  <line class="st5" x1="901.1" y1="961" x2="901.1" y2="959.5"/>
  <line class="st5" x1="901.1" y1="948.8" x2="901.1" y2="947.2"/>
  <line class="st5" x1="901.1" y1="936.5" x2="901.1" y2="935"/>
  <line class="st5" x1="901.1" y1="924.2" x2="901.1" y2="922.7"/>
  <line class="st5" x1="901.1" y1="911.9" x2="901.1" y2="910.4"/>
  <line class="st5" x1="901.1" y1="899.6" x2="901.1" y2="898.1"/>
  <line class="st5" x1="901.1" y1="887.3" x2="901.1" y2="885.8"/>
  <line class="st5" x1="901.1" y1="875.1" x2="901.1" y2="873.5"/>
  <line class="st5" x1="901.1" y1="862.8" x2="901.1" y2="861.3"/>
  <line class="st5" x1="901.1" y1="850.5" x2="901.1" y2="849"/>
  <line class="st5" x1="901.1" y1="838.3" x2="901.1" y2="836.7"/>
  <line class="st5" x1="901.1" y1="826" x2="901.1" y2="824.5"/>
  <line class="st5" x1="901.1" y1="813.7" x2="901.1" y2="812.2"/>
  <line class="st5" x1="901.1" y1="801.5" x2="901.1" y2="799.9"/>
  <line class="st5" x1="901.1" y1="789.2" x2="901.1" y2="787.7"/>
  <line class="st5" x1="901.1" y1="776.9" x2="901.1" y2="775.4"/>
  <line class="st5" x1="901.1" y1="764.6" x2="901.1" y2="763.1"/>
  <line class="st5" x1="901.1" y1="752.3" x2="901.1" y2="750.8"/>
  <line class="st5" x1="901.1" y1="740" x2="901.1" y2="738.5"/>
  <line class="st5" x1="901.1" y1="727.8" x2="901.1" y2="726.2"/>
  <line class="st5" x1="901.1" y1="715.5" x2="901.1" y2="714"/>
  <line class="st5" x1="901.1" y1="703.2" x2="901.1" y2="701.7"/>
  <line class="st5" x1="901.1" y1="690.9" x2="901.1" y2="689.4"/>
  <line class="st5" x1="901.1" y1="678.7" x2="901.1" y2="677.1"/>
  <line class="st5" x1="901.1" y1="666.4" x2="901.1" y2="664.9"/>
  <line class="st5" x1="901.1" y1="654.1" x2="901.1" y2="652.6"/>
  <line class="st5" x1="901.1" y1="641.9" x2="901.1" y2="640.3"/>
  <line class="st5" x1="901.1" y1="629.6" x2="901.1" y2="628.1"/>
  <line class="st5" x1="901.1" y1="617.3" x2="901.1" y2="615.8"/>
  <line class="st5" x1="901.1" y1="605" x2="901.1" y2="603.5"/>
  <line class="st5" x1="901.1" y1="592.7" x2="901.1" y2="591.2"/>
  <line class="st5" x1="901.1" y1="580.5" x2="901.1" y2="578.9"/>
  <line class="st5" x1="901.1" y1="568.2" x2="901.1" y2="566.7"/>
  <line class="st5" x1="901.1" y1="555.9" x2="901.1" y2="554.4"/>
  <line class="st5" x1="901.1" y1="543.6" x2="901.1" y2="542.1"/>
  <line class="st5" x1="901.1" y1="531.3" x2="901.1" y2="529.8"/>
  <line class="st5" x1="901.1" y1="519" x2="901.1" y2="517.5"/>
  <line class="st5" x1="901.1" y1="506.8" x2="901.1" y2="505.3"/>
  <line class="st5" x1="901.1" y1="494.5" x2="901.1" y2="493"/>
  <line class="st5" x1="901.1" y1="482.3" x2="901.1" y2="480.7"/>
  <line class="st5" x1="901.1" y1="470" x2="901.1" y2="468.5"/>
  <line class="st5" x1="901.1" y1="457.7" x2="901.1" y2="456.2"/>
  <line class="st5" x1="901.1" y1="445.4" x2="901.1" y2="443.9"/>
  <line class="st5" x1="901.1" y1="433.2" x2="901.1" y2="431.6"/>
  <line class="st5" x1="901.1" y1="420.9" x2="901.1" y2="419.4"/>
  <line class="st5" x1="901.1" y1="408.6" x2="901.1" y2="407.1"/>
  <line class="st5" x1="901.1" y1="396.3" x2="901.1" y2="394.8"/>
  <line class="st5" x1="901.1" y1="384" x2="901.1" y2="382.5"/>
  <line class="st5" x1="901.1" y1="371.7" x2="901.1" y2="370.2"/>
  <line class="st5" x1="901.1" y1="359.5" x2="901.1" y2="357.9"/>
  <line class="st5" x1="901.1" y1="347.2" x2="901.1" y2="345.7"/>
  <line class="st5" x1="901.1" y1="334.9" x2="901.1" y2="333.4"/>
  <line class="st5" x1="901.1" y1="322.7" x2="901.1" y2="321.1"/>
  <line class="st5" x1="901.1" y1="310.4" x2="901.1" y2="308.9"/>
  <line class="st5" x1="901.1" y1="298.1" x2="901.1" y2="296.6"/>
  <line class="st5" x1="901.1" y1="285.9" x2="901.1" y2="284.4"/>
  <line class="st5" x1="901.1" y1="273.6" x2="901.1" y2="272.1"/>
  <line class="st5" x1="901.1" y1="261.3" x2="901.1" y2="259.8"/>
  <line class="st5" x1="901.1" y1="249" x2="901.1" y2="247.5"/>
  <line class="st5" x1="901.1" y1="236.7" x2="901.1" y2="235.2"/>
  <line class="st5" x1="901.1" y1="224.5" x2="901.1" y2="222.9"/>
  <line class="st5" x1="901.1" y1="212.2" x2="901.1" y2="210.7"/>
  <line class="st5" x1="901.1" y1="199.9" x2="901.1" y2="198.4"/>
  <line class="st5" x1="901.1" y1="187.6" x2="901.1" y2="186.1"/>
  <line class="st5" x1="901.1" y1="175.3" x2="901.1" y2="173.8"/>
  <line class="st5" x1="901.1" y1="163.1" x2="901.1" y2="161.5"/>
  <line class="st5" x1="901.1" y1="150.8" x2="901.1" y2="149.3"/>
  <line class="st5" x1="901.1" y1="138.5" x2="901.1" y2="137"/>
  <line class="st5" x1="901.1" y1="126.3" x2="901.1" y2="124.7"/>
  <line class="st5" x1="901.1" y1="114" x2="901.1" y2="112.5"/>
  <line class="st5" x1="901.1" y1="101.7" x2="901.1" y2="100.2"/>
  <line class="st5" x1="901.1" y1="89.4" x2="901.1" y2="87.9"/>
  <line class="st5" x1="901.1" y1="77.2" x2="901.1" y2="75.6"/>
  <line class="st5" x1="901.1" y1="64.9" x2="901.1" y2="63.4"/>
  <line class="st5" x1="1331.5" y1="1292.5" x2="1331.5" y2="1291"/>
  <line class="st5" x1="1331.5" y1="1280.2" x2="1331.5" y2="1278.7"/>
  <line class="st5" x1="1331.5" y1="1267.9" x2="1331.5" y2="1266.4"/>
  <line class="st5" x1="1331.5" y1="1255.6" x2="1331.5" y2="1254.1"/>
  <line class="st5" x1="1331.5" y1="1243.3" x2="1331.5" y2="1241.8"/>
  <line class="st5" x1="1331.5" y1="1231.1" x2="1331.5" y2="1229.5"/>
  <line class="st5" x1="1331.5" y1="1218.8" x2="1331.5" y2="1217.3"/>
  <line class="st5" x1="1331.5" y1="1206.5" x2="1331.5" y2="1205"/>
  <line class="st5" x1="1331.5" y1="1194.2" x2="1331.5" y2="1192.7"/>
  <line class="st5" x1="1331.5" y1="1182" x2="1331.5" y2="1180.5"/>
  <line class="st5" x1="1331.5" y1="1169.7" x2="1331.5" y2="1168.2"/>
  <line class="st5" x1="1331.5" y1="1157.5" x2="1331.5" y2="1155.9"/>
  <line class="st5" x1="1331.5" y1="1145.2" x2="1331.5" y2="1143.7"/>
  <line class="st5" x1="1331.5" y1="1132.9" x2="1331.5" y2="1131.4"/>
  <line class="st5" x1="1331.5" y1="1120.6" x2="1331.5" y2="1119.1"/>
  <line class="st5" x1="1331.5" y1="1108.3" x2="1331.5" y2="1106.8"/>
  <line class="st5" x1="1331.5" y1="1096.1" x2="1331.5" y2="1094.5"/>
  <line class="st5" x1="1331.5" y1="1083.8" x2="1331.5" y2="1082.3"/>
  <line class="st5" x1="1331.5" y1="1071.5" x2="1331.5" y2="1070"/>
  <line class="st5" x1="1331.5" y1="1059.2" x2="1331.5" y2="1057.7"/>
  <line class="st5" x1="1331.5" y1="1046.9" x2="1331.5" y2="1045.4"/>
  <line class="st5" x1="1331.5" y1="1034.6" x2="1331.5" y2="1033.1"/>
  <line class="st5" x1="1331.5" y1="1022.4" x2="1331.5" y2="1020.9"/>
  <line class="st5" x1="1331.5" y1="1010.1" x2="1331.5" y2="1008.6"/>
  <line class="st5" x1="1331.5" y1="997.9" x2="1331.5" y2="996.3"/>
  <line class="st5" x1="1331.5" y1="985.6" x2="1331.5" y2="984.1"/>
  <line class="st5" x1="1331.5" y1="973.3" x2="1331.5" y2="971.8"/>
  <line class="st5" x1="1331.5" y1="961" x2="1331.5" y2="959.5"/>
  <line class="st5" x1="1331.5" y1="948.8" x2="1331.5" y2="947.2"/>
  <line class="st5" x1="1331.5" y1="936.5" x2="1331.5" y2="935"/>
  <line class="st5" x1="1331.5" y1="924.2" x2="1331.5" y2="922.7"/>
  <line class="st5" x1="1331.5" y1="911.9" x2="1331.5" y2="910.4"/>
  <line class="st5" x1="1331.5" y1="899.6" x2="1331.5" y2="898.1"/>
  <line class="st5" x1="1331.5" y1="887.3" x2="1331.5" y2="885.8"/>
  <line class="st5" x1="1331.5" y1="875.1" x2="1331.5" y2="873.5"/>
  <line class="st5" x1="1331.5" y1="862.8" x2="1331.5" y2="861.3"/>
  <line class="st5" x1="1331.5" y1="850.5" x2="1331.5" y2="849"/>
  <line class="st5" x1="1331.5" y1="838.3" x2="1331.5" y2="836.7"/>
  <line class="st5" x1="1331.5" y1="826" x2="1331.5" y2="824.5"/>
  <line class="st5" x1="1331.5" y1="813.7" x2="1331.5" y2="812.2"/>
  <line class="st5" x1="1331.5" y1="801.5" x2="1331.5" y2="799.9"/>
  <line class="st5" x1="1331.5" y1="789.2" x2="1331.5" y2="787.7"/>
  <line class="st5" x1="1331.5" y1="776.9" x2="1331.5" y2="775.4"/>
  <line class="st5" x1="1331.5" y1="764.6" x2="1331.5" y2="763.1"/>
  <line class="st5" x1="1331.5" y1="752.3" x2="1331.5" y2="750.8"/>
  <line class="st5" x1="1331.5" y1="740" x2="1331.5" y2="738.5"/>
  <line class="st5" x1="1331.5" y1="727.8" x2="1331.5" y2="726.2"/>
  <line class="st5" x1="1331.5" y1="715.5" x2="1331.5" y2="714"/>
  <line class="st5" x1="1331.5" y1="703.2" x2="1331.5" y2="701.7"/>
  <line class="st5" x1="1331.5" y1="690.9" x2="1331.5" y2="689.4"/>
  <line class="st5" x1="1331.5" y1="678.7" x2="1331.5" y2="677.1"/>
  <line class="st5" x1="1331.5" y1="666.4" x2="1331.5" y2="664.9"/>
  <line class="st5" x1="1331.5" y1="654.1" x2="1331.5" y2="652.6"/>
  <line class="st5" x1="1331.5" y1="641.9" x2="1331.5" y2="640.3"/>
  <line class="st5" x1="1331.5" y1="629.6" x2="1331.5" y2="628.1"/>
  <line class="st5" x1="1331.5" y1="617.3" x2="1331.5" y2="615.8"/>
  <line class="st5" x1="1331.5" y1="605" x2="1331.5" y2="603.5"/>
  <line class="st5" x1="1331.5" y1="592.7" x2="1331.5" y2="591.2"/>
  <line class="st5" x1="1331.5" y1="580.5" x2="1331.5" y2="578.9"/>
  <line class="st5" x1="1331.5" y1="568.2" x2="1331.5" y2="566.7"/>
  <line class="st5" x1="1331.5" y1="555.9" x2="1331.5" y2="554.4"/>
  <line class="st5" x1="1331.5" y1="543.6" x2="1331.5" y2="542.1"/>
  <line class="st5" x1="1331.5" y1="531.3" x2="1331.5" y2="529.8"/>
  <line class="st5" x1="1331.5" y1="519" x2="1331.5" y2="517.5"/>
  <line class="st5" x1="1331.5" y1="506.8" x2="1331.5" y2="505.3"/>
  <line class="st5" x1="1331.5" y1="494.5" x2="1331.5" y2="493"/>
  <line class="st5" x1="1331.5" y1="482.3" x2="1331.5" y2="480.7"/>
  <line class="st5" x1="1331.5" y1="470" x2="1331.5" y2="468.5"/>
  <line class="st5" x1="1331.5" y1="457.7" x2="1331.5" y2="456.2"/>
  <line class="st5" x1="1331.5" y1="445.4" x2="1331.5" y2="443.9"/>
  <line class="st5" x1="1331.5" y1="433.2" x2="1331.5" y2="431.6"/>
  <line class="st5" x1="1331.5" y1="420.9" x2="1331.5" y2="419.4"/>
  <line class="st5" x1="1331.5" y1="408.6" x2="1331.5" y2="407.1"/>
  <line class="st5" x1="1331.5" y1="396.3" x2="1331.5" y2="394.8"/>
  <line class="st5" x1="1331.5" y1="384" x2="1331.5" y2="382.5"/>
  <line class="st5" x1="1331.5" y1="371.7" x2="1331.5" y2="370.2"/>
  <line class="st5" x1="1331.5" y1="359.5" x2="1331.5" y2="357.9"/>
  <line class="st5" x1="1331.5" y1="347.2" x2="1331.5" y2="345.7"/>
  <line class="st5" x1="1331.5" y1="334.9" x2="1331.5" y2="333.4"/>
  <line class="st5" x1="1331.5" y1="322.7" x2="1331.5" y2="321.1"/>
  <line class="st5" x1="1331.5" y1="310.4" x2="1331.5" y2="308.9"/>
  <line class="st5" x1="1331.5" y1="298.1" x2="1331.5" y2="296.6"/>
  <line class="st5" x1="1331.5" y1="285.9" x2="1331.5" y2="284.4"/>
  <line class="st5" x1="1331.5" y1="273.6" x2="1331.5" y2="272.1"/>
  <line class="st5" x1="1331.5" y1="261.3" x2="1331.5" y2="259.8"/>
  <line class="st5" x1="1331.5" y1="249" x2="1331.5" y2="247.5"/>
  <line class="st5" x1="1331.5" y1="236.7" x2="1331.5" y2="235.2"/>
  <line class="st5" x1="1331.5" y1="224.5" x2="1331.5" y2="222.9"/>
  <line class="st5" x1="1331.5" y1="212.2" x2="1331.5" y2="210.7"/>
  <line class="st5" x1="1331.5" y1="199.9" x2="1331.5" y2="198.4"/>
  <line class="st5" x1="1331.5" y1="187.6" x2="1331.5" y2="186.1"/>
  <line class="st5" x1="1331.5" y1="175.3" x2="1331.5" y2="173.8"/>
  <line class="st5" x1="1331.5" y1="163.1" x2="1331.5" y2="161.5"/>
  <line class="st5" x1="1331.5" y1="150.8" x2="1331.5" y2="149.3"/>
  <line class="st5" x1="1331.5" y1="138.5" x2="1331.5" y2="137"/>
  <line class="st5" x1="1331.5" y1="126.3" x2="1331.5" y2="124.7"/>
  <line class="st5" x1="1331.5" y1="114" x2="1331.5" y2="112.5"/>
  <line class="st5" x1="1331.5" y1="101.7" x2="1331.5" y2="100.2"/>
  <line class="st5" x1="1331.5" y1="89.4" x2="1331.5" y2="87.9"/>
  <line class="st5" x1="1331.5" y1="77.2" x2="1331.5" y2="75.6"/>
  <line class="st5" x1="1331.5" y1="64.9" x2="1331.5" y2="63.4"/>
  <line class="st5" x1="1762" y1="1292.5" x2="1762" y2="1291"/>
  <line class="st5" x1="1762" y1="1280.2" x2="1762" y2="1278.7"/>
  <line class="st5" x1="1762" y1="1267.9" x2="1762" y2="1266.4"/>
  <line class="st5" x1="1762" y1="1255.6" x2="1762" y2="1254.1"/>
  <line class="st5" x1="1762" y1="1243.3" x2="1762" y2="1241.8"/>
  <line class="st5" x1="1762" y1="1231.1" x2="1762" y2="1229.5"/>
  <line class="st5" x1="1762" y1="1218.8" x2="1762" y2="1217.3"/>
  <line class="st5" x1="1762" y1="1206.5" x2="1762" y2="1205"/>
  <line class="st5" x1="1762" y1="1194.2" x2="1762" y2="1192.7"/>
  <line class="st5" x1="1762" y1="1182" x2="1762" y2="1180.5"/>
  <line class="st5" x1="1762" y1="1169.7" x2="1762" y2="1168.2"/>
  <line class="st5" x1="1762" y1="1157.5" x2="1762" y2="1155.9"/>
  <line class="st5" x1="1762" y1="1145.2" x2="1762" y2="1143.7"/>
  <line class="st5" x1="1762" y1="1132.9" x2="1762" y2="1131.4"/>
  <line class="st5" x1="1762" y1="1120.6" x2="1762" y2="1119.1"/>
  <line class="st5" x1="1762" y1="1108.3" x2="1762" y2="1106.8"/>
  <line class="st5" x1="1762" y1="1096.1" x2="1762" y2="1094.5"/>
  <line class="st5" x1="1762" y1="1083.8" x2="1762" y2="1082.3"/>
  <line class="st5" x1="1762" y1="1071.5" x2="1762" y2="1070"/>
  <line class="st5" x1="1762" y1="1059.2" x2="1762" y2="1057.7"/>
  <line class="st5" x1="1762" y1="1046.9" x2="1762" y2="1045.4"/>
  <line class="st5" x1="1762" y1="1034.6" x2="1762" y2="1033.1"/>
  <line class="st5" x1="1762" y1="1022.4" x2="1762" y2="1020.9"/>
  <line class="st5" x1="1762" y1="1010.1" x2="1762" y2="1008.6"/>
  <line class="st5" x1="1762" y1="997.9" x2="1762" y2="996.3"/>
  <line class="st5" x1="1762" y1="985.6" x2="1762" y2="984.1"/>
  <line class="st5" x1="1762" y1="973.3" x2="1762" y2="971.8"/>
  <line class="st5" x1="1762" y1="961" x2="1762" y2="959.5"/>
  <line class="st5" x1="1762" y1="948.8" x2="1762" y2="947.2"/>
  <line class="st5" x1="1762" y1="936.5" x2="1762" y2="935"/>
  <line class="st5" x1="1762" y1="924.2" x2="1762" y2="922.7"/>
  <line class="st5" x1="1762" y1="911.9" x2="1762" y2="910.4"/>
  <line class="st5" x1="1762" y1="899.6" x2="1762" y2="898.1"/>
  <line class="st5" x1="1762" y1="887.3" x2="1762" y2="885.8"/>
  <line class="st5" x1="1762" y1="875.1" x2="1762" y2="873.5"/>
  <line class="st5" x1="1762" y1="862.8" x2="1762" y2="861.3"/>
  <line class="st5" x1="1762" y1="850.5" x2="1762" y2="849"/>
  <line class="st5" x1="1762" y1="838.3" x2="1762" y2="836.7"/>
  <line class="st5" x1="1762" y1="826" x2="1762" y2="824.5"/>
  <line class="st5" x1="1762" y1="813.7" x2="1762" y2="812.2"/>
  <line class="st5" x1="1762" y1="801.5" x2="1762" y2="799.9"/>
  <line class="st5" x1="1762" y1="789.2" x2="1762" y2="787.7"/>
  <line class="st5" x1="1762" y1="776.9" x2="1762" y2="775.4"/>
  <line class="st5" x1="1762" y1="764.6" x2="1762" y2="763.1"/>
  <line class="st5" x1="1762" y1="752.3" x2="1762" y2="750.8"/>
  <line class="st5" x1="1762" y1="740" x2="1762" y2="738.5"/>
  <line class="st5" x1="1762" y1="727.8" x2="1762" y2="726.2"/>
  <line class="st5" x1="1762" y1="715.5" x2="1762" y2="714"/>
  <line class="st5" x1="1762" y1="703.2" x2="1762" y2="701.7"/>
  <line class="st5" x1="1762" y1="690.9" x2="1762" y2="689.4"/>
  <line class="st5" x1="1762" y1="678.7" x2="1762" y2="677.1"/>
  <line class="st5" x1="1762" y1="666.4" x2="1762" y2="664.9"/>
  <line class="st5" x1="1762" y1="654.1" x2="1762" y2="652.6"/>
  <line class="st5" x1="1762" y1="641.9" x2="1762" y2="640.3"/>
  <line class="st5" x1="1762" y1="629.6" x2="1762" y2="628.1"/>
  <line class="st5" x1="1762" y1="617.3" x2="1762" y2="615.8"/>
  <line class="st5" x1="1762" y1="605" x2="1762" y2="603.5"/>
  <line class="st5" x1="1762" y1="592.7" x2="1762" y2="591.2"/>
  <line class="st5" x1="1762" y1="580.5" x2="1762" y2="578.9"/>
  <line class="st5" x1="1762" y1="568.2" x2="1762" y2="566.7"/>
  <line class="st5" x1="1762" y1="555.9" x2="1762" y2="554.4"/>
  <line class="st5" x1="1762" y1="543.6" x2="1762" y2="542.1"/>
  <line class="st5" x1="1762" y1="531.3" x2="1762" y2="529.8"/>
  <line class="st5" x1="1762" y1="519" x2="1762" y2="517.5"/>
  <line class="st5" x1="1762" y1="506.8" x2="1762" y2="505.3"/>
  <line class="st5" x1="1762" y1="494.5" x2="1762" y2="493"/>
  <line class="st5" x1="1762" y1="482.3" x2="1762" y2="480.7"/>
  <line class="st5" x1="1762" y1="470" x2="1762" y2="468.5"/>
  <line class="st5" x1="1762" y1="457.7" x2="1762" y2="456.2"/>
  <line class="st5" x1="1762" y1="445.4" x2="1762" y2="443.9"/>
  <line class="st5" x1="1762" y1="433.2" x2="1762" y2="431.6"/>
  <line class="st5" x1="1762" y1="420.9" x2="1762" y2="419.4"/>
  <line class="st5" x1="1762" y1="408.6" x2="1762" y2="407.1"/>
  <line class="st5" x1="1762" y1="396.3" x2="1762" y2="394.8"/>
  <line class="st5" x1="1762" y1="384" x2="1762" y2="382.5"/>
  <line class="st5" x1="1762" y1="371.7" x2="1762" y2="370.2"/>
  <line class="st5" x1="1762" y1="359.5" x2="1762" y2="357.9"/>
  <line class="st5" x1="1762" y1="347.2" x2="1762" y2="345.7"/>
  <line class="st5" x1="1762" y1="334.9" x2="1762" y2="333.4"/>
  <line class="st5" x1="1762" y1="322.7" x2="1762" y2="321.1"/>
  <line class="st5" x1="1762" y1="310.4" x2="1762" y2="308.9"/>
  <line class="st5" x1="1762" y1="298.1" x2="1762" y2="296.6"/>
  <line class="st5" x1="1762" y1="285.9" x2="1762" y2="284.4"/>
  <line class="st5" x1="1762" y1="273.6" x2="1762" y2="272.1"/>
  <line class="st5" x1="1762" y1="261.3" x2="1762" y2="259.8"/>
  <line class="st5" x1="1762" y1="249" x2="1762" y2="247.5"/>
  <line class="st5" x1="1762" y1="236.7" x2="1762" y2="235.2"/>
  <line class="st5" x1="1762" y1="224.5" x2="1762" y2="222.9"/>
  <line class="st5" x1="1762" y1="212.2" x2="1762" y2="210.7"/>
  <line class="st5" x1="1762" y1="199.9" x2="1762" y2="198.4"/>
  <line class="st5" x1="1762" y1="187.6" x2="1762" y2="186.1"/>
  <line class="st5" x1="1762" y1="175.3" x2="1762" y2="173.8"/>
  <line class="st5" x1="1762" y1="163.1" x2="1762" y2="161.5"/>
  <line class="st5" x1="1762" y1="150.8" x2="1762" y2="149.3"/>
  <line class="st5" x1="1762" y1="138.5" x2="1762" y2="137"/>
  <line class="st5" x1="1762" y1="126.3" x2="1762" y2="124.7"/>
  <line class="st5" x1="1762" y1="114" x2="1762" y2="112.5"/>
  <line class="st5" x1="1762" y1="101.7" x2="1762" y2="100.2"/>
  <line class="st5" x1="1762" y1="89.4" x2="1762" y2="87.9"/>
  <line class="st5" x1="1762" y1="77.2" x2="1762" y2="75.6"/>
  <line class="st5" x1="1762" y1="64.9" x2="1762" y2="63.4"/>
  <line class="st5" x1="2192.4" y1="1292.5" x2="2192.4" y2="1291"/>
  <line class="st5" x1="2192.4" y1="1280.2" x2="2192.4" y2="1278.7"/>
  <line class="st5" x1="2192.4" y1="1267.9" x2="2192.4" y2="1266.4"/>
  <line class="st5" x1="2192.4" y1="1255.6" x2="2192.4" y2="1254.1"/>
  <line class="st5" x1="2192.4" y1="1243.3" x2="2192.4" y2="1241.8"/>
  <line class="st5" x1="2192.4" y1="1231.1" x2="2192.4" y2="1229.5"/>
  <line class="st5" x1="2192.4" y1="1218.8" x2="2192.4" y2="1217.3"/>
  <line class="st5" x1="2192.4" y1="1206.5" x2="2192.4" y2="1205"/>
  <line class="st5" x1="2192.4" y1="1194.2" x2="2192.4" y2="1192.7"/>
  <line class="st5" x1="2192.4" y1="1182" x2="2192.4" y2="1180.5"/>
  <line class="st5" x1="2192.4" y1="1169.7" x2="2192.4" y2="1168.2"/>
  <line class="st5" x1="2192.4" y1="1157.5" x2="2192.4" y2="1155.9"/>
  <line class="st5" x1="2192.4" y1="1145.2" x2="2192.4" y2="1143.7"/>
  <line class="st5" x1="2192.4" y1="1132.9" x2="2192.4" y2="1131.4"/>
  <line class="st5" x1="2192.4" y1="1120.6" x2="2192.4" y2="1119.1"/>
  <line class="st5" x1="2192.4" y1="1108.3" x2="2192.4" y2="1106.8"/>
  <line class="st5" x1="2192.4" y1="1096.1" x2="2192.4" y2="1094.5"/>
  <line class="st5" x1="2192.4" y1="1083.8" x2="2192.4" y2="1082.3"/>
  <line class="st5" x1="2192.4" y1="1071.5" x2="2192.4" y2="1070"/>
  <line class="st5" x1="2192.4" y1="1059.2" x2="2192.4" y2="1057.7"/>
  <line class="st5" x1="2192.4" y1="1046.9" x2="2192.4" y2="1045.4"/>
  <line class="st5" x1="2192.4" y1="1034.6" x2="2192.4" y2="1033.1"/>
  <line class="st5" x1="2192.4" y1="1022.4" x2="2192.4" y2="1020.9"/>
  <line class="st5" x1="2192.4" y1="1010.1" x2="2192.4" y2="1008.6"/>
  <line class="st5" x1="2192.4" y1="997.9" x2="2192.4" y2="996.3"/>
  <line class="st5" x1="2192.4" y1="985.6" x2="2192.4" y2="984.1"/>
  <line class="st5" x1="2192.4" y1="973.3" x2="2192.4" y2="971.8"/>
  <line class="st5" x1="2192.4" y1="961" x2="2192.4" y2="959.5"/>
  <line class="st5" x1="2192.4" y1="948.8" x2="2192.4" y2="947.2"/>
  <line class="st5" x1="2192.4" y1="936.5" x2="2192.4" y2="935"/>
  <line class="st5" x1="2192.4" y1="924.2" x2="2192.4" y2="922.7"/>
  <line class="st5" x1="2192.4" y1="911.9" x2="2192.4" y2="910.4"/>
  <line class="st5" x1="2192.4" y1="899.6" x2="2192.4" y2="898.1"/>
  <line class="st5" x1="2192.4" y1="887.3" x2="2192.4" y2="885.8"/>
  <line class="st5" x1="2192.4" y1="875.1" x2="2192.4" y2="873.5"/>
  <line class="st5" x1="2192.4" y1="862.8" x2="2192.4" y2="861.3"/>
  <line class="st5" x1="2192.4" y1="850.5" x2="2192.4" y2="849"/>
  <line class="st5" x1="2192.4" y1="838.3" x2="2192.4" y2="836.7"/>
  <line class="st5" x1="2192.4" y1="826" x2="2192.4" y2="824.5"/>
  <line class="st5" x1="2192.4" y1="813.7" x2="2192.4" y2="812.2"/>
  <line class="st5" x1="2192.4" y1="801.5" x2="2192.4" y2="799.9"/>
  <line class="st5" x1="2192.4" y1="789.2" x2="2192.4" y2="787.7"/>
  <line class="st5" x1="2192.4" y1="776.9" x2="2192.4" y2="775.4"/>
  <line class="st5" x1="2192.4" y1="764.6" x2="2192.4" y2="763.1"/>
  <line class="st5" x1="2192.4" y1="752.3" x2="2192.4" y2="750.8"/>
  <line class="st5" x1="2192.4" y1="740" x2="2192.4" y2="738.5"/>
  <line class="st5" x1="2192.4" y1="727.8" x2="2192.4" y2="726.2"/>
  <line class="st5" x1="2192.4" y1="715.5" x2="2192.4" y2="714"/>
  <line class="st5" x1="2192.4" y1="703.2" x2="2192.4" y2="701.7"/>
  <line class="st5" x1="2192.4" y1="690.9" x2="2192.4" y2="689.4"/>
  <line class="st5" x1="2192.4" y1="678.7" x2="2192.4" y2="677.1"/>
  <line class="st5" x1="2192.4" y1="666.4" x2="2192.4" y2="664.9"/>
  <line class="st5" x1="2192.4" y1="654.1" x2="2192.4" y2="652.6"/>
  <line class="st5" x1="2192.4" y1="641.9" x2="2192.4" y2="640.3"/>
  <line class="st5" x1="2192.4" y1="629.6" x2="2192.4" y2="628.1"/>
  <line class="st5" x1="2192.4" y1="617.3" x2="2192.4" y2="615.8"/>
  <line class="st5" x1="2192.4" y1="605" x2="2192.4" y2="603.5"/>
  <line class="st5" x1="2192.4" y1="592.7" x2="2192.4" y2="591.2"/>
  <line class="st5" x1="2192.4" y1="580.5" x2="2192.4" y2="578.9"/>
  <line class="st5" x1="2192.4" y1="568.2" x2="2192.4" y2="566.7"/>
  <line class="st5" x1="2192.4" y1="555.9" x2="2192.4" y2="554.4"/>
  <line class="st5" x1="2192.4" y1="543.6" x2="2192.4" y2="542.1"/>
  <line class="st5" x1="2192.4" y1="531.3" x2="2192.4" y2="529.8"/>
  <line class="st5" x1="2192.4" y1="519" x2="2192.4" y2="517.5"/>
  <line class="st5" x1="2192.4" y1="506.8" x2="2192.4" y2="505.3"/>
  <line class="st5" x1="2192.4" y1="494.5" x2="2192.4" y2="493"/>
  <line class="st5" x1="2192.4" y1="482.3" x2="2192.4" y2="480.7"/>
  <line class="st5" x1="2192.4" y1="470" x2="2192.4" y2="468.5"/>
  <line class="st5" x1="2192.4" y1="457.7" x2="2192.4" y2="456.2"/>
  <line class="st5" x1="2192.4" y1="445.4" x2="2192.4" y2="443.9"/>
  <line class="st5" x1="2192.4" y1="433.2" x2="2192.4" y2="431.6"/>
  <line class="st5" x1="2192.4" y1="420.9" x2="2192.4" y2="419.4"/>
  <line class="st5" x1="2192.4" y1="408.6" x2="2192.4" y2="407.1"/>
  <line class="st5" x1="2192.4" y1="396.3" x2="2192.4" y2="394.8"/>
  <line class="st5" x1="2192.4" y1="384" x2="2192.4" y2="382.5"/>
  <line class="st5" x1="2192.4" y1="371.7" x2="2192.4" y2="370.2"/>
  <line class="st5" x1="2192.4" y1="359.5" x2="2192.4" y2="357.9"/>
  <line class="st5" x1="2192.4" y1="347.2" x2="2192.4" y2="345.7"/>
  <line class="st5" x1="2192.4" y1="334.9" x2="2192.4" y2="333.4"/>
  <line class="st5" x1="2192.4" y1="322.7" x2="2192.4" y2="321.1"/>
  <line class="st5" x1="2192.4" y1="310.4" x2="2192.4" y2="308.9"/>
  <line class="st5" x1="2192.4" y1="298.1" x2="2192.4" y2="296.6"/>
  <line class="st5" x1="2192.4" y1="285.9" x2="2192.4" y2="284.4"/>
  <line class="st5" x1="2192.4" y1="273.6" x2="2192.4" y2="272.1"/>
  <line class="st5" x1="2192.4" y1="261.3" x2="2192.4" y2="259.8"/>
  <line class="st5" x1="2192.4" y1="249" x2="2192.4" y2="247.5"/>
  <line class="st5" x1="2192.4" y1="236.7" x2="2192.4" y2="235.2"/>
  <line class="st5" x1="2192.4" y1="224.5" x2="2192.4" y2="222.9"/>
  <line class="st5" x1="2192.4" y1="212.2" x2="2192.4" y2="210.7"/>
  <line class="st5" x1="2192.4" y1="199.9" x2="2192.4" y2="198.4"/>
  <line class="st5" x1="2192.4" y1="187.6" x2="2192.4" y2="186.1"/>
  <line class="st5" x1="2192.4" y1="175.3" x2="2192.4" y2="173.8"/>
  <line class="st5" x1="2192.4" y1="163.1" x2="2192.4" y2="161.5"/>
  <line class="st5" x1="2192.4" y1="150.8" x2="2192.4" y2="149.3"/>
  <line class="st5" x1="2192.4" y1="138.5" x2="2192.4" y2="137"/>
  <line class="st5" x1="2192.4" y1="126.3" x2="2192.4" y2="124.7"/>
  <line class="st5" x1="2192.4" y1="114" x2="2192.4" y2="112.5"/>
  <line class="st5" x1="2192.4" y1="101.7" x2="2192.4" y2="100.2"/>
  <line class="st5" x1="2192.4" y1="89.4" x2="2192.4" y2="87.9"/>
  <line class="st5" x1="2192.4" y1="77.2" x2="2192.4" y2="75.6"/>
  <line class="st5" x1="2192.4" y1="64.9" x2="2192.4" y2="63.4"/>
  <rect class="st10" x="393" y="1175.5" width="77.7" height="52.7"/>
  <rect class="st3" x="394.1" y="1176.6" width="75.4" height="50.4"/>
  <rect class="st10" x="470.6" y="1087.3" width="464.7" height="52.8"/>
  <rect class="st3" x="471.8" y="1088.5" width="462.4" height="50.5"/>
  <rect class="st10" x="470.6" y="999.2" width="681.6" height="52.7"/>
  <rect class="st3" x="471.8" y="1000.4" width="679.3" height="50.4"/>
  <rect class="st10" x="470.6" y="911.1" width="718.2" height="52.7"/>
  <rect class="st3" x="471.8" y="912.3" width="715.9" height="50.4"/>
  <rect class="st10" x="470.6" y="822.9" width="1102.2" height="52.7"/>
  <rect class="st3" x="471.8" y="824.1" width="1099.9" height="50.4"/>
  <rect class="st10" x="470.6" y="734.8" width="1363.8" height="52.7"/>
  <rect class="st3" x="471.8" y="736" width="1361.5" height="50.4"/>
  <rect class="st10" x="470.6" y="646.7" width="1384.7" height="52.8"/>
  <rect class="st3" x="471.8" y="647.8" width="1382.4" height="50.5"/>
  <rect class="st10" x="470.6" y="558.6" width="1395.3" height="52.7"/>
  <rect class="st3" x="471.8" y="559.7" width="1393" height="50.4"/>
  <rect class="st10" x="470.6" y="470.4" width="1498.9" height="52.8"/>
  <rect class="st3" x="471.8" y="471.5" width="1496.6" height="50.5"/>
  <rect class="st10" x="470.6" y="382.3" width="1501.2" height="52.7"/>
  <rect class="st3" x="471.8" y="383.4" width="1498.9" height="50.4"/>
  <rect class="st10" x="470.6" y="294.1" width="1523.8" height="52.8"/>
  <rect class="st3" x="471.8" y="295.3" width="1521.5" height="50.5"/>
  <rect class="st10" x="470.6" y="206" width="1636.1" height="52.7"/>
  <rect class="st3" x="471.8" y="207.2" width="1633.8" height="50.4"/>
  <rect class="st10" x="470.6" y="117.8" width="1690.6" height="52.8"/>
  <rect class="st3" x="471.8" y="119" width="1688.3" height="50.5"/>
  <line class="st5" x1="470.6" y1="1292.5" x2="470.6" y2="1313.8"/>
  <text class="st8" transform="translate(454.1 1366.1)"><tspan x="0" y="0">0</tspan></text>
  <line class="st5" x1="901.1" y1="1292.5" x2="901.1" y2="1313.8"/>
  <text class="st8" transform="translate(876.2 1366.1)"><tspan x="0" y="0">.5</tspan></text>
  <line class="st5" x1="1331.5" y1="1292.5" x2="1331.5" y2="1313.8"/>
  <text class="st8" transform="translate(1315 1366.1)"><tspan x="0" y="0">1</tspan></text>
  <line class="st5" x1="1762" y1="1292.5" x2="1762" y2="1313.8"/>
  <text class="st8" transform="translate(1720.5 1366.1)"><tspan x="0" y="0">1.5</tspan></text>
  <line class="st5" x1="2192.4" y1="1292.5" x2="2192.4" y2="1313.8"/>
  <text class="st8" transform="translate(2175.8 1366.1)"><tspan x="0" y="0">2</tspan></text>
  <line class="st1" x1="470.6" y1="1292.5" x2="2192.4" y2="1292.5"/>
  <text class="st6" transform="translate(975.3 1437.5)"><tspan x="0" y="0">Average Pass-through Coefficient</tspan></text>
  <text class="st6" transform="translate(147.8 1216.8)"><tspan x="0" y="0">Romania</tspan></text>
  <text class="st6" transform="translate(161.9 1128.7)"><tspan x="0" y="0">Bulgaria</tspan></text>
  <text class="st6" transform="translate(185.5 1040.5)"><tspan x="0" y="0">Poland</tspan></text>
  <text class="st6" transform="translate(178.5 952.4)"><tspan x="0" y="0">Finland</tspan></text>
  <text class="st6" transform="translate(178.5 864.2)"><tspan x="0" y="0">Greece</tspan></text>
  <text class="st6" transform="translate(145.4 776.1)"><tspan x="0" y="0">Denmark</tspan></text>
  <text class="st6" transform="translate(143.1 688)"><tspan x="0" y="0">Germany</tspan></text>
  <text class="st6" transform="translate(164.3 599.8)"><tspan x="0" y="0">Czechia</tspan></text>
  <text class="st6" transform="translate(157.2 511.7)"><tspan x="0" y="0">Hungary</tspan></text>
  <text class="st6" transform="translate(180.9 423.6)"><tspan x="0" y="0">Croatia</tspan></text>
  <text class="st6" transform="translate(209.2 335.4)"><tspan x="0" y="0">Spain</tspan></text>
  <text class="st6" transform="translate(88.6 247.3)"><tspan x="0" y="0">Netherlands</tspan></text>
  <text class="st6" transform="translate(240 159.1)"><tspan x="0" y="0">Italy</tspan></text>
  <line class="st4" x1="339.3" y1="1201.9" x2="339.3" y2="144.2"/>
  <text class="st7" transform="translate(339.3 -29.8)"><tspan x="0" y="0">F) Average Pass-through</tspan></text>
</svg>