<?xml version="1.0" encoding="UTF-8"?>
<svg id="Layer_1" xmlns="http://www.w3.org/2000/svg" version="1.1" viewBox="0 0 864 1052">
  <!-- Generator: Adobe Illustrator 29.1.0, SVG Export Plug-In . SVG Version: 2.1.0 Build 142)  -->
  <defs>
    <style>
      .st0 {
        fill: #da4294;
      }

      .st1 {
        fill: #fbb4bb;
      }

      .st2, .st3 {
        font-size: 33px;
      }

      .st2, .st4 {
        font-family: MicrosoftSansSerif, 'Microsoft Sans Serif';
      }

      .st5 {
        fill: #fdd0ca;
      }

      .st6 {
        fill: #af1385;
      }

      .st7 {
        fill: #ddd;
      }

      .st8 {
        font-size: 18px;
      }

      .st9, .st10 {
        fill: #fff;
      }

      .st11 {
        fill: #f871a4;
      }

      .st12 {
        fill: #7a0177;
      }

      .st10 {
        font-family: GillSans-Bold, 'Gill Sans';
        font-size: 21px;
        font-weight: 700;
      }
    </style>
  </defs>
  <path class="st9" d="M.8,11h864v543.1c-.7-.2-1.3-.5-2-.7-2.5.8-4.3,2.4-7,2.7-2.6.4-5.2,1-7.8.8,1.5-4.6-4-6.9-5.1-10.9,1.5-1.7,3.8-1.9,2.5-4.7-1.9-1.2-4.3-1.6-6.2-2.7-1-1.7-1.7-3.6-2.9-5.1-1.6-1.2-3.5-2.3-5.3-3.1-1.5.8-2.7,2-4.2,2.8-1.9.1-3.8,0-5.7,0-1.2,1.4-2.2,3.1-3.5,4.5-3.6.7-6.6-.4-9.5,2.5.6,3.2.7,5.7-2.4,7.6-1.7.2-4,.6-5.6,0-4.5-4.9-6.8-10.7-9.7-16.6-1-2.8-4.8-3-5.9-5.3,0-1.6.2-3.2.7-4.7,1.3-1.1,3.2-1.5,4.9-1.8,1.3.2,2.6,1,3.8,1.3,2.1-.3,4.7-1,5.4-3.2,1.4-3.1,2.8-6.3,3.9-9.5-1.1-1.4-3.4-1.5-4.8-2.6-.9-1.8-.5-3.7-3-4-3.7-1.1-6.8.4-10.2.3-.4-2.4.4-4.6-2-6.1-2.4-1.2-5.5-1.2-8.1-2-2.2-2.8-3.6-6.3-5.8-9.2-2-1.5-4.9-1.8-7.2-2.8-.7-2.6,1.3-5.8.5-8.4-1.4-1.9-3.4-3.3-4.6-5.3-.7-2.6,0-6.2-1.6-8.4-3.8-1.3-7.7-2.7-11.6-3.8-5.1.4-6.8,3.8-10.1,7h-.6c-1-1.8-1.7-3.6-2.8-5.3-1.4-1.1-3.7-1.1-5.4-1.2-1.3.3-2.1,2.1-3.1,3-1.5-.4-2.7-1.6-4-2.4-1.6.2-3.1,1.2-4.7,1.7-1-.5-2-1.1-2.8-1.9,0-4.1-1.3-7.2-3.6-10.5-2.7-2.9-6.8-4.6-9.3-7.6-.5-3.8,0-7.7-.7-11.4-2.4-2-5.9-2.8-8.5-4.5.5-3.9,1.4-7.7,1.6-11.6-2.2-3.9-4.6-8-7.4-11.5-3.6-1-3.4-4.1-5.4-6.7-1.1-1.1-2.5-2.1-3.7-3.2,0-1.5.3-3,.7-4.5,2.3-1.5,5.2-2.1,7.6-3.5,1.5-2.2.5-6,1.3-8.6.6-1,1.3-2.1,1.9-3.1-5.9-.2-11.9,1.5-17.9,1.8-1.7-.4-3.3-1.4-5.1-.9-7.8,1.7-16.7,2.9-23.2,7.9-2,1.5-4.1,1.2-6.4,1.6-1,1.6-1.6,3.6-2.8,5.1-2.3,1.7-5.4,2.6-7.4,4.6-.2,2.5.3,5.3.9,7.8.6,2,2.9,2.7,3.2,5,.6,3.9,1.8,7.3,4.9,9.9,1.7.9,3.7,1.3,5.5,1.6,1.6-1.7,2-5.8,5.1-4.3.7,3.1,1.4,6.5.8,9.6-.3,1.9-.6,4-.2,5.9,1.2,5.1,3.2,10.1,4.3,15.2-1.7,3.5-4.3,8-8.1,9.5-2.5-.5-5.1-1.5-7.4-2.7-1.5-1.9-2.2-4.4-3.7-6.3-2.3-1.7-5.2-2.8-7.4-4.6-.9-1.1-1.5-2.5-2.3-3.7-2,.5-3.8,2.1-5.6,3.1-2.1,1.5-4.7,2.7-6.6,4.5-1,2.1-1.7,4.3-2.4,6.5-.8,2.4.3,5.2.4,7.7-.5,2.7-4.2,5.1-3.8,8,0,4.4.8,8.7,1.1,13-.1,3.5,2.6,5.6,2.8,9,.8,6.5,3.7,11.9,6.5,17.6,3.4,3.9,7.3,3.2,11.6,5.3,3,1.2,6.4-1.6,9.5-1.5,2.5,2,5.6,3.3,5.9,6.8-2.6,4.1-.8,8.2.9,12.2-2.1-.1-4.2.4-6.3.7-9.3,1.3-18.6,2.8-28,3.8-4.5.6-9.1.7-13.5,1.5-1.6,1.4-3,3-4.6,4.5-3.6-.2-7.3-.5-10.9-.7-1.2,0-2.7-.8-3.4-1.8-1.2-2.8-2.2-5.7-3.6-8.5-.4-.7-1.1-1.2-1.9-1.5-5,1.3-10,2.9-15,4.4-1.9.9-3.5,2.6-5.3,3.8-1.9,1.7-4.9,1.7-6.9,3-1.7,2.7-3,5.7-4.8,8.2-2.7.7-5.3.9-7.8,2.2-7.2,3.4-14.6,5.8-21.1,10.4-1,0-2.1,0-3.1,0-1.1-1.5-2.9-2.4-4.4-3.4l-.3,2.4c-1.8,0-2.9-3.8-4.2-5.1-1.1.4-2.1.9-3.1,1.3-2-1.1-4-2.4-6-3.6-1-1.2-1.4-3-2.1-4.3-1.2-.2-2.1,1.5-3,2.1-2-.1-3.9-.4-5.7-.4,1.9-1,4.1-1.3,5.9-2.3-1.9,0-3.9-.2-5.8-.2-1.9,2.8-3.9,5.6-5.9,8.4-2.3.5-4.6.8-6.9,1.2-1.7,1.5-2,4.7-3.5,6.5-1.7-.7-3.1-2-4.9-2.6-1.4.5-2.7,1.1-4.1,1.6-1-.3-1.9-1-2.7-2.1,1.6-1.4,3.4-2.6,5-4,0-1.5.1-3,0-4.5-1.8,0-3.7,1.2-5.4.8-2.4-1.1-4.8-2-7.2-3.1-.9.6-1.8,1.2-2.7,1.8-1-3.3-1.8-7.8-3.2-10.8-2.7-.2-5.5-1-8.2-.9,1.2-1.8,3.6-3.3,4.3-5.2-.8-1.6-2.8-3.1-2.9-4.9.8-.8,1.8-1.6,2.6-2.5-.4-1.6-1.1-3.1-1.6-4.6,1.2-3,4.2-5.3,5.7-8.2-.2-1.2-.7-2.5-.6-3.7,1.5-.8,3.3-1.4,4.7-2.3.5-2.5-1.4-8.1,2-8.8.8.9,1.4,2,2.2,3,2.3-1,4.5-4.1,5.9-6.1-.4-1.8-1-4.1-2.3-5.5-2-.3-4.3-.2-6.2-.8-.5-3.2-1.3-6.4-1.4-9.6,1-3.1,2.7-6,3.7-9.1-.2-4.2-.9-8.5-1.1-12.7-2.5.2-5.1,1.9-7.4,3-3.2,3.5-5.3,8.1-8.5,11.6-3.9,1.5-8.6,1-12.6,2.3-1.8,2.8-3.7,5.7-5,8.7.8,1.5,2.1,3.1,3.6,4,.3-1.5.4-5.4,2.1-5.9.2,1.3.3,2.5.4,3.8.9-.3,1.9-.5,2.8-.8,0,2.2-1,4.5-1.6,6.6-3.2.4-5.7-2.8-9.3-1.4-.4,3.9-.4,7.9-.4,11.8.6,2.2,3.1,3.7,3.9,5.7-3,3-3.6,5.9-4.3,9.9,3.7-.3,5.6,1.6,8,4,1.4,5.1,1.1,10,.9,15.2-.6,4.9,2.8,6.9,5.4,10.4-1.3,1.6-4.4,2.2-6.1,3.6.1,1.1.3,2.1.4,3.2,1.2-.3,2.4-.6,3.6-.7l-1,2.8c.3,1.3,2.4,1.8,3.2,2.9-1.3.6-2.2,1.2-2.8,2,.4,1.1,2.9,2.9,2.3,3.9-2.2.2-4.5.4-6.8.6-.9,4.8-3.6,8.5-6.3,12.5-1.3-2.9-2.7-5.9-4-8.8-4,.5-7.9.9-11.9,1.3-1.4,2.5-2.3,5.2-3.7,7.7.3.8.6,1.5,1.2,2.1-2.3-.8-3.8-2.9-5.9-4.2-3.3-.2-6.7.6-9.9.9-3.2.1-6.4,1.5-9.2,2.8-1.5,1.8-2.9,3.8-4.2,5.7,0,2.2.4,4.3.6,6.5,1.2.2,2.4.4,3.6.6,0,1.7-1,3.7-.4,5.3,1,.6,2.1,1.2,3.2,1.8.1,1.4.2,2.8.2,4.2-.3-1.2-.1-2.5-.6-3.7-2.8-2-4,.4-6.4,1.6-1.4,1.1-3.6,1.9-4.5,3.4.8,1.1,2,1.8,2.8,2.8-1.6-.5-3.3-1.1-4.8-2-.4-2.2,0-4.8.4-7,1-1.3,3.6-1.4,4.3-2.8-.8-2-2.6-3.8-3-5.9.7-1.3,2.6-1.7,3-3.1-2.1,0-4,2.2-5.9,2.9-1-.6-2-.9-3-1-2.1,5.3-2.3,10.9-5.2,16-2.3,5.5-6.3,9.4-9.6,14.4,0,1.2,1.3,2.5,1.8,3.7-.7,1-1.5,1.9-2,3,1,1,2.4,1.6,3.6,2.5-.7.6-1.2,1.5-2.2,1.2-1.5-1.5-2.8-3.3-4.4-4.6-2,0-4,.7-5.9,1.2.6,1.9,3.5,3.5,5.1,4.8,1-.1,1.9-.4,2.9-.8.9.4,2.6.7,2.9,1.8-3.5,1-6.2-.2-9.4-1.5-1.4-.7-2.4,0-3.8.4-6,.9-10.4,4.5-15.8,6.9-5.9.7-11.4,1.4-16.6,4.5-1.4,5-1.7,10.3-2.7,15.4-.1,3.8-4.5,6.4-7.1,8.7-6.1,1.6-12,1.7-17.8,5.3-.8,1.6-2.9,4.2-2.4,6,.9.7,3.3,1,3.6,2.1-3.5.9-7,2.1-10.5,2.8-4.8-3-10.7-4.1-16.2-4.9-1.7-2.7-2.1-6.4-3.4-9.4-1.5-.1-3,.6-4.4.3-1.7-.6-3.3-1.5-5-2.2-.2,2.6,0,5.3.3,7.9.4,2.4,2.2,4.6,3,6.9,0,4.2-.8,8.5-.5,12.7.5,1,1.1,2,1.7,3-2.2.1-4.5.2-6.6-.2-.5-.7-1-1.5-1.5-2.2-1.9.3-3.7,1-5.6,1.4-1.1-.5-1.9-1.6-3-1.8-1.9.7-3.8,2.1-5.8,2.5-2.4-3.2-4.2-7-6.7-10.2-2.4-.7-5.1-.5-7.6-.5-1.4.8-1.8,3-3.2,3.7-2.7-.6-5.2-2.5-7.9-2-4.1.6-8.9-.4-12.2,2.2-2,1-1.8,3.8-1.5,5.7,3.7-.1,6.4-1.7,8.6,2.4-2,0-3.9,0-5.9.1.4,1.9,2.5,3.1,2.9,5-1.9.3-3.8.2-5.8.3,1.1,1.3,2.5,2.4,3.5,3.8.2,1.2.4,2.5.6,3.8,2.1.8,5.1-.4,7.4-.4,1,.9,1.6,2.3,2.6,3.2,1.7.7,3.6,1.1,5.3,1.8,2.7,1.9,4.7,4.8,7.4,6.6,2,.2,4.2-.7,6.1-.4,2,1.8,3.7,4,5.1,6.3-.7.5-1.3,1-1.9,1.6,2.5,3.6,6.3,6.8,8.4,10.5-.8,2-2.3,3.9-2.8,6,.6,1.5,1.8,2.9,2.8,4.3,1.2,1.4,1.2,3.4,1.8,5.2,2.9,3,6.9,5.1,9.7,8.2,1.1,2,1.9,4.3,2.5,6.5-.7,3.1-3.3,5.8-4.6,8.8,3,4.1,7.8,5.1,7.5,11.1-2-1.7-2.9-4.2-4.8-6.1-1.5.2-1.7,2-2.1,3.1-1.5,6.9-3.3,13.8-4.7,20.7.8-.6,1.6-1.5,2.6-1.6.3.8.5,1.7.7,2.5-1.3,1-4.1,1.7-4.2,3.5-1.1,7.4-4.3,14.6-6.5,21.8-1,3.8-4.4,8.4-8.8,8.2-3,.1-5.4,1.3-8.3.3-4.1-.7-6.3-3.4-9.9-5.2-2.6-.2-5.2,1.1-7.9,1.1-3.6-1.3-6.6-2.1-8.4-5.7-5.5,0-11.1.5-16.6.4-4.7-1.4-9.3-3.4-13.9-5.1-3-1-5-3.4-8-4.1-3.9-1.1-7.8-2.1-11.7-3.2-3.5-1.1-6.8.2-10.3-.8-4.5-1.2-8.7-1.8-12.8-4.1-1.9-1.3-3-3.7-4.9-5-2.1-1-4.2-1.8-6.5-2.5-3,1-6,2.5-8.9,4-.1,1.2.3,2.4.5,3.6-6.9,1.4-14.1,1.6-21,2.8-1.2,1.7-2.1,3.5-2.8,5.4.5,3.7,2.9,4.6,6.2,5.3.3,1.7-2.9,3-3,4.9,1.5.5,3.2.3,4.7.4-.5,2-1.9,3.6-2.7,5.5.4,1.6,2.2,3.1,2.5,4.6-2.8,2.5-5.8,3-6.1,7.5-.4,1.7,1.1,1.5,1.3,2.8-.8,1.4-1.8,2.7-2.5,4.2-.2,5.6.9,11.3.6,16.9-.7,3.3-1.8,6.7-3,9.9-2,4.5-4.8,8.7-6.9,13.2-.8,1.6-.2,3.3-1.1,4.8-2.2,3.8-4.3,7.7-6.6,11.4-1.9,2.9-6.7,3.8-7.9,7.1-2,5.1-4.4,10.1-6.1,15.3,2.2.7,4.4,1.1,6.6,1.6-2.8,1.6-2.1,4.6-2.4,7.5,1.9.3,3.5,0,5.5,0,1.9,1.6,3.3,4.4,2.6,6.9-.3,3.1-2.5,4.6-3.5,7.3,1,3.5-.3,6.4-.7,10.1-.3,5.1-5,9.4-7,14-.1.6.2,1.2.9,1.6,3.9-.5,7.1-1.6,10.9,0,4.9,1.1,8.8,3.6,13.1,5.9,3.6-.6,7-2.5,10.7-3,3.8,1,7.3.4,10.1,3.4,3.5,3.5,8.5,6.2,9.7,11.1,1,2-1.3,4.6-.4,6.5,1.6,4,3.3,8,5.1,12,1.3,1.1,3,1.3,4.2,2.7,2.8,2.5,3.5,5.9,8.1,4.2,2.9-2.2,5-5.7,7.7-8.3,2.1-.9,4.4-1.3,6.7-1.6,1.5.2,3,.9,4.5.8,2.6-1.3,4.9-3.2,7.5-4.5,1.5-.3,3.2.2,4.7.4,8.8,1.3,17.5,2.6,26.3,3.8,2.9.3,5.2,1.8,7.9,2.6.9-.7,1.6-1.7,2.4-2.5,1.4-.5,3.2-.3,4.6-.2,1.8.9,3.2,2.5,5,3.4,3.8-2.1,6.7-5.3,7.9-9.5,2.4-6.3,8.9-7.8,14.5-10.5,4.2.2,7.3,2.2,11.5.4.1-1.4-1.7-2.4-1.8-3.7,1.4-2.2,3.2-4.1,4.7-6.3,1.7-2.8,2.7-5.9,4.3-8.8,2.5-3.1,5.6-3.9,9.3-4.7,2.7-1.3,5.8-3.2,7.8-5.4-1.1-1.8-3.5-2.7-4.8-4.4-1.2-1.8-2.4-3.7-3.3-5.7-.5-3.9-.8-7.9-1.1-11.9,1.7-3.5,4.8-6.7,7.1-10,2.3-3.4,5.2-6,8.2-8.7,2.7-2.5,4.2-5.8,6.6-8.5,2.2-1.2,4.6-1.9,6.9-3.1-.7-1.3-2-2.2-2.5-3.5,2-2,4.1-4.1,6.6-5.5,6.6-1.9,13.3-3.2,20.1-3.9,3.7,0,5.4-3.8,8.5-5.3,4.1-1.9,8.5-3.4,12.6-5.4,2.5-1.8,4.7-4.1,6.8-6.3.8-1.8-1.5-4-.9-5.8,1.1-1.5,2.5-2.8,3.7-4.3-.1-1.2-1.8-2.3-2.5-3.1-1.2-2.1-2.4-4-2.1-6.7.2-4,0-9,2.7-12.3,4.9-4.5,11.3-7.6,17.3-10.5,1.8.6,3.6,1.7,5.4,2.3,1.8.3,3.7.3,5.5.7,1,.7,1.7,2,2.9,2.2,4.1.7,8.5.3,12.6,1.2,1,1,1.4,2.7,2.1,4,1.6.4,3.4.5,5,1,1.8,1,3.2,2.8,4.9,4.1,5.4-1,11-2,16.2-3.7,0-.9-.2-1.7-.2-2.6,3-2,5.6-3.3,7.4-6.7,3.4-2.5,7.4-4.3,11-6.7,3-.5,5.9-.9,8.9-1.5,5.4-2.9,6.7-8,10.5-12.5,1.9-1.2,4-2.5,5.9-3.5,3,.8,6.1,1.4,9.1,2.3,3.8,2.3,7.2,5,11,7.4,2.2.8,4.6,1.1,6.8,1.9,1.1,1.9,2.4,3.8,3.3,5.9.5,2.8.8,5.7,1.4,8.5,1.2,3,2.9,5.8,4.2,8.7,1.2,1.9-1.2,5.1,0,6.7,1.6.3,3.5.2,5.1,1-.2.9-.4,1.8-.6,2.8,1.8.9,3.7,1.5,5.4,2.6,1.6,2.5,3,5,4.6,7.5,3,1.4,6.2,2.5,9.3,3.8,1.4,2,2.4,4.2,3.7,6.3,2.1,1.6,4.9,2.4,7,3.9,1,1.6,1.4,3.9,2.9,5.1,2.5,2.2,5,4.5,7.6,6.5,1.8.5,3.6.9,5.3,1.4,1.6,1.1,2.3,3.4,3.9,4.4,2-.5,3.9-1.6,5.9-2.1,2.7.3,5.5.4,8.1.9,2.7,3.3,5,7.1,7.5,10.6,1.6.7,3.8-.2,5.5.1,1.3.9,2.6,1.7,3.8,2.6-.5,1.3-1.3,2.5-1.9,3.8,2.6-.2,5.2-1.9,7.8-2.7,2,2.2,4.5,5,5.9,7.6-.5,1.3-1,2.6-1.4,3.9,3.4,2.3,7.3,4,10.9,6.1,1.4-.2,2.7-1.5,4-2.2,1.8.7,3,3.4,4.3,4.8,1.1,2.7,1.7,5.6,2.7,8.3.9,1.4,2.5,2.4,3.2,4,.9,3,1.7,6.1,2.6,9.1,1,1.7,2.4,3.2,3.4,5-.1,1.3-.3,2.7-.5,4-2.2,1.3-4.8,1.8-6.9,3.2.2,1.7,1.1,3.3,1.5,4.9-.6,1.8-1.4,3.6-2,5.4-.9.6-1.8,1.1-2.8,1.5-.4,2.2.6,4.8.6,7.1l.6.6c2.9-.4,6.3.2,9-.7.5-1.9.7-3.9,1.4-5.6,2.6-2.8,5.2-5.5,7.7-8.4.1-2.6-.9-5.3-1.2-7.9,1.6-2.3,4-4.3,6.1-6.2,2-.5,4-.7,6-1,0-4.4-.3-8.9-.5-13.3-4.2-2.2-8.5-5.3-13.2-6-1.8-.1-1.7-2.2-2.1-3.5.7-1.7,2-3.2,2.5-5-.3-1-.5-2.1-.7-3.1,1.7-3.6,3.7-7.1,5.6-10.5,2.1-.8,4.3-1.5,6.4-2.4,0,.9.2,1.9.2,2.8,2,.6,3.9,1.3,5.9,2,2.4.6,5.7-.9,7.9,0,1.5,2.6,2.7,5.4,4.4,7.8,2.7,1.8,4.9,4.7,8.4,3.1.3-2.7,1.8-6.1,1.5-8.8-3.8-4.7-7.2-9.5-12.2-13-3.8-1.4-7.7-2.3-11.5-3.5-3.4-1.8-6.5-4.2-9.9-6-4.1-1.2-8.6-1.8-12.5-3.5-3.3-1.4-6.7-2.5-9.9-4-.9-1.6-1.6-3.3-2.4-5,.7-2,3.5-3.4,4.9-5-.6-1.6-2.5-2.8-3.6-4.1-6.8.9-12.4,3.2-19.4,1.7-3.3-1.6-7.4-2.5-9.9-5.2-4-3.7-8.1-7.2-12.1-10.9-3.5-4.5-4.5-9.5-6.2-14.7-1.7-3.6-3.3-7.3-5.2-10.8-4.3-3.1-8.8-5.9-13.1-8.9-1.8-1.3-4.2-1.6-6-2.9-2.2-2.1-4.3-4.3-6.5-6.5-3-5.6-2.6-10.6-2.6-16.8,1,0,2,.1,3,.2.2-1.4,1.3-3.2.9-4.6-3.5-1.1-3.6-4-5.3-6.8-2.1-3,1.2-8.2,4.3-8.6l.4,2.2c2.2-.6,4.3-2.5,6.4-3.5,2.6-1.2,3.7-3.5,5.6-5.5,3.7.3,7.4.8,11.1,1.1.6,2.2-.3,3.8-1,5.8,1.5.8,3,1.5,4.7,1.4.7-.7,1.4-1.4,2.2-2,2.5-.3,5.4.4,7.7-.4,1.2-1.4,2.1-3.3,3.5-4.5,2,4,5.8,3.7,9.6,4.8,2.2.5,3.9-.2,5.8-1.4-.2-2.2-2-4.1-2.3-6.3,2.3-1.6,6.3-2.3,7.8-4.6.1-3.3-1.4-6.4-.9-9.8,3.1-2.5,8.4-3.4,11-6.2-.3-.9-.5-1.7-.7-2.6,2.1-.4,3.7,0,4.7-2.4,1.7,2.2,4,2.3,6.3,3.5,2.4,1.5,3,4.2,5.6,5.3,2.6,1.1,4,3.2,6,5.1,1.5.9,3.7.3,5.4.7,1.9,1.3,3.3,2.9,5.5,3.7,3.3.1,6.7,0,10-.1,1.5-.5,2.3-2,3.2-3.1,1.4-2.4,4.4-2.7,6.8-3.9-.5,1.2-1,2.5-1.2,3.8,1.3,2.4,3.1,4.4,4.4,6.8.6,1.6.2,3.6,1,5.1,2,1.1,4.4,1.5,6.5,2.6.8.5,1.1,1.2,1,2-1.8.9-4.2,1.2-5.6,2.6-.7,1.6-.5,4.3,0,5.9.9.2,1.8.3,2.7.5-1.8.4-3.6.9-5.4,1.1-1.6-1.4-2.9-3.1-4.5-4.6-1.7-.7-3.7,0-5.4-.6-1.4-.4-2.8-1-4.2-1.1-2.5.8-4.8,2.5-7.3,3.3-4.3-.3-9.1-2.9-13.2-1.3-1.8-.1-3.5-2.1-5.4-2.1-.9.8-1.7,1.6-2.6,2.4-1.5.2-3.1.2-4.6.3-2.4,0-2,4.7-4,5-2.1-1.2-4-2.9-6-4.1-2.2-.5-4.4,1.2-5.1,3.3-.2,2.6-.2,5.3,0,8,2.2,2.7,5.6,4.5,8.2,6.9,1.5,2.6,1.7,6.1,3.5,8.6,5.6,6.2,12.1,11.1,18.1,16.9,1.1,1.1,3.2.6,4.4,1.6,2.4,3.6,3.4,7.4,7.4,9.7.6,1.8.4,4.9,2.6,5.5,5.3,1.9,10.3,4.3,15.5,6.5,1.7.5,2,2.6,3,4,1.7,1,4,1.2,5.6,2.3,4.3,3.4,8.5,6.9,12.8,10.2,1.7,1.2,4.3.8,5.9,2,1.2,4.5-.1,7.8-1.7,11.8.7,1.2,1.5,2.3,2.2,3.5-.2,5.7-1.6,11.5-1.8,17.2,1,.9,2.3,1.6,3.2,2.6.5,1.5.8,3,1,4.5-1.2,0-2.3-.3-3.4-.4,1.6,2,3.4,4.4,5.9,5.4,2.9,1.4,6.7,1.9,8.5,4.6,1.6,1.8,2.4,3.1,2.7,5.6,0,2.3,2.8,2.3,4.4,3,1,2.6,2,5.3,3.5,7.7,5.5.7,6.5,6,10.7,8.3,1-.5,1.1-2.5,1.6-3.5,2.3-.2,5.1.9,7.2,1.7.2,1.2-.5,2.4-1,3.5-1-.5-1.9-1.1-2.9-1.5-1.3.2-2.6.5-3.8,1,1.2,2.6,3.9,4.8,5.6,7.1,2.2,2.5,2.9,6.1,5.2,8.4,1.4-.9,2.7-1.9,4-2.8,1.3.4,2.6,1,4,1.4,3.4-.8,6.5-3.4,9.9-4.2,2.6,0,5.1.4,7.6.4.7-.7,1.3-1.6,2.1-2.2.8.8,1.6,1.7,2.4,2.4,4.4-1.8,9.3,1.5,13.8,2.5,0,1.3-3.4,1.5-4.3,2.4-.3,1.1-.6,2.1-1,3.2-1,.4-2.3-.8-3.2-1.2-2.8-1.7-6.7-1.4-9.8-2.1-3.2-.4-5.6-2.2-8.6-3.2-3.8.8-4.8,3.1-6.8,6-1.5.5-3.5-.3-5.1-.2-.3,1.8-.3,3.6-.7,5.3-.9,1.9-2.6,3.6-3.3,5.5.9,1.3,2.3,2.3,3.5,3.3,2,1.6,4.9,1.7,6.9,3.1,1.3,2.1,2.8,4.2,3.5,6.6-.4,1.4-1,2.7-1.4,4,.9,2.7,2.4,5.1,3.7,7.6.7,1.6,2.9,2.3,4.4,3,.5-2.2.6-4.5.9-6.8.2-1.8,2.9-2.1,4.3-2.1,2.1,2.3,3.8,5,5.6,7.5,1.1,1.5.3,4.1,1.5,5.4,1,.7,1.8.6,2.4-.2.3-2.1-.1-4.5.7-6.4,1.3-1.1,2.9-2.6,4.5-2.9,1.9,2.1,3.5,4.5,5.5,6.5,1.5.5,3.1.7,4.6.9,0-1.9-2.3-3.6-3.2-5.2-1.1-1.2-.2-2.8,0-4.1-2.2-5.6-6.2-9.5-9.6-14.3-.6-1.1-1.6-2.7-1.1-3.9,2.4.5,8.2-.7,8.6,2.7,1.5.4,3.8-1.5,5.3-2.1.8-.6,3-1.1,2.8-2.3-2.5-1.7-4.4-3.1-7.6-2.7-.5-1.5-.7-3.1-1.1-4.6-.9-.6-3.2-.2-2.5-1.8.9-1.1,1.9-2.1,3-3,3.2-.6,6.4-.9,9.6-1.3,3.1,1,6.2,7.3,9.7,5.5.3-4.5-4.5-9.7-2.7-14.4-2.6-.8-5.4-1.1-7.9-2.1-.9-.4-1.2-1-1-1.8,2.6-.5,5.2-.9,7.8-1.1,3,2.8,3.7,7,7.8,9.1,1.6,1.3,3,.6,4.8.2,1-1.4.4-3.8.4-5.4-1.6.2-3.2.6-4.8.9-1.5-.5-2.4-2.5-3.4-3.6-2.2-2.5-2.6-5.4-3.8-8.3-1.7-1.2-4.7.2-6.7-.4-4.8-1.8-9.4-3.2-13.1-6.9-2,1.2-4.7,3.1-5.8,5.2,2.2.8,4.2.5,6.1,1.7,3,1.9,6.3,3.6,9.1,5.8l.4,1.5c-3.6-.4-7.2-1.6-10.8-2.3-1.6-.3-2.2-1.4-3.4-2.4-1.8-.3-3.7-.3-5.6-.6-1.7-2.6,2.4-4.9,3.6-6.8-.8-2.3-3.1-4.3-4.3-6.4-1-1.2.5-2.3,1.4-3,1.5.2,3,.5,4.4,1.1.8,1.3,1.3,2.8,2,4.1.7.2,2.7-1.9,2.4-2.6-2.9-3.9-5.9-7.4-10.4-9.5-2-4.8-5.8-7.2-9.3-10.8-.8-4.1.9-7.9-1.3-11.9,1-1.7,2.5-3.9,4.2-4.9.9.3,1.8.8,2.7,1.2-.6.9-1.3,1.8-2,2.8,2.8,3.5,6.2,3.8,10.1,5.1,1.6,1.8,1.8,4.8,3.3,6.7,2.2.3,4.5.2,6.7,0-2.5-2.3-6.5-3.9-8.4-6.7.5-2.2,3-1.3,4.6-1.3,4.2-.7,5.1,7.2,9.6,5.1,0-1.2-.1-2.6-.8-3.6-2.7-1.2-5.1-1-6.2-4.2.8-1.2,3-2,4.4-2.1,2.7.5,5.3,1.9,7.9,2-1.6-1.9-4.6-3.6-6.9-4.7-1,.4-2,.7-3,1.1-1.7-2-3.4-4.2-4.7-6.5,0-.9,1.2-1.9,1.8-2.6,2.2-.3,4.4,0,6.6-.4,1.9-2.1,3.1-5,5.3-6.8,2.7-.3,5.8.9,8.5.5,1.4-1.6,2.7-3.5,4.2-4.9,3-.3,6.4.8,9.4,1,4.5.6,8-2.6,12,.8.6,1.2,1.2,2.4,2,3.5,4.8-.2,10-3.9,14.8-3.8l.2.9c-2.9,3.7-7.1,6.5-10.1,10-.3,2.3,0,4.7.3,6.9,1.5.1,2.1-2.7,3.7-3,.3,3.2-1.3,4.8-3.2,7.1,0,2,.8,4,1,5.9.4,2.2-.5,4.7.2,6.9,5.1-1.5,9.9-4.2,15-6,1.8-.6,2.5,1.6,1.6,2.8-1.1,2.1-3.2,4-3.7,6.3,1.4,1.6,3.7,2.4,5.3,3.8,1,1,.8,3,1.9,3.9.9.2,1.8.4,2.8.5,0,3.5-2.2,4.3-4.7,6.1-.1,2.2,4.1,4.6,5.1,6.8-.8,1.8-2.7,3.5-4.8,2.5-2.4-.5-3.3-3.6-4.8-5.3-1.2-.8-2.5.2-3.4,1.1,1.1,1.9,2.6,3.7,3.6,5.7-.5,1.2-2,2-2.9,3v.7c2.5,1.2,5,2.2,7.6,2.8.9-1.1,1.7-2.2,2.6-3.3,2,.7,3.7,2.2,5.6,2.8,2.3.8,4.7,1.1,6.9,2,.5,1.5.7,3.2.5,4.8-1.1,1.3-2.7,2.4-4,3.5,1.3.4,2.7.7,4,1.1.9,1.6,1.3,3.3,2.1,4.9,2.4,1,5.1,1.5,7.4,2.7.3.8,1.2,2.3.6,3-1.7,1.5-4.4,2-5.8,3.8l.6,1.8c.8.2,1.5.1,2.4-.2,5.5-1.8,10.8-4.2,16.4-5.7h1c-1.8,2.5-2.2,3.8-2.1,6.9-2.5.7-5.1,1-7.5,1.7-1.7,1.1-3,2.9-4.1,4.5,1.5.1,3,0,4.4-.4.9-.8,1.2-2.1,1.8-3.1,2-.6,4.2-.9,6.3-1.2-.1.6-.2,1.2-.3,1.8,1,.7,1.8,1.2,3.1.7.6-2.2,1-4.3,1.8-6.4,1.7-.8,4.7-1.6,6.4-.9,2.2,2,4.9,3.1,7.9,2.5.3-.8.5-1.7.8-2.5.7-.2,1.6,0,2.6.7v84H.8V11Z"/>
  <path class="st7" d="M593.6,48.3c-.1,2.9-2.1,5.5-.2,8,.1,1.5-.9,3.1-.5,4.7,1,.2,1.9-.2,2.8-1.2.7-3.1.2-6.7,1.3-9.6,1.1-.5,2.2-.9,3.5-.8.9,1.1,1.7,2.3,2.6,3.4,1.9,0,3.8-1.5,5.7-1.7,3.3,1.3,7,3.1,10.2,4.7.8.6,2.8,1.8,2.6,2.9-1.4,1.3-3.4,2.2-4,4-.9,1.7-1,4.5-3.4,4.6-4.1.7-8.1.5-12.2,1.8l.5,1.2c3.3.6,6.8.4,10.1.9.8,2.2,1.1,4.3,1.6,6.5,1.7-.7,3.3-1.6,4.5-3-.1-.9-.2-1.7-.2-2.6,1.6,0,3.4-.1,5,.2,2.4,1.5,4.2,3.3,4.2,6.4-1.6.8-3.9,0-5.6.3-1.1,2.2-1,5-1.6,7.4-1.3,1.4-2.9,2.4-4.2,3.7-.8,2.4-1.2,4.8-2,7.2-1-1.3-2.5-2.7-2.3-4.5.4-2.4,1.4-4.6,1.8-7-.6-1.7-2-3.2-3.2-4.6-2.5-1.1-5.6-1.1-8.2-1.9-2.5-1.6-4.5-4.1-7.2-5.3-1.3,1.6-2.4,3.7-4.1,5-2.1,1.1-4.5,1.4-6.7,2.3-1.4,2.5-2.8,5.6-2.6,8.5.2,5.1.2,10,1.1,15,.3,1.9.9,3.9.8,5.8-.9,1.1-2,1.9-3,2.9-1.8,1.7-1,6.1-2.8,7.4-3.3-1.9-6.9-3.2-10.7-3.9-2.1,1.8-3.7,4.4-5.6,6.3-2.3.8-5.4.2-7.7-.4-2-.3-2-2.6-3.2-3.9-2.4-2.7-4.7-5.3-7-8-1.1-1.5-2.9-2.2-4.6-1.2-2,2.8.2,6.2-3.9,7.3,4.5,3.4,7.6,7.9,12.8,10.6,3.4,2.8,6.7,1.5,10.6,2.4,2.4,2.4,3.9,5.3,6.7,7.2,1.4,1.1,3.4,1.9,4.5,3.4-1.2,4.5,2.4,7.9,1.5,12.5,1.1.6,2.5.8,3.4,1.6.4,2.5-.2,5.2.4,7.7,1.7,2.8,4.4,5.1,6,8,1.3,4,.4,7.4-1.1,11.1.5,1.9,1.2,3.9,2.2,5.7,1.3,1.6,3.4,2.7,4.6,4.4,1,1.6,1.6,3.4,2.4,5.1-2.7,1-5.5,1.3-8.2,2.2-1.1.8-2.1,1.9-3.2,2.8-2.2-.4-3.7-2.7-5.9-3.2-.9.3-1.8.8-2.7,1.4,0,2.1.9,4.2,1.2,6.3-2,2.4-4.4,3.5-4.7,6.9-1.2.6-2.4,1.1-3.5,1.6.8.9,2,1.7,2.4,2.9.5,4.3-2.6,8.6-3.4,12.8,1.5,3.5,5.5,6.5,6.5,10-1.6,3.2-4,6.1-5.5,9.3-.9,3-1,6.4-1.7,9.4-.8.3-1.5.6-2.3.8-.7,1.3-1.1,2.7-1.7,4.1-1,.4-2,.7-2.9,1.1-1.5,1.8-2,4.7-3.7,6.2-1-.5-1.9-1.2-2.9-1.7-2,3.2-2.5,7.2-4.4,10.4-1.5.6-4.4.2-5.1,1.9-1.1,3-1.5,6.4-2.8,9.3-1.2.4-2.5.7-3.6,1.3,0,1.9,1.5,3.7,1.5,5.5-2.2,2.4-4,4.7-7.5,4.7.6,2.3,2.2,4.4,2.9,6.7,0,2.8-1.3,5.5-1.5,8.2.2,1.8.8,3.6,1,5.4-1,1-2.1,1.8-3.2,2.7.2,4.5,2.8,9,2.6,13.7-.1,4.1.5,8.1,2.2,11.8,1.5.6,3,.9,4.5,1.5.5.8,1.1,1.6,1.6,2.4,1.3-.2,2.3-1.2,3.6-1.6,3.1,2.9,5.2,6.8,8.4,9.6,1.7.8,3.6,1.1,5.4,1.7,1.9,2.4,3.3,5.6,4.4,8.5-1.9,4.2-6,7.6-8.6,11.5,0,2.1,1.6,4.4,1.9,6.6-1,1.6-2.8,2.8-4,4.3-.6,1.4-.9,3-1.8,4.3-2.6.4-2.9-1.9-4.4-3.5,0,1.6,0,3.3,0,4.9-1.5,2.8-3.4,4.4-6.7,4.5-.8,1.1-1.2,3.1-2.5,3.6-2.9.2-5.8-.3-8.8.2.7.5,1.4.9,2.1,1.2,1.7,0,4-1.2,5.5-.4.6,1,1.5,2.2.7,3.3-1.3.4-2.1.9-2.6,1.6.9,2,2.5,3.8,3.2,5.9-.4,2.7-1.2,5-.5,7.7-.9.5-1.8,1-2.7,1.5-.4,1.5,2.3,3.4,2.9,4.9-.2,1.4-.7,2.6-1.1,3.9.6,1,1.4,1.9,1.8,3-.5,2.4-1.4,4.6-1.9,7,.1,1.3,1,2.6.9,3.9-1.1,8.4-4,16.2-6.3,24.4-.4,1.1-.5,2.8-1.5,3.5-2.2-.5-3.7-2.9-6-2.1-3.9.8-7.8,1.6-11.7,2.7-3.8,3.1-6.4,7.3-6.8,12.3.8,1.8,1.9,3.5,2.5,5.3-.4,1.4-1.4,2.6-2.3,3.7-1.6,0-3.1-.4-4.6-.5-2.8.6-5.3,2.2-8,2.8-2-.1-3.9-.6-5.8-1.2-1.5-3.2-1.1-7.1-2.5-10.4-2-4.4-4.6-8.6-6.5-13.1,1.2-.2,2.5-.4,3.7-.6.3-1.1-1.5-2.6-2-3.6.8-1.6,2.7-2.6,3.8-4.1-2.2-4-5-7.3-8.7-9.9-2-4.3-3.2-9.1-5.2-13.5-.5,0-1.1,0-1.6,0-1.4-4-1.8-8-4.2-11.7-.7-2.4,1.2-5.3.9-7.8-1.9-.2-3.7-.3-5.6-.4.7-1.1,1.6-2.2,2.3-3.3-1.8-.6-4.5-1.7-5.4-3.5-.4-3.6,0-7.3-.4-10.9-.4-1.7-1.3-3.3-1.8-5,.3-1.6,1.2-3.1,1.8-4.6-1.9-.5-3.9-.9-5.7-1.6-2-2.1-3.1-4.7-3.8-7.4,0-.5-.4-.8-1-1-1.2,3.5-1.9,7.3-3.5,10.7-.9,1.3-4.3,3.4-5.8,3.8-.6-.4-1.2-.9-1.8-1.3-3.6,4.4-7.2,8.8-10.8,13-3,3.3-6.4,6.2-9.6,9.4-1.3,1.2-2.7,2.9-4.5,3.5-6.5,2.6-14.9,2.3-21.2-.7-.2-1.1.6-2.2.4-3.3-7-3.5-13.9-7.1-15.8-15.4.7-2.9,2.5-4.5,1.6-7.8,1.9.9,3.6,2.1,5.5,2.8-.2-1.5-1.1-3.3-.7-4.8.8-1.4,1.9-2.7,2.7-4.2-.1-1.1-1.4-1.9-2.2-2.5-2.1.3-4.4,1.7-6.5,1.4-1.2-1.9-3.4-4.5-3.3-6.8,1.3-1.7,2.8-3.4,4.5-4.7,1.7-.4,3.5-.5,5.3-.7-.5-.9-1.1-1.8-1.7-2.7,1.4-2.1,3.4-3.3,3.8-6,.4-2.8,2-4.6,3.2-7-3.6-.5-3.9,4.7-5.1,7-1-.6-1.7-1.4-2.6-2.2-1.3-.4-2.8-.4-4.1-.9-1.1-1.1-1.9-2.4-2.5-3.8.3-1.8.8-5.1,2.3-6.1,1.3.7,2.5,1.4,3.9,2.1-.1-1.6-1.2-1.8-2.4-2.6-2.8-1.5-4.4-5.1-6-7.8,0-2.4,1-5,1.8-7.4,4-1.7,9.9.7,13.5-1.9-3.8-.9-7.2,0-10.8.9-1.7-.7-2.7-3.1-3.5-4.6.4-3.2.7-5.3,4.3-6.1.5-1.3.4-2.8,0-4.1-1.2-.2-2.3-.5-3.5-.7.4-2.3,0-4.3,0-6.5,1,.2,1.9.5,2.9.7,1.6,0,2.6-1.1,4.2-.2,2.6,1.3,4.8,1.8,7.7,1.3v-.8c-3.3-1.3-7.9-1.5-10.6-3.5.7-1.9,1.5-4,2.9-5.6,1.9-.2,3.8-.1,5.7-.3,1.5-1,1.7-2.8,3.6-3.4,1.7-.9,4.2-1.3,5.3-2.9-.8-.3-1.7-.6-2.5-.9,1.8-1.6,3.6-3.5,5.7-4.6,3,.3,5.9,1.9,8.8,1.9,1.1-.2,1.3-1.8,1.7-2.7-2.3-3.3-5-.9-8.2-1.6-.2-1.8-.5-3.7-.1-5.5,1.2-.7,3-2,4.5-1.9,1.1.8,2,2.2,3.3,2.6,2.2-.1,4.4-.6,6.6-1.1-.6-.6-1.2-1.2-1.8-1.8.8-1,1.6-1.8,2.7-2.4,1.7-1.4,4.1-.4,6.2-.7.2-2.2.2-4.5.4-6.7,1.9-.6,3.9-.3,5.8-.9,1.2-3.6,3.8-4.6,7-6.1,2.3,1.2,2.7,5.8,5,7,1-.7,2-1.4,3.1-2.1,2-.1,3.9,0,5.9,0,0-1.6-.1-3.2-.1-4.9,1.7-2,5.9-2.8,7.1-4.9-.9-.5-1.7-1-2.6-1.5.6-1.2,1.7-2.3,2.6-3.4-1.6.2-3.1.5-4.6.9.2,1.8,1.4,3.2-.5,4.6-3.5,3.1-7.4,7.8-12.6,7.2-1.1-3.1-2.2-4.5-4.3-6.9,1.4-1.6,3.3-2.8,4.8-4.3.3-1.8.2-3.7.6-5.4,1.7-1.9,3.8-3.5,5.5-5.5,1.9-2.4,3.3-5.4,5.5-7.5,1.7.8,2.8,3.1,4.7,3.7.2-1.9.3-3.8.5-5.6,1.1-1.5,2.9-2.5,4.2-3.7.2-.9,0-1.4-.7-1.7-1.5,0-2.5,1.7-3.9,2.1-.7-.2-1.1-.9-1.3-1.9,1.3-2.2,4.2-3.6,6.1-5.2,2.1-1.9,4.4-1.6,7-2.1.4-2.5-1.2-4.7-.5-7.4-.8-.2-1.5-.4-2.3-.6,0-.9.5-1.7,1.1-2.6,1.1.2,1.7,1.4,2.7,1.8.7-2.3-1.9-4.5-2.5-6.7.9-1.6,2.1-3.1,3-4.8,1-2.9,1.1-6.1,2.1-9,1-1.6,2.4-3,3.3-4.6,0-2.2-1.1-4.4-1.4-6.6,1.3-3,3.9-5.5,5.4-8.4,0-.9-.7-2.4-.2-3.1,1.8-1,4.1-1.1,6-2,.8-1.6.8-4.6,2.6-5.4,2.1-1.3,4.2-1.2,6.5-1.4v-.8c-2.1-.7-4.6.2-6.8-.2.5-5.2,4.6-10.8,9.7-12.3.2-.8,0-1.6-1-2.5-2.2-.1-5.3,2.2-6.4-.9,3.1-2.3,6.9-3.7,10.3-5.7.6-1.8-3.4-1.8-3.5-3.3,1.7-.5,3.9-1.5,5.6-1.1.8,1.9,1.2,4,2.2,5.8,2.8-.4,2.2-5.4,1.4-7.3-1-.3-2.1-.6-3.1-1,0-1.1,0-2.2.1-3.3,1.3-.7,2.8-1.2,4.2-1.9-1.4-2.4-1.9-4.8-.2-7.1,2.6-2.4,5.4-4.4,8-6.8-.4-.6-.8-1.2-1.2-1.8.3-2,1.2-3.9,1.8-5.8-3,.2-5.6,2.4-8.6,2.8,1-3.4,2.3-5.4.4-8.8.5-1.3,2.1-2.2,3.2-3.1,1.5-.9,3.1-2.8,5-1.9,2.3.4,1.7,3.1,2.3,4.9.9-.8,1.1-2.5,1.9-3.6,1.3.3,1.6,3.1,2.9,3.9.9,0,1.7-.2,2.6-.6.8-1.7-2.4-2-3.3-2.9.4-1.6,2.9-2.9,2.7-4.5-1.9.5-3.9,1.8-5.9,1.8-.2-2.2-.2-4.4.3-6.6,1-.9,2.2-1.7,3.2-2.7.8-2.5,1.9-4.3,3.7-6.2,1.5.1,3.3.6,4.4,1.6-1.1,4.1-5.8,5.6-5,9.9l.8-.3c1.4-3.1,2.5-4.5,6.2-4.6.2,1.9.3,3.8.5,5.7,1.5-3.5,2.4-7.1,3.9-10.5.5,0,1,.4,1.4,1.1.5,2.8.4,5.8.9,8.6.3-1.8.4-3.8,1-5.6,1.6-1.4,3.5-2.4,5.1-3.8.7-1.4,1.1-2.9,1.7-4.4,1.9,1.2,3.6,2.8,5.6,3.7,0-1.8.5-3.5-1.5-4.4-1.8-1.4-5.6-2.5-6.5-4.6,1.2-3,4-4,7.1-3.9,2.9.2,5.9.7,8.8,1.2,1.4,1.7,2.1,3.8,3.4,5.6,1.1.2,2.2-1.2,2.5-2.1-.4-3.3-1.2-6.5-1.9-9.8-1.3.9-2.1,2.5-3.1,3.6-1.1-1-2-2.3-2.7-3.7,1-1.9,2.4-3.7,4-5.2,1.3.6,2.1,2.1,3.1,3h.6c1.6-3.1,3.4-6,4.9-9.1.3-2.1-.3-4.3-.3-6.5,2.3-.2,4.3.5,6.7.6,1.6-.2,3.1-.6,4.7-.7-.7,4.8-3.7,9.6-2.2,14.2.8,2.9,0,5.5-.2,8.4,1,0,1.8-.3,2.5-.9.4-3.1-.2-6,.9-9,1.6-5.1,3.1-10.3,4.9-15.4,1.6-.6,1.5.7,2.1,1.7,1.2,4,1.1,8.4,1.7,12.5,1.7-.8,2.9-2.2,3.8-3.7.1-2.3-.7-4.6-.9-6.9.3-1.2,1.1-2.1,1.7-3.2-.2-1.5-2.9-1.4-3.3-3-.2-2.9,4.2-3.9,6.2-5.1,2.1-1.4,4.1,0,5.7,1.5Z"/>
  <path class="st7" d="M567.2,50.4c1.2.8,3,2.9,3.4,4.2-1.1.6-2.3,1.4-3.6,1.5-1-.7-2.6-1.7-2-3.1.5-1,1.2-2.2,2.2-2.7Z"/>
  <path class="st7" d="M549.8,64.2c-.6,2.1-1.5,4.1-2.4,6.1-.9,2.7-4.7,4.1-7.2,4.6,0-2.2.8-4.8,2.1-6.5,1.2-.1,2.5-.3,3.7-.4,1.5-.7,1.8-4.7,3.8-3.8Z"/>
  <path class="st5" d="M85.1,67.1c11.9-.2,23.8-.2,35.7,0,.2,4.1.2,8.6,0,12.7-11.9.2-23.8.2-35.7,0-.2-4.1-.2-8.6,0-12.7Z"/>
  <path class="st1" d="M122.1,67.1c11.9-.2,23.9-.2,35.8,0,.2,4.2.2,8.6,0,12.8-11.9.2-23.9.2-35.8,0-.2-4.2-.2-8.6,0-12.8Z"/>
  <path class="st1" d="M159,67c12,0,24,0,36,0,0,4.3,0,8.7,0,13-12,0-24,0-36,0,0-4.3,0-8.7,0-13Z"/>
  <path class="st11" d="M196,67c12,0,24,0,36,0,0,4.3,0,8.6,0,13-12,0-24,0-36,0,0-4.3,0-8.6,0-13Z"/>
  <path class="st0" d="M233,67c12,0,24,0,36,0,0,4.3,0,8.7,0,13-12,0-24,0-36,0,0-4.3,0-8.7,0-13Z"/>
  <path class="st6" d="M270,67c12,0,24,0,36,0,0,4.3,0,8.7,0,13-12,0-24,0-36,0,0-4.3,0-8.7,0-13Z"/>
  <path class="st12" d="M307,67c12,0,24,0,36,0,0,4.3,0,8.7,0,13-12,0-24,0-36,0,0-4.3,0-8.7,0-13Z"/>
  <path class="st5" d="M595.2,74.2c2.7,1.2,4.7,3.8,7.2,5.3,2.6.9,5.7.8,8.2,1.9,1.2,1.3,2.7,2.9,3.2,4.6-.5,2.3-1.4,4.6-1.8,7-.2,1.8,1.3,3.2,2.3,4.5-.4,2.1-1.9,3.4-3,5.1,1.1.5,2.4.9,3.4,1.5,0,2.9-.6,5.8-.6,8.7,1.1,2.6,2.9,5.1,4.5,7.4,2.7,1.8,7.3.6,9.5,3.5,2.7,3,4.9,4.7,8.5,6.5.6,1.7,1,3.6.9,5.4-.9,5.5-2.8,10.8-3.5,16.3.6,4.9,4.2,7.3,7.2,10.7,4.3,4.8,8.7,8.6,11.5,14.4.9,2,3.1,4.5,3,6.6-1,.8-2,1.5-3,2.3.6,3.8,3.6,7.2,4.5,10.9,0,2-.4,4-.4,6,.8,1.7,2.2,3.2,3.6,4.5,1.7.8,3.5,1.2,5.2,1.8-1.1,3.4-.9,5.6,1.7,8.2,2.3,1.1,5,1.7,7.2,2.9.6,2,1.5,4.4,1.3,6.5-.9,2.7-2.5,5.2-3.5,7.8,1.8,1.8,4.2,3.1,6.4,4.5,3.9,2.6,9.1,3.5,13.2,5.7,2.3,1.9,4.8,4,6.7,6.3.2,3.7,0,8.1-.4,11.7-1,3.8-3,7.3-4.2,11-2.2,6.9-3.8,14-6.1,20.9-1.9,4.8-3,9.5-6.5,13.5-4,6.6-6.4,14.2-10,21-.9,1.1-2.2,1.8-3.5,2.4-2,.4-4.2-.6-6.2-.2-1.4,1.3-2.5,2.9-3.9,4.2-2.4,1.2-5.4,1-7.7,2.3-1.5,1.5-2.3,3.7-3.7,5.3-5.5,1.9-9.8,5.3-14.9,8.1-4.5,2.5-8.3,5.6-13.1,7-1.5.4-2.1,2.7-3.5,3.5-2.8-1.9-4.7-5.1-7.5-6.9-.3,1.1-.6,2.2-.9,3.4-1,.7-1.9,1.3-3.1,1.2-.3-1.2-.5-2.4-.6-3.7.4-1.4,3.2-1.2,3.2-2.7-1.2-.1-2.4-.2-3.6-.2.1-1,.3-2,.4-3-1.8-1.4-5.6,0-7.7-1.3-1.4-.8-2.6-2.1-4.2-2.6-.7.6-1.2,1.4-1.6,2.5-5.2-2.5-4.9-6.8-6.2-11.6-.7-2.5.9-5.4,1-8-.4-1.7-1-3.3-1.3-5,.1-1.5.9-3.1.6-4.6-2-4-3.8-8-6.7-11.4,0-2,.5-4,.2-6-1.7-3.8-4.6-7.2-5.9-11-1.2-5.4,3.3-7.4,5.5-11.7-.8-1.5-1.8-2.8-2.6-4.3.3-1.1,2-1.6,3-2,.7.3,1.5.5,2.2.8,1.7-.8,3.2-2.7,4.4-4.2-.7-4.2.1-8.2,2.3-11.9,2.4-3.2,5.2-6.1,7.6-9.3,1.5-1.9.8-5.1,1.8-7.3,1.2-2.9,3-5.7,4.3-8.6,1.2-3,1.3-6.5,2.4-9.6.9-1.3,2.2-2.4,3.5-3.4,1.1.2,2.2,1,3.4,1.3.3-1.2.7-2.4.8-3.6-.7-2.3-2.5-4.1-3.2-6.4-.6-2.5-.8-5.2-1.5-7.7-2.5-2.6-5.1-2.3-8.4-2.6-1-1.1-1.7-2.2-2.7-3.3-1.3-.5-2.9-.2-4.3-.3-.7-1.7-1.4-3.5-2.4-5.1-1.2-1.7-3.3-2.8-4.6-4.4-1-1.8-1.7-3.8-2.2-5.7,1.5-3.8,2.3-7.1,1.1-11.1-1.6-2.9-4.4-5.1-6-8-.7-2.4,0-5.2-.4-7.7-.9-.8-2.3-1.1-3.4-1.6.9-4.7-2.8-8-1.5-12.5-1.1-1.4-3.1-2.2-4.5-3.4-2.8-1.9-4.3-4.9-6.7-7.2-3.9-.9-7.3.3-10.6-2.4-5.2-2.6-8.2-7.2-12.8-10.6,4.1-1.1,1.9-4.6,3.9-7.3,1.7-.9,3.4-.2,4.6,1.2,2.3,2.7,4.7,5.3,7,8,1.2,1.4,1.2,3.6,3.2,3.9,2.4.5,5.5,1.1,7.7.4,2-1.9,3.5-4.6,5.6-6.3,3.8.6,7.4,1.9,10.7,3.9,1.8-1.3,1-5.7,2.8-7.4,1-1,2.1-1.9,3-2.9,0-1.9-.5-3.9-.8-5.8-1-5-1-9.9-1.1-15-.2-2.9,1.2-6,2.6-8.5,2.2-.9,4.7-1.2,6.7-2.3,1.6-1.3,2.7-3.4,4.1-5Z"/>
  <path class="st7" d="M77.9,120.2c.6,2.1-.2,4.1,1.2,5.8,2.3,3.1,3.3,6.2,3.8,10-.6,2.9-4.1,5.1-4.8,8-.5,2.3-.8,4.6-.9,7,2.8-.1,5.7-2.6,8.4-3.5.2.8.4,1.7.5,2.5,1.5.4,3.4-1.4,4.5-2.3.8-2.4,1-5,1.7-7.4.6-1.1,3.3-2.1,4.2-.9.5,3.2.3,6.4.7,9.6,0,1,1.4,2.4,2.4,1.9.9-1.9,1.1-4.9,2.9-6.2,2-2.3,6.3-1.5,9-1.2,1,3.4,1.3,7,1.7,10.5,1.5-1.9,1.7-5.4,3-7.7,3.7,0,5.2,5,7,7.5,1.5-.4,2.7-2.4,4.1-3.3,1.4.1,2.2,2.6,3.7,2.6,1.2,0,3.6.5,4.4-.6,1-2.3,1.5-5,2.8-7.2,1.8-.4,4,.4,5.6,1.1.8,1.5,1.4,3.1,1.6,4.7-.2,1.5-1.2,3.2-.9,4.6.8.8,1.8,1.5,2.8,2.1,2.3-.6,4.3-2.2,6.7-2.6-1,2.5-4.3,4.9-4.6,7.4,1.1.6,2.7.7,3.5,1.7,1,3-3.4,4.9-3.8,7.5,1.2.2,2.5.3,3.7.5.5,4.5,4.3,6.2,6,9.9-.6,1.9-2.9,3.2-3.5,5.1-.1,2.3.2,4.6.1,6.9-1.5,2.4-4.3,4-6.5,5.8-2,1.9-5.1.8-7.7,1.4-1.4,1.2-1.7,3.7-2.7,5.3-2.2,1.2-4.9,2.5-7.4,2.7-1.1-.9-2.2-1.9-3.3-2.8-3.6,2.7-7.6.6-11.3,3-3.5,2-7.4,2.9-11.4,3.5-3.9-.3-7.8-1.9-11.7-2.4-.9,1.3-1.6,2.9-2.7,4.1-1.4.6-3.1,1.3-4.7,1.1-3.6-.3-7-.3-10-2.7-3.7-2.1-5.3-6-9-7.9-.8-.6-2.4-1.2-2.6-2.3-1.3-4.5-4.1-8.6-6.9-12.2-3.8-2-7.7-3.7-11.6-5.5-1.5-.8-4-.9-5.1-2.1.2-1.7,1.4-3.4,2.3-4.8,1.4,0,1.6,2.5,2.9,2.9,2.9-.3,5.9-.8,8.8-1.3-.3-1.8-1-3.5-1.4-5.3,1.1-1.4,2.8-2.5,3.5-4.2-.9-.2-1.8-.4-2.6-.6-.6-3.1.4-4.9,1.7-7.5-3.3-2.7-7.2-4.9-10.7-7.3-1.4-1.1-4-.7-5.1-1.9-.2-.9-.2-1.8,0-2.8,1.6-.2,3.3,1.2,4.9,1.6,6.3,1.4,12.6,1.4,18.6,4.2-.8-1.7-3.6-3.5-3.4-5.4,3.1-1,6.4-1.5,9.5-2.7v-.7c-3.5-3.5-7.4-6.7-11.3-9.7-3.1-.3-6.3.6-9.3.3-1.8-1.6-3.5-3.5-4.6-5.6.5-1.2,2.2-1.5,3.4-1.9,1.2.3,1.6,2.1,2.7,2.6.8-1.6,1.2-3.4,2.3-4.9,1.8.6,2.3,3.8,3.9,5.1,0-2.2-.9-4.4-.6-6.6.8-.3,1.6-.5,2.4-.8.6-1.4.2-3.4,1.9-4,1.3-.6,2.7-1.1,4.1-1.2,2.7,3.5,5.2,7,6.7,11.2h.6c2-3.7-.8-5.5-1.7-9.1,1,.1,1.9.2,2.9.4-.4-1.8-2.3-3.1-2.8-4.8,2.8-2.4,5.6-.2,7.6,2.1Z"/>
  <path class="st7" d="M487.5,117.2c-1,3.6-2.2,8.5-5.4,10.8-1.1-3.3.8-5.8,2.2-8.6.8-1.4,1.5-2.2,3.2-2.2Z"/>
  <path class="st7" d="M485.9,126.9c1.4.6.9,4.5,1.4,5.9,1.3-1.3,2.1-2.9,3.1-4.4,1-.2,2.4.5,2.4,1.6.2,2,.8,4.7,0,6.6-1,.4-2.1.7-3.1,1.1-1,1.4-1.1,3.5-2.3,4.7-2.6,1.3-5.4,2.6-8.2,3.4,1.3-5.1,4.5-8.8,3.4-13.9-.4-1.9,1.7-4.1,3.2-5.1Z"/>
  <path class="st7" d="M479,127.9c1.5.8,2.2,3.4,2.8,4.9-.8,1.5-1.7,3-2.9,4.1-2.1.5-4.5,0-6.6-.2,2.1-3,4.1-6.2,6.6-8.8Z"/>
  <path class="st7" d="M479.9,141.1c-1.7,4.1-4.7,6.5-8.6,8.5-.6-5.2,3.5-9,8.6-8.5Z"/>
  <path class="st7" d="M465.2,146.3c1.6,0,3.1.4,4.6.9-1,1.9-3,5.9-5.7,4.6-.5-1.6-.1-4.2,1.1-5.5Z"/>
  <path class="st7" d="M416,276.8c1,.6,1.4,2,1.8,3-2.3,1.4-5.1,2.3-7.7,2.9-.7-.2-1.3-.5-1.9-.9.7-3.3,4.7-5.1,7.8-5.1Z"/>
  <path class="st1" d="M208.6,290.3c1,3.4,4.3,7,3.1,10.5-1.9-2-3.2-4.5-4.5-6.9-.7-1.2-.1-3.2,1.4-3.6Z"/>
  <path class="st1" d="M210,290.1c2.4-.6,3.3,2.1,4.3,3.7.7.9-.8,2.3-1.4,2.8-1.4-1.4-2.9-4.5-2.9-6.5Z"/>
  <path class="st7" d="M275.6,351.3c1.2,3,2.7,6.5,1.1,9.6-.8,1.9-1.2,4.4-2.5,6-.4-1.9-.8-3.4-2.2-4.9-.6-1-2.2-2.3-1.9-3.5,1.2-.2,2.5-.5,3.7-.7.6-1.5-1.3-3.8-1.7-5.4,1.1-.4,2.2-.8,3.4-1Z"/>
  <path class="st5" d="M567.2,356.4c1.6.4,3.3.8,4.6,1.8-.7,2.7-2.2,6.4-5.7,5.7-.3-2.5,0-5.2,1.1-7.5Z"/>
  <path class="st7" d="M684.9,359c-.6,1.1-1.3,2.1-1.9,3.1-.8,2.6.2,6.4-1.3,8.6-2.4,1.4-5.2,2-7.6,3.5-.4,1.4-.8,3-.7,4.5,1.2,1.1,2.5,2.1,3.7,3.2,2,2.6,1.8,5.8,5.4,6.7,2.8,3.4,5.2,7.6,7.4,11.5-.2,3.9-1.1,7.8-1.6,11.6,2.7,1.7,6.2,2.5,8.5,4.5.7,3.7.2,7.7.7,11.4,2.6,3,6.6,4.7,9.3,7.6,2.3,3.3,3.6,6.4,3.6,10.5.8.8,1.8,1.4,2.8,1.9,1.5-.5,3-1.5,4.7-1.7,1.3.8,2.5,2,4,2.4,1-.9,1.8-2.7,3.1-3,1.7,0,4.1,0,5.4,1.2,1,1.7,1.8,3.6,2.8,5.3h.6c3.3-3.1,5-6.6,10.1-7,3.9,1,7.8,2.4,11.6,3.8,1.5,2.2.9,5.8,1.6,8.4,1.2,2,3.3,3.4,4.6,5.3.8,2.6-1.2,5.9-.5,8.4,2.3,1,5.2,1.3,7.2,2.8,2.1,2.9,3.5,6.4,5.8,9.2,2.6.8,5.7.9,8.1,2,2.5,1.4,1.6,3.7,2,6.1,3.5,0,6.6-1.4,10.2-.3,2.5.3,2.1,2.2,3,4,1.4,1.1,3.7,1.2,4.8,2.6-1.1,3.2-2.5,6.4-3.9,9.5-.7,2.3-3.3,2.9-5.4,3.2-1.3-.4-2.5-1.2-3.8-1.3-1.7.3-3.5.7-4.9,1.8-.4,1.5-.6,3.1-.7,4.7,1.2,2.3,4.9,2.4,5.9,5.3,2.9,5.8,5.2,11.7,9.7,16.6,1.6.7,3.9.2,5.6,0,3-1.9,3-4.4,2.4-7.6,2.9-2.9,5.9-1.7,9.5-2.5,1.2-1.4,2.2-3.1,3.5-4.5,1.9-.1,3.8,0,5.7,0,1.5-.8,2.7-2,4.2-2.8,1.8.8,3.7,1.9,5.3,3.1,1.2,1.5,1.8,3.5,2.9,5.1,1.9,1.2,4.3,1.5,6.2,2.7,1.3,2.8-1,3-2.5,4.7,1.1,4,6.6,6.3,5.1,10.9,2.6.1,5.2-.4,7.8-.8,2.7-.3,4.5-2,7-2.7.7.2,1.3.5,2,.7v151.2c-5.2.2-10.1-1.2-14.7-3.4.5-1.1,1.5-2.3,1.5-3.5-1.5-.2-3.1-.3-4.7-.6v-.4c3.8-.6,7.6-1,11.3-1.9.4-.7.5-1.5.4-2.4-1.6,0-3.2.6-4.8.9-2-.7-3.8-2.1-5.7-2.9-.2,1.1-.4,2.3-.7,3.4-5.3,1.1-10.5,3.1-15.1,6-1.1,1.1-3.2,2.7-2.6,4.4.8,3.2-.5,5.8-1.2,8.9-1,4-3.3,7.9-5.3,11.5-1,.4-2.1.7-3.1,1.1-1.3,1.7-1.7,4.2-2.6,6.2-.9-.1-1.8-.3-2.6-.4,0,1.9.6,3.8,1.3,5.5.8.3,1.6.5,2.4.8.2,1.6,0,3.1-.3,4.7-1.9-2.5-4.5-2-7.4-2.1-3.5,2.1-5.9,6.3-9.5,8.5-4.3-.4-9.2.8-11.9-3.3-2.5-4.3-3.9-9.3-6.1-13.8-.9-5.1.6-11-1-16.2-.9-4.1-3.5-6.7-5.9-10.1-1.6-2.5-4.4-2.5-6.6-4.4-2.7-2.6-4.9-5.9-7.8-8.2-1.8-1.5-4-2.8-5.6-4.5-2.4-2.9-4.1-6.5-6.6-9.4-1.5-1.2-3.4-2.1-5.3-2.8-2.5.3-5.8,1.8-7.8,3.2-1.4,1.5-.9,4.5-1.5,6.4-5.2,2.7-11,4.2-16.1,7-2,1.9-3.5,4.4-5.7,6.2-2.8-.9-5-3.7-7.8-4.5-2.4.7-4.8,2.7-7.3,2.1-4.7-.7-8.2-.6-12.8.5-2.5.7-4.7-1.3-6.9-1-1.4,1.4-2.4,3.1-3.6,4.6-1-1.1-2.1-3.7-3.6-4-4.7.8-7.5-3.1-10-6.4-2.9-.2-6,2.2-8.8,2.8-2.6-.3-4.4-3.6-7-4.3-1.8.3-3.4,1.5-5.1,2.1-2.2.4-4.6-.9-6.8-.7-1.7.4-3.3,1.1-4.8,2.1-1.2,2.3-1.7,5-2.7,7.4-1.6,1.8-3.7,3.2-5.7,4.5-1.9.3-4-.7-5.9-1-1.4.7-2,2.8-3.5,3.5-3.2,1.3-6.7,1.8-9.9,3.1-1.1,1.3-.7,4.2-1.2,5.9-4.5,2.3-10.5,4.1-15.5,4.5-3.9.4-7.4-1.2-10.2-3.9-1.5-1.4-2.7-1.8-4.8-1.1-.7,2.5-.4,5.2-1.4,7.7-3,2.3-5.5,1.1-8.6.3-.8.5-2.3,1.1-1.7,2.3,1.8.7,2.9.7,3.2,2.9,1,3.1-1.8,3.8-3.3,6,0,2.8.9,5.9.6,8.7-1.2,1.8-3.2,3-4.6,4.5,3.9.4,5.1,5.7,7,8.6-1,2.3-2.5,2-4.7,2.4.2.9.5,1.7.7,2.6-2.6,2.8-7.9,3.7-11,6.2-.5,3.4,1,6.5.9,9.8-1.5,2.2-5.5,3-7.8,4.6.3,2.2,2.1,4.1,2.3,6.3-1.8,1.2-3.5,1.9-5.8,1.4-3.8-1.1-7.6-.8-9.6-4.8-1.4,1.2-2.3,3.1-3.5,4.5-2.3.8-5.2.1-7.7.4-.8.6-1.5,1.3-2.2,2-1.8.1-3.2-.6-4.7-1.4.7-2,1.5-3.6,1-5.8-.6-1.3-2.1-1.8-2.6-3.1.1-1.2.2-2.5.2-3.8-1.1-.3-2.1-.8-2.9-1.4.7-1.7,1.9-3.1,2.8-4.7-1.4-1.1-4.2-1.6-5-3.2,1.1-2,4.6-4,4.7-6.1-7.9,0-15.4-1.9-23.1-3.2-1.4-.8-2.2-2.5-3.2-3.7-1.5-2.3-3.4-3.8-3.4-6.8-2.5,1-5,2.5-7.6,3-3.2.1-6.4.5-9.6.6-1.7.9-2.2,3.8-3.6,5.2-3.4.2-7.1-2.1-10.5-1.7-.4,1.6-.9,3.1-1.1,4.7.3,1.4.8,2.6.8,4.1-2-.3-4.2-1.8-6.1-1.5-.5,1.1-.9,2.2-1.1,3.5.5,1.9,1.8,3.4,2.3,5.3-1.6.3-2.6-1.8-4.1-2.1-2.7.4-5.3,1-8,1.3-2.2-1.2-.8-7.2-4.8-4.6,1,7.4-5.8,10.5-6.5,17.9-1.9-2-4.6-3.7-2.9-6.7-2.3-2-5.2-3.3-7.5-5.3,0-1.3,0-2.6,0-3.9-2.1.6-3.9,2.3-5.8,3.5,0,1.2,0,2.5.2,3.7-1.6,2.2-3.7,4.2-5.6,6.1-2-.3-3.9-1.5-5.9-1.8-3.7,1.2-6,3.5-10,1.6-1.4.5-2.6,1.4-3.9,2.2,1,2.8,2,5.7,3.2,8.5,1,1.2,2.4,2.1,3.4,3.2-.6,1.9-1.3,3.8-2.3,5.5-2.7,1.2-5.6,1.7-8.3,2.7-.2,1.4,1,2.9,1.6,4.2,1.3,1.3,3.5,1.9,5,3,.5,1.3,1.4,3.1,1.1,4.5-1.1,1.8-2.9,3.3-3.9,5.2,1,2.3,2.1,4.5,3.4,6.7,1.9,1.5,4.5,2.5,6.7,3.6,1.7-.2,3.2-.9,4.9-1.3.9.9,1.5,1.9,1.6,3-1.2,2.2-3.1,4-4.2,6.1.1.6.3,1.2.4,1.8-3.5,2.4-7.5,4.2-11,6.7-1.8,3.4-4.4,4.7-7.4,6.7,0,.9.1,1.7.2,2.6-5.2,1.7-10.9,2.7-16.2,3.7-1.7-1.2-3.1-3-4.9-4.1-1.6-.5-3.4-.6-5-1-.7-1.2-1-3-2.1-4-4.1-.9-8.5-.4-12.6-1.2-1.1-.2-1.9-1.5-2.9-2.2-1.8-.3-3.7-.3-5.5-.7-1.9-.6-3.6-1.7-5.4-2.3-6,2.9-12.4,5.9-17.3,10.5-2.7,3.3-2.4,8.3-2.7,12.3-.3,2.6.9,4.5,2.1,6.7-1.6-.4-3.2-.9-4.8-1.1-3.1.5-6.2,1.8-9.3,2.4-1.6,0-3-1.7-4.4-2.4-1.5.4-3,1-4.6,1.5-2.6-1.1-4.6-3.5-7.2-4.6-1.3.4-2.5.9-3.8,1.2-1.5-1.2-1.5-4.5-2.6-6.2-1.1-2.8-5.1-3.2-7.6-4.3-1.8-.5-4.5-2.3-6.3-1.7-.6,1-.9,3.5-2.4,3.1-4.2-.5-8.9-.4-12.9-1.8-1.6-1.3-2.9-2.9-4.6-4.1-1.7,0-3.9,1-5.5.3-1.8-1.7-2.5-4.7-5.1-5-5-.9-7.5-5.4-12.6-6.1.4-1.1,1.5-2.3,1.4-3.5-1.5-1.2-3.8-1.4-5.5-2.5-.4-.9-.8-1.7-1.2-2.6,4.4.2,7.8-4.3,8.8-8.2,2.2-7.2,5.4-14.4,6.5-21.8.1-1.8,2.9-2.5,4.2-3.5-.2-.8-.4-1.7-.7-2.5-1,.1-1.8,1.1-2.6,1.6,1.4-6.9,3.2-13.8,4.7-20.7.4-1.1.6-2.9,2.1-3.1,1.9,1.9,2.8,4.4,4.8,6.1.3-6-4.5-7-7.5-11.1,1.2-3,3.9-5.7,4.6-8.8-.6-2.2-1.4-4.4-2.5-6.5-2.9-3.1-6.8-5.2-9.7-8.2-.6-1.8-.6-3.8-1.8-5.2-.9-1.4-2.2-2.7-2.8-4.3.5-2.1,2-3.9,2.8-6-2.1-3.7-6-7-8.4-10.5.6-.5,1.3-1.1,1.9-1.6-1.4-2.3-3.1-4.5-5.1-6.3-2-.3-4.1.6-6.1.4-2.8-1.8-4.8-4.7-7.4-6.6-1.7-.7-3.6-1.1-5.3-1.8-1-.9-1.6-2.2-2.6-3.2-2.3,0-5.3,1.3-7.4.4-.2-1.2-.4-2.5-.6-3.8-1-1.4-2.4-2.5-3.5-3.8,1.9,0,3.8,0,5.8-.3-.4-1.8-2.6-3.1-2.9-5,1.9,0,3.9,0,5.9-.1-2.2-4-4.9-2.5-8.6-2.4-.3-1.9-.5-4.7,1.5-5.7,3.2-2.5,8.1-1.6,12.2-2.2,2.7-.5,5.2,1.4,7.9,2,1.4-.6,1.8-2.9,3.2-3.7,2.4,0,5.2-.2,7.6.5,2.5,3.2,4.3,6.9,6.7,10.2,2-.3,3.8-1.8,5.8-2.5,1.1.2,1.9,1.3,3,1.8,1.9-.4,3.7-1.1,5.6-1.4.5.7,1,1.4,1.5,2.2,2.1.4,4.5.4,6.6.2-.6-1-1.2-1.9-1.7-3-.3-4.2.6-8.5.5-12.7-.8-2.3-2.7-4.5-3-6.9-.4-2.6-.6-5.3-.3-7.9,1.7.7,3.3,1.6,5,2.2,1.4.2,2.9-.5,4.4-.3,1.4,2.9,1.7,6.7,3.4,9.4,5.5.8,11.4,1.9,16.2,4.9,3.5-.7,7.1-1.8,10.5-2.8-.2-1.1-2.7-1.5-3.6-2.1-.5-1.7,1.6-4.4,2.4-6,5.8-3.6,11.7-3.6,17.8-5.3,2.6-2.3,7-4.9,7.1-8.7,1-5.1,1.3-10.4,2.7-15.4,5.2-3.1,10.7-3.8,16.6-4.5,5.4-2.4,9.7-5.9,15.8-6.9,0,1,.2,2,.4,3,3.1,0,4.5.2,6.9,2.1,3.2-1.1,5.7-3.3,9-4.1,2.5-.7,4.9-1.6,7.4-2.4,1,.7,1.8,1.5,2.8,2.2.9-.4,1.6-1,2.5-1.4.9,1.8,1.7,3.6,2.7,5.3,1.7.8,3.8-.1,5.6.5,1.8,1.1,3.6,2.4,5.1,3.9,0,2.3-2.3,4.7-3.1,7-.2,1.7,2.9,2.5,4.1,3.2,1-.3,1.9-.8,2.7-1.4-2.1,3.3,1.2,4.1,2.7,6.6,1.1,2.3,1.7,5,2.5,7.5-1,2.2-3.2,4-4.6,6,.8,2.2.9,4.7,2,6.7,1.6.8,3.2,1.6,4.6,2.6-1.1,2.9-1.9,5.9-3,8.7l.2.7c.9.1,1.7.4,2.4.8,1.1,2.5,2.4,4.9,3.5,7.3.9-.7,1.8-1.1,2.8-1.2,2.3,1,4.6,2.3,7,3,.7-.5,1.4-1,2.1-1.6,1.7.8,3,2.4,4.5,3.5,3.2,1.3,7.4,1.1,10.6,2.7-1.2,4.1-3.9,6.4-6.9,9.3-.8,2.5-1.1,5-1.4,7.5-1.2,2.5-2.3,5-3.6,7.4-.2,3-.5,5.8-1.1,8.7.5,1.6.8,3.2,1,4.9,2.8.7,6,.4,8.8.9,2.5-.5,5-1.1,7.6-1.3-.5-.7-1.7-1.4-1.5-2.3,1.1-.9,2-1.8,3-2.8,2.4.8,4.5,2.9,6.8,4,1.5-.2,3-.3,4.6-.5,2.9,1.6,5.5,3.5,8.1,5.5.6-.8,1.2-1.5,1.8-2.3,1.5.3,3,.5,4.6.6,2.6,1.3,4.5,4.2,7,5.5,1.6-1.5,1.1-4.7,2.7-6.2,2.1.4,4.1.6,6.3.7,1.4.9,2.7,2.2,4,3.3,1.9.1,3.8,0,5.7-.5,2.2-1.7,4.2-4,6.6-5.3,3.1-.2,6.1-.6,9.2-.7.5-.7.9-1.4,1.4-2.2,1.8.3,3.4.8,5.2,1.2,1.9.1,3.3-1.3,5.1-1.2.4,1.1.8,2.1,1.2,3.2,1.2.3,2.4.7,3.5,1.1.8-2.6-.7-6-.7-8.9-1.2-2.8-3.6-5.2-5.1-7.8,3.7-2.6,7.6-5,11.4-7.5,1.5-1.6,1.3-4.7,2.6-6.5,1.2.3,2.4,1.1,3.6,1,.3-2,.7-3.9,1.1-5.8-.7-1.7-2.5-3.3-3.8-4.7-.9.2-1.8.2-2.6,0-3-3-5.9-6-8.9-9-1.3-.4-2.6-.6-3.9-1-2.9-3.6-5.6-7.6-8.3-11.4.4-1.4,2.3-3.5,1.6-4.9-1.5-1.2-3.3-2.1-4.6-3.5-1-1.9-2.3-3.7-3.2-5.6,1.5.2,2.5,1.6,4,2.1,1.4-2,2.2-4.3,3.7-6.2,4.9-2.4,10.3-4.2,15.3-6.5,1.8-.7,2.4-2.8,4.1-4,1.3-.2,2.5-.4,3.8-.6-.9,1-2.6,1.1-3.8,1.5-1.6,1.3-2.3,3-4.2,3.7-4.9,2.2-10,3.9-14.8,6.3-1.9,2.3-2.2,5.7-5.3,6.6-.3,2.5,3.7,4.3,5.4,5.6,1,2.2-.7,3.6-1.3,5.6,2.6,3.3,4.8,6.9,7.5,10.1,1,1.2,3.2.9,4.4,1.9,2.9,2.8,5.6,5.7,8.5,8.5,1.6.3,2.7-.3,3.9,1.2,2.3,3,4.9,5.6,7.9,8,1.3.3,2.6.6,3.9.8,1.3-.2,2.1-1.6,3.2-2.3,1.4.2,3,.9,4.3.5.5-1.4.5-3.4,1.6-4.4,3.3-.5,1.6-4.9,2.9-7.2,8.9-.5,16,6,25,5.5.9-.8,1.8-1.5,2.8-2,3.4.9,6.8,0,9.1,3,1.3-1.8,1.9-4.1,2.9-6,2.1-1.1,6.1,1.3,8.2-.5,4-2.3,8.2-6.4,8.6-11.2,0-2.9,3.2-5.2,4.8-7.4,1.4-1.9,3.3-1.9,5.3-2.8.4-1.1-1.2-2.1-1.8-3-2-1.8-2.1-4.2-3.4-6.6-4.4-1.6-8.9-1.9-13.5-.5l.7-.9c2.1,0,4-1,6-.7,2.2.4,4.5.7,6.8,1.2,1.6,1.8,1.7,4.8,3.3,6.6,1.9,2.2,3.9,4.4,5.9,6.6,1.2-.2,2.4-.5,3.6-.8,1.5-1.8,2.5-4.7,4.3-6,1.7,1.1,2.5,3.3,4,4.6.9,0,1.8.1,2.7.2.6,1.3.3,3.1.5,4.5,1.7.1,4.1.7,5.6,0,1.2-1.9,2.3-3.9,3.4-5.8,2.2-.8,4.5-1.3,6.8-1.5,1.7.3,3.2,1.5,4.9,1.8,1.8-1.4,3.3-3.2,5-4.7,3.3-.1,6.7,0,10,0,1.9.9,3.2,3.2,5.1,4,4.7.8,9.5,2.3,14.2,2.6-.6-1.7-2.2-2.3-2.7-4-1-3.1-2.1-6.2-2.8-9.3,3-6.1,4.9-12,8.7-17.5,2.3-3.4,4.2-7.2,6.8-10.3,1.2-.4,2.7-.4,3.5-1.4.2-2,.4-3.9.8-5.9-.8-1.8-2.5-3-3.4-4.7.9-.6,1.5-1.3,1.9-2-3.7-3.7-7.3-7.5-10.8-11.5-1-3.6-2.1-7.2-3.3-10.7-.3-2.6-.2-5.3-.5-7.9,0-.7-.2-1.2-.9-1.6-2.6-1.2-5.3-2.3-8-3.5-.3-1.6,1.1-3.4,1.5-5,.9-4.4,7.4-5.9,8.2-10-.6-3.8-1.9-7.7-2.8-11.6-2.5-3.8-5.1-7.6-7.5-11.5-2.1-4.7-4-9.5-5.6-14.4-3.1-1.7-6.5-2.8-9.6-4.4-.8.4-1.7.8-2.5,1.3-1.7-4-3.5-8.2-.9-12.2-.3-3.5-3.4-4.9-5.9-6.8-3.2-.1-6.5,2.6-9.5,1.5-4.4-2.1-8.2-1.4-11.6-5.3-2.8-5.8-5.8-11.1-6.5-17.6-.2-3.4-3-5.5-2.8-9-.2-4.4-1-8.7-1.1-13-.4-3,3.3-5.3,3.8-8-.1-2.5-1.2-5.3-.4-7.7.7-2.2,1.4-4.4,2.4-6.5,1.9-1.8,4.4-3,6.6-4.5,1.8-1,3.6-2.6,5.6-3.1.8,1.2,1.4,2.6,2.3,3.7,2.3,1.8,5.1,2.9,7.4,4.6,1.5,1.9,2.1,4.5,3.7,6.3,2.3,1.2,4.9,2.2,7.4,2.7,3.8-1.5,6.4-6,8.1-9.5-1.1-5.1-3.1-10.1-4.3-15.2-.4-1.9,0-4,.2-5.9.5-3.1-.1-6.5-.8-9.6-3.1-1.5-3.5,2.6-5.1,4.3-1.9-.3-3.8-.8-5.5-1.6-3.1-2.7-4.3-6-4.9-9.9-.3-2.3-2.5-3-3.2-5-.6-2.5-1.1-5.2-.9-7.8,2.1-2,5.1-2.9,7.4-4.6,1.2-1.5,1.8-3.5,2.8-5.1,2.3-.5,4.4,0,6.4-1.6,6.5-5,15.4-6.2,23.2-7.9,1.8-.5,3.3.5,5.1.9,6-.3,12-2,17.9-1.8Z"/>
  <path class="st7" d="M611.4,385.6c1.8,1.4,5.1,3.2,6.2,5-2.8,1.1-4,2.3-5.7,4.8-1.8-1.8-5.3-3.9-3.4-6.8.7-.9,1.3-4.5,2.9-3Z"/>
  <path class="st7" d="M195.8,396.2c1,4.2-2.2,8.7-4.5,12.1-3.2,2-6.6,4.2-10.2,5.6.4-1.5,1.2-3,1.5-4.5-.7-.8-1.3-1.6-2-2.4.9-2.8,1-6.1,4.3-7,3.5-1.2,7.1-3.4,10.8-3.8Z"/>
  <path class="st7" d="M214.4,396.5c3.1,1,5.6,3.4,8.6,4.4,6.3.4,13.8-2,19.6.5-1.8,3.4-3.2,8.7-7,10.2-3.4,2-7,3.6-10.3,5.7-.3,1.6,2.2,3.1,1.6,4.6-1.7,2.1-4.8,3.6-6,6,4.4,1.1,7.1-1.7,11.1-2.1,7.3,1.5,14.2,4.2,21.8,4.6.9,1.9,1.7,4.1,1.8,6.3-1.3,1.6-3.2,2.9-4.3,4.7-1.9,3.5-3.3,7.3-5.3,10.7-1.6,2.3-3.5,4.5-5.4,6.7-1.4,1.6-4.7,1.6-5.8,3.4.5,1.7,1.9,3.1,2.8,4.7-1.2,1.5-4.2.9-5.8,2-1.4.9-2.6,2.1-4,3-1.6.3-3.2.3-4.8.4.9,1.3,3,1.8,4.3,2.4,2.1,1.1,4.4-1.8,6.6-1.6,2.8,1.5,6.1,3.4,8.8,5.3,1.8,2.4,2.5,5.5,4,8,.9,1.1,1.9,2,2.8,3.1.1,2.8-.5,5.6-.1,8.5.4,3.4,1.1,6.7,1.6,10.1.4,2.5.8,5.6,2.3,7.7,2.6,2.4,6.2,3.9,8.6,6.5,1,1.8,1.3,3.9,2.2,5.8,1.1,1.8,3,3.2,4,5-.5,1-1.7,1.9-1.8,3,.9,3.3,2.8,6.6,3.6,10-1.6-.2-3.2-.8-4.8-.9.9,3.1,4.4,5.2,5.7,8.1.4,3,.9,6.2.7,9.3-1.2,1.5-4.5,2.8-5.1,4.4,1.4,1.3,3,2.5,4.6,3.4,1.7-.6,2.8-2.8,4.2-3.9,3.8.2,7.7,1.4,11.4,2.2,2.1,1.4,4.1,3.2,5.9,5,.7,2.7,1.3,5.7,1.3,8.5-1.1,3.5-2.7,7.4-4.2,10.7-3.8,2.9-8.3,5-12.2,7.8-1.2,1.2,0,3.8-1.1,5-2,.7-4.2,1-6.1,1.8-1.3,2.6,3.1,3.2,4.7,4,3.1,1.7,6.8-.2,9.8.9-.4,2.3-.9,4.6-1.9,6.7-6.5,1.8-12.1,5-18.2,7.8-2.3,1.3-4.5-.6-6.7-1.3-3.7-2.2-8.7,0-12.9-.2-2.1.3-3.1-2.7-5-3.1-1.3,0-2.5.3-3.8.5.7,1.2,1.9,2.1,2.5,3.4-1.4.8-2.9,1.5-4.4,1.8-.9-1.1-1.7-2.3-2.7-3.3-2.6-1-5.6-1.4-8.3-1.8-.3,1.1-.5,2.2-.8,3.3-3.3-.7-6-2-9.5-1.7-1.8-1.2-3.2-3-5.1-4-3.6.3-7.3,1.1-10.8,2.2-1.5,3.3-1.9,6.4-5.2,8.7-3.8-1-7-4.3-10.9-5.1-4.1-.7-7.6-1.8-11.3.9-3,1.1-4.1,5-6.6,6.1-1.4-1.2-2.3-3-3.4-4.4-1.4-.3-3.1.4-4.5.5.1-1,.5-1.8,1.1-2.5,2.4-.3,4.5,0,6.5-1.6,5.8-4.1,11.5-6.5,15.9-12.1.9-1.6,1.2-3.6,1.8-5.3,1.1,0,2.2.2,3.4.3,1.7-1.5,2.8-4,4.6-5.1,3.3,0,6.5,0,9.4,1.7,2.8,1.5,5.8,2.2,8.9,1.6,2.4-2.6,5.1-5.8,7.1-8.7-3.4-.4-6.4.9-8.8,3.2-1.7-.1-3.6-.3-5.2-1-2.5-1.9-3.3-6.6-6.4-7.7-3.2-1.4-6.5-2.9-9.8-4.2-2.3-1.4-5.2,2.4-7.4,1.5-1.3-1.1-2.5-2.5-3.4-3.9.4-1,.8-2,1.2-3-.3-.9-.6-1.9-.8-2.8,1-.7,2.1-1.3,3.2-1.8,2.2,0,4,1.1,6.1,0,3-1.3,6.1-2.6,9-4,1.5-.6,1.9-2,2.8-3.3,2.6-4,3.1-9.4,2.7-14-2.3-.5-4.1-.9-6,.8-1.5,1.3-2.3.8-3.8,0-.1-1.5,3.3-2.6,4.3-3.5,4.2-2.2,5.2-6.6,9.7-7.1,4.5-.5,10.3-1.6,13.8,1.8,1.9-2.1.9-6.6,3.4-8.8,2.4-2.2,1.6-4.4,1.8-7.3,0-2.4,2.9-4.5,2.9-6.9-1.8-.4-4.2.6-5.7-.2-1.5-3.8-3.2-7.8-4-11.7,1.4-2.8,3.1-5.4,4.8-8.1.8-1.6,2.2-1.7,3.6-2.5-.2-1.1-3.6-1.4-4.5-1.6-1.1.6-1.6,2-2.7,2.4-2.3.6-4.9,1.1-7.3,1.3-1.6-.3-2.6-2.1-4.2-2.5-.2,1.2-.3,2.3-.4,3.5-2.4-1.5-4.5-3.6-6.8-5.2-1,.1-1.5,2.1-2.6,2.3-.7-.9-2-2.4-1.7-3.6.7-2.1,1.7-4.1,2.7-6.1,2-3.8,6.3-6.3,8.2-10-.6-2.2-2.1-4.2-2.9-6.2-.3-1.5-.3-3.1-.6-4.6-1.6-1.9-3.6-3.4-5.6-4.9-.2,2.2.4,4.6-.2,6.7-1.9,3.4-4.1,6.7-6.2,9.9-.6,1.4-2.9,2.3-2.7.1,1.4-4.7,3.5-9,4-14,.4-3.4,4.3-5.6,4-9-.1-4.1,5.1-7.2,5.8-11-2.2,0-4.2,2-6.5,2.3.4,1.9.6,2.7-.9,4.2-2.1.4-4.3.5-6.5.3.6-3.2,1.2-5.4,0-8.7.8-.1,1.7-.3,2.5-.4-.2-.8-.4-1.6-.6-2.4,2.9-.5,4.9-1.1,6.8-3.5.1-1.3.2-2.5.3-3.8.8-1.7,2.4-3.1,2.8-4.9-1.4.8-2.5,2.2-3.9,2.7-.4-.9-.9-1.8-1.4-2.7-1.2-.6-2.6-.5-3.9-.9-1.9-2.8-.7-6.1-4.3-7.7.6-1.4,1.2-3.6,2.5-4.5.6.5,1.2,1,1.9,1.5.9-1.1,1.7-2.2,2.6-3.2,1.5-.8,1.5,1.3,2,2.2.7,2.6-1,5.7-.2,8.1,1.7,1.1,3.5,2,5.6,2.3-.4-1-1.5-2.3-1.3-3.4.8-4.1,1.6-8.2,2.8-12.1,1.3.1,3.2,1.1,4.3.2,2.7-1.4,3.7-3.8,4.7-6.4.4-1.2-.6-2.7,0-3.9,3.7-2.1,4.9-5.5,7.1-8.9Z"/>
  <path class="st7" d="M617,397c2.2.1,4.6,1.5,6.6,2.4,0,.7,0,1.2-.5,1.6-1.7,2-3.4,4-5.2,5.8-1.7,1.7-4.9,1.7-6.5,3.4-.3,1.8-.4,3.7-.7,5.5-.8.5-1.6.6-2.4.2.4-1.3.9-2.5,1.3-3.8-.8-1.6-4.1-1.6-4.7-3.3.9-2.8,1.8-6.1,3.6-8.4,2.8-1.2,5.7-2.4,8.6-3.5Z"/>
  <path class="st7" d="M173.6,423.3c1.3,2.7.3,4.9-1,7.4-.8-1.3-1.8-2.8-2.1-4.4.7-1,1.5-3.9,3.1-3Z"/>
  <path class="st7" d="M565.7,428.3c-.9,1.3-2,2.5-2.9,3.8-.6,3.6-.5,5.5,2.1,8.1-.8,3-4.4,5.2-5.7,8-.7,2-.9,4.4-1.8,6.3-.6.3-1.2.4-1.9.3,0-2.1,1.2-5.1-.4-6.8-2.7-3.2-2.7-9-.7-12.5.9-1.7,1.5-3.8,2.8-5.3,2.6-1.6,5.5-2,8.5-1.9Z"/>
  <path class="st1" d="M438.7,442.2c.2,4.2.9,8.5,1.1,12.7-.9,3.1-2.7,6-3.7,9.1,0,3.2.9,6.4,1.4,9.6,2,.6,4.2.5,6.2.8,1.3,1.4,1.9,3.7,2.3,5.5-1.4,2-3.7,5.2-5.9,6.1-.7-1-1.4-2-2.2-3-3.4.7-1.6,6.3-2,8.8-1.4.9-3.2,1.5-4.7,2.3,0,1.2.4,2.5.6,3.7-1.5,2.9-4.5,5.2-5.7,8.2.5,1.6,1.2,3.1,1.6,4.6-.8.9-1.8,1.6-2.6,2.5.2,1.7,2.2,3.3,2.9,4.9-.8,2-3.1,3.4-4.3,5.2-3.2,0-6.4-1.2-9.5-1.6-1-.3-2-.5-2.9-.7.2-5.2.5-10.1-.9-15.2-2.4-2.5-4.3-4.3-8-4,.7-4,1.3-6.9,4.3-9.9-.8-2-3.3-3.5-3.9-5.7,0-3.9,0-8,.4-11.8,3.6-1.4,6.1,1.8,9.3,1.4.6-2.1,1.6-4.4,1.6-6.6-.9.3-1.9.5-2.8.8-.1-1.3-.2-2.6-.4-3.8-1.7.5-1.8,4.5-2.1,5.9-1.4-.9-2.8-2.5-3.6-4,1.4-3,3.2-5.9,5-8.7,4-1.3,8.6-.9,12.6-2.3,3.2-3.6,5.3-8.1,8.5-11.6,2.2-1.1,4.9-2.9,7.4-3Z"/>
  <path class="st7" d="M537.9,446.1c.7,2.8-.2,5.2-.8,7.9-1.8,7.2-3.3,14.6-5.3,21.7h-.5c-1.7-6.1-.7-12.4,2.6-17.9,1.4-3.3,1.4-7.1,2.5-10.5.3-.8.8-1.2,1.5-1.2Z"/>
  <path class="st5" d="M446.3,453.3l1.7-.4c1.9.3,0,2.4-1.1,2.5-1.8,0-2.4-1.2-.6-2Z"/>
  <path class="st9" d="M424.3,460.4l1.8-.6c2.4.5.6,2.9-1.1,2.5-1.1-.5-1.3-1.1-.7-1.8Z"/>
  <path class="st9" d="M419.7,461.3c1,.2,2,0,3.1,0-.9,1.4-2.7,2.3-3.6,3.8,0,2.2,1.7,4.9.9,6.9-3.5,1.5-1.9-2-2.3-3.9-1-.1-1.9-.2-2.9-.3,0-1.2-.1-2.5-.1-3.8-1,0-1.9,0-2.9-.1l.2-.8c2.3-1,5-2.6,7.5-1.9Z"/>
  <path class="st7" d="M188.8,462.3c-.5,2.8-2.3,5.2-4.1,7.3-1.9,1.2-1.5-1.4-1.6-2.5,1.7-1.8,3.7-3.3,5.7-4.8Z"/>
  <path class="st7" d="M181.8,467.1c.2,2.2.3,4.5,0,6.7-1.3.6-3,1.5-4.4,1.1,0-.9,0-1.7.1-2.5-.7-.3-1.5-.5-2.2-.8.4-1,.8-2.1,1.4-3,.7-1.9,3.6-1.6,5.2-1.5Z"/>
  <path class="st7" d="M193.7,476.2c.8,2.2,1.1,4.3,1,6.6-1.2,0-2.2-.5-3.2-1.1.4-1.9,1.2-3.8,2.2-5.5Z"/>
  <path class="st5" d="M160,478c1.7,1,4.1,3,4.8,4.8-1.6,1.3-3.4,2.3-5.2,3.3-4.3.9-4.6,4.3-7.2,7.3-1.5.7-4,.6-5.1,1.6,0,.6,0,1.2,0,1.8-1.4,1.4-4.2,1.5-6,2.4.8,2.8,1.8,5.7,3.1,8.4,2.2,1.8,5,3.1,7.6,4.2,2.4-.9,3.8-4.4,6-5.9,2.9,2.2,5.4,7,5.2,10.8,1.5.1,3,0,4.5,0-.9,4.7-1.6,10.6.8,15-1,4.5-1.9,8.7-1.7,13.3.6,5.1-4.6,7.5-5.7,12-.4,3.1-3.8,4.9-5.7,7.4,0,1.2.1,2.3.2,3.5-2.5.2-4.1-1.9-6.6-1.1-3.8.9-7.1-.3-10.9-.6-1.3.5-2.3,1.7-3.4,2.5-1.4.5-3.1.3-4.6.6-2.2,1-3.4,2.8-6.1,2.5-4-.3-6.2,3-10,3.1-4.1,0-8.3.9-12.5.8-.3-.8-.6-1.5-.9-2.3-1.8-.4-3.7-.3-5.6-.5.8-1.2,3.7-1.5,3.8-2.8-2-1.2-5.5,0-7.7-1.1-1.6-2.1,1.9-2.4,2.8-3.6-1.2-.2-2.3-.5-3.4-.8-.2-1.9-1.1-5.2,0-6.8,2.2-.8,5.5-.8,7.3-2.3-3.3-.5-6.6-.8-9.8-1.6,1.4-1.5,3.3-2.5,5.2-3.4,1.8-.3,3.6,1.8,5.5,1.6.2-1.5,0-3.2.6-4.6,2.8-2,5.3-2.4,8.7-2.4-.2-1.7-3.6-1.6-4.8-2.1,1.7-1.8,4.5-1.5,5.5-4.1,1.3-3,2.9-5.5,5.6-7.5,1.6-.3,3.2.2,4.8-.1.4-.9.3-1.8-.2-2.8-2.5-.4-5-.4-7.4-.7-.7-1.3-1.2-2.8-1.9-4.2-1.3-.4-2.7-.5-4-.8-.8-2-1.6-4.2-2.1-6.4,1.3-.7,2.7-1.2,4-1.8.6-1,1-2.2,1.8-3.1,1.5,0,3,.2,4.5.3.5-.9.6-1.7.2-2.4-1.3-.2-2.6-.4-3.8-.5,1.2-3.3.9-6.2.8-9.6.4-1,2-2.5,3-2.6,3.7,1.1,7.2,3.6,11,4.4,2.6.5,5.3,1.1,7.9,1.5.7-.6,1.3-1.5,1.9-2.6,3.4-.8,5.5-1.5,7.4-4.6-.2-1.4-3.2-.9-4.2-1.2-2.2-.2-5-.5-4.7-3.5,2.1-.9,4.4-1.4,6.4-2.5.3-1.4.3-3,.8-4.4,2.3-2.5,4.4-4.1,8-3.9.6.7,1.2,1.4,1.8,2.1,1.4.2,3-2.2,4.4-1.6.3,1.2.3,2.8.9,3.9.8-3.2.7-5,4.3-5.9Z"/>
  <path class="st7" d="M165.1,484.2c4.6-.6,8.6-.4,12.5,2.1.4,3.2.7,5.9,2.1,8.8,1.2,2.2.6,4.4,1.2,6.7.9.8,2.2,1.3,2.8,2.3.2,1.3.2,2.5.1,3.8-.9-.6-1.9-1.2-2.8-1.9-.4,2.5-.3,5.4-1.2,7.8-1.2.1-2.5.3-3.7.5-1.5,1.2-2.6,3-4.2,4-1.1-.6-2.2-1.3-3.3-1.8l-1,.2c-1.5.2-3,.2-4.5,0,.2-3.8-2.3-8.6-5.2-10.8-2.2,1.5-3.6,5-6,5.9-2.6-1.1-5.4-2.4-7.6-4.2-1.3-2.6-2.3-5.5-3.1-8.4,1.8-1,4.6-1,6-2.4,0-.6,0-1.2,0-1.8,1.1-1.1,3.6-1,5.1-1.6,2.6-2.9,2.8-6.4,7.2-7.3.7.5,1.5.9,2.4,1.1,1.2-.9,2.1-2,3.2-3Z"/>
  <path class="st1" d="M468.2,485.2c1.6,0,3.3,1.3,4.6,2-.3,1.3-.7,2.5-1,3.8.3,1.7.9,3.3,1.2,5-.6,2.6-5.5,4-5.2,7-.4,1.9,2.4,3.4,3.3,5-.6,1.2-2.6,1.6-3.7,2.4-.3,2.1-.1,4.3-.6,6.3-.9.4-1.9.9-2.8,1.3.2,1.4,2.4,1.9,3.1,3.1-.4,1.4-1.4,2.6-2.3,3.7-.9-.3-1.6-1-2.4-1.5-.7,1.3-.4,3.5-2.4,3.6-1.7.2-3.3,1-4.8,0-2-1.2-4.7-2.2-6.2-4-1.1-3.5,3.2-5.1,5.7-3.5,1.9.7,4.1,2.5,6.1,2.5.5-1.6,1.1-3.1,1.7-4.6-1.1-1.8-2.3-3.6-3.7-5.1-2-.6-4.7-.3-6.5-1.4-1.1-4.1-2.4-8.3-2.9-12.5,2.7-2.4,5.5-5.4,8.5-7.2,1,1.8,1.6,3.7,2.4,5.6h.6c1.2-1.4,2-3.8,2.4-5.7-.4-.6-.8-1.3-1.2-1.9,1.9-1.4,3.9-2.8,6-3.9Z"/>
  <path class="st1" d="M437.9,500.8c1.1.7,2.1,1.5,3.1,2.1.6-.3,1.1-.8,1.6-1.6.8,2.6,2.3,5,2.9,7.6-.4,1.9-.3,5.1-1.8,6.5-2.5,0-5.1-.2-7.5-.7-2.2-1.6-6.2-3.6-5.6-6.8.1-1.4-.4-3.6.6-4.7,2.1-.9,4.4-2.4,6.7-2.5Z"/>
  <path class="st1" d="M508.1,506.1c2,.9,3.9,1.9,5.6,3.2.8,1.1,0,3,0,4.3-1.9-.6-4.8-1.1-6.1-2.6,0-1.6.1-3.3.5-4.9Z"/>
  <path class="st6" d="M566,512.5c.8.4,1.5.9,1.9,1.5,1.3,2.8,2.4,5.7,3.6,8.5.7,1,2.2,1.8,3.4,1.8,3.6.2,7.3.5,10.9.7,1.5-1.5,3-3,4.6-4.5,4.4-.8,9-1,13.5-1.5,9.4-.9,18.7-2.4,28-3.8,2.1-.3,4.2-.8,6.3-.7.8-.5,1.6-1,2.5-1.3,3.1,1.6,6.6,2.7,9.6,4.4,1.6,4.9,3.6,9.6,5.6,14.4,2.4,3.9,5,7.7,7.5,11.5.9,3.8,2.2,7.7,2.8,11.6-.9,4.1-7.4,5.6-8.2,10-.4,1.6-1.8,3.4-1.5,5,2.7,1.1,5.3,2.3,8,3.5.7.4,1,.9.9,1.6.3,2.6.2,5.3.5,7.9,1.2,3.6,2.3,7.1,3.3,10.7,3.5,3.9,7.1,7.7,10.8,11.5-.3.7-.9,1.4-1.9,2,.9,1.7,2.5,3,3.4,4.7-.4,2-.6,3.9-.8,5.9-.9.9-2.4,1-3.5,1.4-2.6,3.1-4.5,7-6.8,10.3-3.8,5.5-5.7,11.5-8.7,17.5.7,3.1,1.8,6.2,2.8,9.3.5,1.7,2.1,2.4,2.7,4-4.7-.3-9.5-1.8-14.2-2.6-1.9-.8-3.2-3.1-5.1-4-3.3,0-6.7-.2-10,0-1.7,1.5-3.2,3.3-5,4.7-1.8-.3-3.2-1.4-4.9-1.8-2.3.2-4.6.7-6.8,1.5-1.1,1.9-2.2,3.9-3.4,5.8-1.6.7-3.9,0-5.6,0-.2-1.4.2-3.2-.5-4.5-.9,0-1.8-.1-2.7-.2-1.6-1.3-2.4-3.5-4-4.6-1.8,1.3-2.9,4.2-4.3,6-1.2.4-2.4.6-3.6.8-2-2.1-4-4.3-5.9-6.6-1.6-1.8-1.7-4.8-3.3-6.6-2.2-.5-4.5-.7-6.8-1.2-2-.4-3.9.6-6,.7-.6-.5-1.2-.9-1.8-1.3-2.4-.8-3.6-3.5-.6-4.2-2.5-.6-5-1-7.5-1.3-1.2-.7-2-1.9-3.2-2.6-2-.4-3.9.3-6,0,.9,1.5,1.7,3.1,2.1,4.7-1.1,1.5-2.5,2.9-3.9,4.1-3-2.4-5.8-4.9-8.9-7.2l-.4-.9c.7-1.1,2.2-1.8,2.7-3-.3-1.2-.7-2.2-1.3-3.3-3.3-1.1-7.6.8-10.3-1.7-2.1-.9-5.1,0-7.3-1.2l-.5-1.1-.4-.8-.5-.9-.9-1.5c-1.5-.7-3.2-1-4.8-1.3l-.8-.4c0-3.6,1.5-6.4-.1-9.9-.6-2.2-2.7-2.2-4.4-3.3-1.2-2.5-2.2-5.1-3.2-7.7.8-2.6,2.1-5.2,2.3-7.9-1.4-3.1-2.9-6.1-4.4-9.1.4-1.5,1.2-3,1.4-4.5-2.6-2.4-5.9-4.2-8.5-6.5-.5-1.4,1-3.1,1.6-4.3,2.2-3.5,1.1-6.8,1.2-10.5l-.8.6c-.2-.4-.3-.8-.4-1.3.8-2.5-1.3-6-1.5-8.6,1.9.2,3.6.6,5.4,1,.3-1.6-.8-3.5-.9-5.3-1.6-1.1-4.4,0-6.4-1.1v-1c.9,0,1.9.1,3,0,6.5-4.7,13.9-7,21.1-10.4,2.5-1.3,5.1-1.5,7.8-2.2,1.8-2.6,3.2-5.6,4.8-8.2,2-1.4,5-1.4,6.9-3,1.8-1.2,3.4-2.9,5.3-3.8,5-1.5,10-3,15-4.4Z"/>
  <path class="st7" d="M198,515.1c.9.2,2.9,1.7,2.7,2.7-1.9,1.6-4.6,5-7.4,3.8,0-2.1,3.1-5.2,4.7-6.5Z"/>
  <path class="st5" d="M447,515.1c0,2.9-1.4,5.9-2.2,8.7-.8-.1-1.4-.7-1.8-1.9,1-2.1,2.1-5.5,4-6.8Z"/>
  <path class="st5" d="M429.1,516c1-.4,3.7,1.8,3.6,2.8-1.1.5-2.4,1.3-3.6,1.1-.3-1.2-.3-2.5,0-3.9Z"/>
  <path class="st5" d="M469.2,516.1c.5-.6,3.7-.5,3.4.6-1.1.6-3,1.9-4.2,1.2-.2-.6,0-1.2.9-1.8Z"/>
  <path class="st12" d="M411.2,520.8c1,.2,2,.5,2.9.7,3.2.5,6.3,1.6,9.5,1.6,2.8,0,5.5.7,8.2.9,1.4,3,2.2,7.5,3.2,10.8.9-.6,1.8-1.2,2.7-1.8,2.4,1.1,4.8,2,7.2,3.1,1.7.4,3.6-.8,5.4-.8,0,1.5,0,3,0,4.5-1.6,1.4-3.4,2.6-5,4,.8,1.1,1.7,1.8,2.7,2.1,1.4-.5,2.7-1.1,4.1-1.6,1.7.6,3.1,2,4.9,2.6,1.5-1.8,1.8-5,3.5-6.5,2.3-.4,4.6-.7,6.9-1.2,2-2.8,4-5.5,5.9-8.4,1.9,0,3.9.2,5.8.2-1.8,1-4,1.3-5.9,2.3,1.8,0,3.7.2,5.7.4.9-.6,1.8-2.3,3-2.1.7,1.4,1.1,3.2,2.1,4.3,2,1.2,3.9,2.5,6,3.6,1-.5,2.1-.9,3.1-1.3,1.3,1.2,2.4,5.2,4.2,5.1l.3-2.4c1.5,1,3.3,1.9,4.4,3.4v1c-1.1,1.1-2.7,1-4.3,1.5,1,1.8,4.2,2.3,5.8,3.8.6,2.9,1.4,5.7,2,8.7.1.4.3.8.4,1.3.9,3.7.7,8.2-1.8,11.3-.9,1.3-.9,1.9-.6,3.5,2.8,2,5.8,4,8.5,6.3-.5,1.4-1.1,2.8-1.4,4.2,1.2,3.1,3,6,4.3,9.1,0,2.7-2,5.6-2.1,8.3.9,2.6,2,5.2,3.1,7.7,1.2.8,3,.9,3.8,2,1.2,2.2,1.6,4.6,1,7,0,.8-1,3.5.1,3.7l.8.4c-.8,2.4,1.3,3.8-2,4.8,0-1.3,0-2.8.4-4.2-1.4.4-1,2.7-1.3,3.8-3.1,1.5-3.4.2-4.1-2.5-1.7-.9-3.9-.9-5.7-1.3,1,1.1,1.6,2.2,1.8,3.2-2.7,1.8-5.3,3.6-8,5.4l-.6.4c-1.3.2-2.5.4-3.8.6-1.7,1.2-2.3,3.2-4.1,4-5,2.2-10.4,4.1-15.3,6.5-1.5,2-2.3,4.3-3.7,6.2-1.5-.5-2.5-1.8-4-2.1.9,1.9,2.2,3.7,3.2,5.6,1.3,1.4,3.1,2.3,4.6,3.5.7,1.4-1.2,3.5-1.6,4.9,2.6,3.8,5.4,7.8,8.3,11.4,1.3.4,2.6.6,3.9,1,3,3,5.9,6,8.9,9,.8.1,1.7,0,2.6,0,1.3,1.3,3.1,3,3.8,4.7-.4,1.9-.9,3.9-1.1,5.8-1.2.2-2.5-.7-3.6-1-1.3,1.8-1.1,4.9-2.6,6.5-3.8,2.5-7.7,4.9-11.4,7.5,1.5,2.6,4,5,5.1,7.8,0,2.8,1.6,6.2.7,8.9-1.2-.4-2.3-.7-3.5-1.1-.4-1-.9-2.1-1.2-3.2-1.8,0-3.2,1.3-5.1,1.2-1.7-.4-3.4-.9-5.2-1.2-.5.7-.9,1.5-1.4,2.2-3.1.1-6.1.6-9.2.7-2.4,1.4-4.5,3.6-6.6,5.3-1.9.5-3.7.6-5.7.5-1.3-1.1-2.6-2.4-4-3.3-2.1-.1-4.2-.4-6.3-.7-1.6,1.5-1.1,4.8-2.7,6.2-2.6-1.3-4.4-4.2-7-5.5-1.5-.1-3.1-.3-4.6-.6-2.7-1.1-5.2-2.5-7.7-3.9-.8-.9-1.6-.7-2.2.7-1.5.2-3,.4-4.6.5-2.3-1.1-4.4-3.2-6.8-4-1,1-1.9,1.9-3,2.8-.1.9,1.1,1.6,1.5,2.3-2.6.2-5.1.8-7.6,1.3-2.9-.5-6.1-.2-8.8-.9-.2-1.7-.5-3.3-1-4.9.7-2.9.9-5.7,1.1-8.7,1.2-2.4,2.4-4.9,3.6-7.4.3-2.6.7-5,1.4-7.5,3-2.9,5.7-5.2,6.9-9.3-3.1-1.6-7.3-1.4-10.6-2.7-1.6-1-2.9-2.7-4.5-3.5-.7.5-1.4,1-2.1,1.6-2.4-.7-4.8-1.9-7-3-.9.1-1.9.5-2.8,1.2-1.1-2.5-2.4-4.9-3.5-7.3-.7-.4-1.5-.6-2.4-.8l-.2-.7c1.2-2.9,1.9-5.8,3-8.7-1.5-1-3.1-1.8-4.6-2.6-1.1-2-1.2-4.5-2-6.7,1.4-2,3.7-3.8,4.6-6-.8-2.5-1.4-5.1-2.5-7.5-1.6-2.5-4.9-3.3-2.7-6.6,1.5-2.6-1.2-3.4-1.7-5.6,1.4-1.1,4.3-2.1,4-4.3,0-3.1,1.2-5.9,1.1-9-1.2-2.6-3.1-5.3-3.8-8,4.8.5,8.6-.2,13-2,0-1.2,0-2.6-.4-4,1.7-1.9,4.1-3.4,5.9-5.2.5-1.9-.1-4.3-.4-6.3-1.1-1.1-3.2-.5-4.5-1.5,0-1,0-1.9,0-2.9,1.9-.4,4.1-.3,5.8-1.2,1.7-5.6,3.4-10.7,3-16.6-.7-.7-1.3-1.4-2-2-.5-.6-.9-1.3-1.2-2.1,1.4-2.5,2.3-5.2,3.7-7.7,4-.4,7.9-.8,11.9-1.3,1.4,2.9,2.7,5.8,4,8.8,2.7-4,5.3-7.7,6.3-12.5,2.2-.2,4.5-.4,6.8-.6.6-1-1.9-2.7-2.3-3.9.6-.8,1.5-1.4,2.8-2-.8-1.1-2.9-1.6-3.2-2.9l1-2.8c-1.2.2-2.5.4-3.6.7-.1-1.1-.3-2.1-.4-3.2,1.7-1.4,4.8-2,6.1-3.6-2.6-3.5-6-5.5-5.4-10.4Z"/>
  <path class="st12" d="M487.4,525.3c1.4.4,2.9.9,4.3,1.5-.3,1.1-.6,2.1-.9,3.2.7,1.1,2,1.8,2.4,3-.8.6-1.9.8-3.3.7-.5,1-.9,2.2-1.1,3.3-1.6-.8-3.1-1.6-4.7-2.3,0-.8.6-1.6,1.6-2.3-.7-1.3-1.3-2.7-1.7-4.2,1.1-1,2.3-2,3.4-3Z"/>
  <path class="st7" d="M192.3,541.3c2.6-.2,5.4.3,5.3,3.5-.5,1.2-2,3.9-3.4,3.9-1.9-2.5-3.1-4.2-1.9-7.4Z"/>
  <path class="st9" d="M116.7,543.2c-.3.8-.7,1.6-1.1,2.3-1.4,0-2.9,0-4.3,0,1.7-1.3,3.2-2.6,5.4-2.4Z"/>
  <path class="st1" d="M496.1,545.3c1-.2,1.2.4.7,1.7-1.1.2-1.3-.4-.7-1.7Z"/>
  <path class="st9" d="M502.1,545.5c2,1.1,4.8,0,6.4,1.1,0,1.8,1.2,3.6.9,5.3-1.8-.4-3.6-.9-5.4-1,.2,2.6,2.3,6.1,1.5,8.6-.5-2.9-1.4-5.8-2-8.7-1.5-1.6-4.7-2-5.8-3.8,1.6-.4,3.1-.4,4.4-1.5Z"/>
  <path class="st1" d="M378.9,560c2.2,1.3,3.6,3.4,5.9,4.2.7.7,1.3,1.4,2,2,.4,5.9-1.3,11.1-3,16.6-1.7.9-3.9.8-5.8,1.2,0,1,0,1.9,0,2.9,1.3,1,3.4.4,4.5,1.5.3,2,.9,4.4.4,6.3-1.8,1.9-4.1,3.3-5.9,5.2.3,1.4.5,2.7.4,4-4.4,1.8-8.3,2.4-13,2,.7,2.7,2.6,5.4,3.8,8,0,3.1-1.1,5.9-1.1,9,.3,2.2-2.6,3.1-4,4.3.5,2.2,3.2,3,1.7,5.6-.9.6-1.8,1-2.7,1.4-1.2-.6-4.3-1.4-4.1-3.2.8-2.2,3-4.6,3.1-7-1.5-1.5-3.2-2.8-5.1-3.9-1.8-.6-3.9.2-5.6-.5-1-1.7-1.8-3.5-2.7-5.3-.9.4-1.6,1-2.5,1.4-1-.7-1.8-1.6-2.8-2.2-2.5.7-4.9,1.7-7.4,2.4-3.2.8-5.8,3-9,4.1-2.5-1.8-3.9-2.1-6.9-2.1-.2-1-.4-2-.4-3,1.4-.3,2.4-1.1,3.8-.4,3.2,1.3,5.9,2.5,9.4,1.5-.3-1.1-2-1.4-2.9-1.8-1,.4-1.9.6-2.9.8-1.6-1.3-4.5-2.8-5.1-4.8,1.9-.4,3.9-1.2,5.9-1.2,1.7,1.3,2.9,3.1,4.4,4.6,1,.4,1.6-.5,2.2-1.2-1.2-.8-2.5-1.5-3.6-2.5.5-1.1,1.4-2,2-3-.5-1.2-1.9-2.4-1.8-3.7,3.2-5,7.2-8.9,9.6-14.4,2.9-5.1,3.1-10.7,5.2-16,1,0,2,.4,3,1,1.9-.8,3.9-2.8,5.9-2.9-.4,1.4-2.3,1.8-3,3.1.4,2.1,2.1,3.9,3,5.9-.7,1.4-3.3,1.5-4.3,2.8-.3,2.3-.8,4.8-.4,7,1.5.9,3.1,1.5,4.8,2-.8-1.1-2-1.8-2.8-2.8.9-1.5,3.1-2.3,4.5-3.4,2.4-1.2,3.6-3.6,6.4-1.6.5,1.2.3,2.5.6,3.7,0-1.4,0-2.8-.2-4.2-1-.7-2.1-1.2-3.2-1.8-.6-1.5.4-3.6.4-5.3-1.2-.2-2.4-.4-3.6-.6-.2-2.2-.5-4.3-.6-6.5,1.4-1.9,2.7-3.9,4.2-5.7,2.9-1.3,6-2.7,9.2-2.8,3.3-.2,6.7-1.1,9.9-.9Z"/>
  <path class="st9" d="M506.6,560.2c-.1,3.8.9,7.1-1.2,10.5-.6,1.2-2.1,2.9-1.6,4.3,2.6,2.4,5.9,4.1,8.5,6.5-.1,1.5-1,3-1.4,4.5,1.5,3,3.1,6.1,4.4,9.1-.3,2.7-1.5,5.3-2.3,7.9,1,2.6,2,5.2,3.2,7.7,1.7,1,3.8,1.1,4.4,3.3,1.7,3.5.2,6.3.1,9.9-1.1-.2-.1-2.9-.1-3.7.6-2.5.2-4.8-1-7-.8-1.1-2.6-1.3-3.8-2-1.1-2.5-2.2-5.1-3.1-7.7.1-2.7,2.1-5.6,2.1-8.3-1.3-3.1-3.1-6-4.3-9.1.2-1.5.9-2.9,1.4-4.2-2.6-2.3-5.6-4.2-8.5-6.3-.4-1.6-.4-2.1.6-3.5,2.4-3.1,2.7-7.6,1.8-11.3l.8-.6Z"/>
  <path class="st1" d="M326.2,606.2c1.1-.5,3.5-.4,3.9,1,.3,2.6-4.4.4-3.9-1Z"/>
  <path class="st5" d="M521.6,624.3c1.6.3,3.3.5,4.8,1.3l.9,1.5c-1.4-.6-3.7-2.8-5.1-1.3.1.9.2,1.9.2,2.8-1.2,1.5-5.2,1.3-7,1.1-1.3-2.1-1-4-4.2-3.7,0,.9.4,2.1-.4,2.8-2.2,1.6-4.6,3.1-6.8,4.7h-1.3c2.7-1.7,5.4-3.5,8-5.3-.2-1-.8-2-1.8-3.2,1.8.4,4.1.4,5.7,1.3.6,2.7,1,4,4.1,2.5.3-1.1,0-3.5,1.3-3.8-.3,1.5-.5,2.9-.4,4.2,3.3-1,1.2-2.3,2-4.8Z"/>
  <path class="st0" d="M511.2,626c3.1-.3,2.9,1.6,4.2,3.7,1.8.2,5.8.4,7-1.1,0-.9-.1-1.9-.2-2.8,1.4-1.5,3.7.7,5.1,1.3l.5.9-.6.4.3.6.7-.2.5,1.1-.4.7c2.4.4,4.6.7,7,.5,3.3,3.2,6.8.9,10.5,2.2.8,1,1.2,2,1.4,3.1-.6,1-3.2,2.1-2.5,3.5,3.1,2.5,6.3,5.1,9.4,7.7,1.6-.9,2.9-2.7,4.3-4,.7-2-2-2.9-.9-4.8,2.5.3,4.5-.6,6.3,1.7,1.5,1.9,4.1,1.3,6.2,1.8.6,2,.6,4.5,3.3,4.4.6.4,1.2.8,1.8,1.3l-.7.9c4.5-1.4,9-1.1,13.5.5,1.2,2.4,1.3,4.8,3.4,6.6.6.8,2.2,1.8,1.8,3-2,.9-4,.9-5.3,2.8-1.7,2.2-4.9,4.5-4.8,7.4-.4,4.8-4.7,8.9-8.6,11.2-2.1,1.8-6.1-.6-8.2.5-1,1.9-1.6,4.2-2.9,6-2.3-2.9-5.7-2.1-9.1-3-1,.5-1.9,1.1-2.8,2-9.1.4-16.1-6-25-5.5-1.3,2.3.5,6.7-2.9,7.2-1,1.1-1.1,3.1-1.6,4.4-1.4.4-3-.3-4.3-.5-1.1.7-1.9,2.1-3.2,2.3-1.3-.2-2.6-.4-3.9-.8-3-2.3-5.6-5-7.9-8-1.2-1.5-2.3-.9-3.9-1.2-2.9-2.8-5.6-5.8-8.5-8.5-1.2-1-3.4-.7-4.4-1.9-2.6-3.2-4.8-6.9-7.5-10.1.7-2,2.4-3.4,1.3-5.6-1.7-1.3-5.6-3.1-5.4-5.6,3.1-.9,3.4-4.3,5.3-6.6,4.8-2.3,10-4,14.8-6.3,1.9-.8,2.6-2.4,4.2-3.7,1.2-.4,2.9-.5,3.8-1.5l.6-.4h1.3c2.2-1.6,4.6-3,6.8-4.7.8-.7.3-1.9.4-2.8Z"/>
  <path class="st1" d="M527.1,628.4l.6-.4.4.8-.7.2-.3-.6Z"/>
  <path class="st9" d="M528.2,630.5l.4-.7c2.2,1.2,5.1.3,7.3,1.2,2.7,2.5,7,.5,10.3,1.7.6,1,1,2.1,1.3,3.3-.4,1.2-2,1.9-2.7,3l.4.9c3,2.3,5.9,4.8,8.9,7.2,1.4-1.2,2.8-2.6,3.9-4.1-.5-1.7-1.3-3.2-2.1-4.7,2,.3,4-.3,6,0,1.2.7,2,1.9,3.2,2.6,2.5.3,5,.7,7.5,1.3-3,.7-1.8,3.5.6,4.2-2.7,0-2.7-2.4-3.3-4.4-2.1-.5-4.7,0-6.2-1.8-1.8-2.2-3.8-1.3-6.3-1.7-1,1.8,1.6,2.7.9,4.8-1.4,1.3-2.7,3.1-4.3,4-3.2-2.5-6.3-5.1-9.4-7.7-.7-1.4,1.9-2.5,2.5-3.5-.1-1.1-.6-2.1-1.4-3.1-3.7-1.2-7.2,1-10.5-2.2-2.4.2-4.6,0-7-.5Z"/>
  <path class="st5" d="M744,666c1.9.6,3.8,1.5,5.3,2.8,2.5,2.9,4.2,6.5,6.6,9.4,1.6,1.7,3.8,3,5.6,4.5,2.9,2.3,5,5.7,7.8,8.2,2.1,1.9,4.9,1.9,6.6,4.4,2.4,3.4,4.9,6,5.9,10.1,1.6,5.2,0,11.1,1,16.2,2.2,4.5,3.6,9.4,6.1,13.8,2.7,4.1,7.5,2.9,11.9,3.3,3.5-2.3,5.9-6.4,9.5-8.5,2.8,0,5.5-.5,7.4,2.1.6,3.9,1.7,7.7,2.1,11.6-2.2,1.6-5.6,3.9-8.2,4-.9-1.5-1.6-2.9-2.5-4.4-1.2.4-2.4,1-3.4,1.8.5,1,1.1,2,1.6,3-.2,1.4-1.2,2.7-1.7,4,.3,2,1.8,3.8,2,5.9-.6,1.7-1.5,3.3-2.2,5,.2,2.4,1.3,4.7,1.9,7,.8,2.5.6,5.4.5,8-.6.8-1.4,1.5-2.3,2-2.7,1.6-6.3,1.4-9.2.2-1.6-.5-2.3-2.9-3.9-3.2-3.1.3-6,1.3-9.1,1.6-2.9,0-5.9-2.3-8.6-2.3-5,2.6-10,5.3-14.9,8.1-2.7,2.7-3.8,6.8-6.5,9.5-2,1.4-4.3,2.4-6.4,3.6-1.9,1.2-4.8.4-6.9,0-4-.9-7.5.2-11.6.5-2.7.2-5.3,2.3-8,2.3-5.3,0-10.6-.3-15.9-.1-2.7.7-5.2,2.2-8,2.8-1.3-.4-1.4-3-2-4.1.5-1.2,1.2-2.4,1.7-3.6-1.9-.3-5.2-2.7-6.5-.4.1-.8.2-1.7.2-2.6-1.3-2-3.9-3.9-4.4-6.3,1.2-1.1,2.6-2,3.8-3.1-.8-1.7-5-2.8-6.8-3.2-2,1.2-2.3,4.5-4.2,5.9-1.6-.3-3-2.7-4.9-2.5-2.4-.2-5.4.4-7.5-.8-1.5-.8-3-1.6-4.3-2.7-.5-2.6,1.4-5.8.4-8.4-5.3-2.1-11.8-2.6-15.3-7.7-.3-2.1-.2-4.4-.6-6.5-4-3.1-8.7-3.8-11.8-8.2-4.4-.2-9.2-.2-13.6.2-1.8,1.4-3.1,3.6-4.6,5.3-1.4.4-3,.4-4.5.6-.8.6-1.5,1.2-2.1,1.9-2.4,1.2-5.5,1.5-6.8,3.9-.9,1.2-1.7,2.7-3.2,3.1-3.3.2-6.7.2-10,.1-2.2-.8-3.6-2.4-5.5-3.7-1.7-.4-3.9.2-5.4-.7-1.9-1.9-3.4-4-6-5.1-2.7-1.1-3.3-3.9-5.6-5.3-2.3-1.2-4.6-1.3-6.3-3.5-1.9-2.9-3.1-8.2-7-8.6,1.4-1.6,3.5-2.8,4.6-4.5.3-2.8-.6-5.8-.6-8.7,1.5-2.2,4.3-2.9,3.3-6-.3-2.2-1.5-2.2-3.2-2.9-.6-1.2.9-1.8,1.7-2.3,3.2.8,5.7,2,8.6-.3.9-2.5.6-5.2,1.4-7.7,2-.7,3.2-.4,4.8,1.1,2.8,2.7,6.2,4.3,10.2,3.9,5.1-.4,11-2.2,15.5-4.5.5-1.7,0-4.6,1.2-5.9,3.1-1.4,6.7-1.8,9.9-3.1,1.5-.6,2-2.8,3.5-3.5,1.9.3,4,1.3,5.9,1,2-1.3,4.1-2.7,5.7-4.5,1.1-2.4,1.6-5,2.7-7.4,1.4-1,3.1-1.7,4.8-2.1,2.2-.2,4.6,1.1,6.8.7,1.7-.6,3.3-1.8,5.1-2.1,2.6.7,4.4,3.9,7,4.3,2.9-.6,5.9-3,8.8-2.8,2.5,3.2,5.3,7.1,10,6.4,1.5.3,2.6,2.9,3.6,4,1.3-1.5,2.2-3.2,3.6-4.6,2.3-.3,4.4,1.7,6.9,1,4.6-1.1,8.1-1.2,12.8-.5,2.5.6,4.9-1.5,7.3-2.1,2.8.8,5,3.6,7.8,4.5,2.2-1.8,3.6-4.3,5.7-6.2,5.1-2.8,10.9-4.3,16.1-7,.6-1.9.2-4.9,1.5-6.4,2-1.5,5.3-2.9,7.8-3.2Z"/>
  <path class="st9" d="M847.3,680.1c2,.8,3.7,2.2,5.7,2.9,1.6-.3,3.2-1,4.8-.9.2.9,0,1.7-.4,2.4-3.7.8-7.5,1.2-11.3,1.9v.4c1.5.2,3.1.4,4.6.6,0,1.2-1,2.4-1.5,3.5,4.6,2.2,9.5,3.7,14.7,3.4v143.9c-1.6,0-3.3-.2-4.9,0-2.5.8-4.7,2.7-7.2,3.6-4.4,1.1-9.2,1-13.6,1.5-.9.7-1.7,1.5-2.6,2.3-.6-.3-1.3-1.1-2-1.1-4.7.2-9-1-13.7-1.8-4.1-1.2-7.8-2.9-10.3-6.5-2.2-2.1-.8-4.8-2.5-7.1-3.4-3-6.3-6.5-9.6-9.6-.9,0-1.8,0-2.8-.2.4-2.1,1.6-4.1,2.4-6.1.5-1.6,2.3-1.8,3.6-2.5-.5-2.6-1.4-5.1-1.9-7.8.7-3.9,1.7-7.8,2.5-11.6,1.3-1.5,4.5-.7,6.3-1.5.6-1.6,1.2-3.2,1.6-4.8-.5-1.7-1-3.3-1.6-4.9-.8-.4-1.7-.4-2.7,0,.9-.5,1.7-1.2,2.3-2,.1-2.6.3-5.5-.5-8-.6-2.3-1.7-4.6-1.9-7,.7-1.7,1.5-3.3,2.2-5-.2-2-1.7-3.9-2-5.9.5-1.3,1.4-2.6,1.7-4-.5-1-1.1-2-1.6-3,1-.8,2.2-1.3,3.4-1.8.9,1.4,1.6,2.9,2.5,4.4,2.6-.2,6.1-2.5,8.2-4-.3-3.9-1.5-7.8-2.1-11.6.2-1.6.5-3,.3-4.7-.8-.2-1.6-.5-2.4-.8-.7-1.7-1.3-3.6-1.3-5.5.9.1,1.8.3,2.6.4.9-2,1.3-4.5,2.6-6.2,1-.4,2.1-.7,3.1-1.1,2-3.6,4.3-7.5,5.3-11.5.7-3.1,2-5.7,1.2-8.9-.7-1.7,1.5-3.4,2.6-4.4,4.6-2.9,9.8-4.9,15.1-6,.2-1.1.5-2.3.7-3.4Z"/>
  <path class="st9" d="M818.3,699.3c2.2,0,4.2,2.2,6.1,3.3,1.5,1,1.6,1.3,1.4,3.1-2.5-1.7-4.9-3.4-7.2-5.2l-.2-1.1Z"/>
  <path class="st9" d="M421.7,721.3c2.5,1.4,5.1,2.9,7.7,3.9-.6.8-1.2,1.5-1.8,2.3-2.6-2-5.3-3.9-8.1-5.5.6-1.4,1.4-1.6,2.2-.7Z"/>
  <path class="st0" d="M475.7,738.2c0,3,1.9,4.5,3.4,6.8,1,1.2,1.8,2.9,3.2,3.7,7.7,1.3,15.2,3.3,23.1,3.2-.1,2.1-3.6,4.1-4.7,6.1.7,1.6,3.6,2.1,5,3.2-.8,1.6-2.1,3.1-2.8,4.7.8.6,1.8,1.1,2.9,1.4,0,1.2,0,2.5-.2,3.8.6,1.3,2,1.7,2.6,3.1-3.7-.3-7.4-.8-11.1-1.1-1.9,2-3,4.3-5.6,5.5-2.1,1-4.1,2.9-6.4,3.5l-.4-2.2c-3.1.4-6.4,5.6-4.3,8.6,1.7,2.8,1.8,5.7,5.3,6.8.5,1.4-.6,3.2-.9,4.6-1-.1-2-.2-3-.2,0,6.2-.4,11.2,2.6,16.8,2.2,2.2,4.3,4.4,6.5,6.5,1.8,1.3,4.2,1.6,6,2.9,4.4,3,8.9,5.9,13.1,8.9,1.8,3.5,3.5,7.2,5.2,10.8,1.7,5.3,2.8,10.3,6.2,14.7,4,3.7,8.1,7.2,12.1,10.9,2.4,2.7,6.5,3.6,9.9,5.2,7,1.5,12.6-.8,19.4-1.7,1.1,1.3,3,2.5,3.6,4.1-1.4,1.6-4.1,3-4.9,5,.8,1.6,1.5,3.4,2.4,5,3.2,1.5,6.6,2.7,9.9,4,3.9,1.7,8.4,2.3,12.5,3.5,3.4,1.9,6.5,4.2,9.9,6,3.8,1.3,7.7,2.2,11.5,3.5,5.1,3.5,8.4,8.3,12.2,13,.4,2.6-1.1,6-1.5,8.8-3.6,1.6-5.7-1.3-8.4-3.1-1.7-2.4-2.9-5.2-4.4-7.8-2.2-1-5.5.6-7.9,0-2-.7-3.9-1.3-5.9-2,0-.9-.2-1.8-.2-2.8-2.1.8-4.3,1.6-6.4,2.4-1.9,3.4-3.9,6.9-5.6,10.5.2,1,.4,2.1.7,3.1-.5,1.8-1.8,3.3-2.5,5,.3,1.3.3,3.4,2.1,3.5,4.7.6,9,3.8,13.2,6,.2,4.4.6,8.9.5,13.3-2,.3-4.1.5-6,1-2.1,1.9-4.4,3.9-6.1,6.2.2,2.6,1.3,5.4,1.2,7.9-2.5,2.9-5.2,5.6-7.7,8.4-.7,1.8-.9,3.8-1.4,5.6-2.6.9-6.1.2-9,.7l-.6-.6c0-2.3-1-4.9-.6-7.1,1-.4,1.9-1,2.8-1.5.6-1.8,1.4-3.6,2-5.4-.5-1.6-1.4-3.2-1.5-4.9,2.1-1.4,4.7-1.9,6.9-3.2.2-1.3.4-2.6.5-4-.9-1.8-2.4-3.3-3.4-5-1-3-1.7-6.1-2.6-9.1-.7-1.5-2.3-2.6-3.2-4-1-2.7-1.6-5.6-2.7-8.3-1.3-1.5-2.6-4.1-4.3-4.8-1.3.6-2.6,2-4,2.2-3.5-2.1-7.5-3.8-10.9-6.1.4-1.3,1-2.6,1.4-3.9-1.3-2.6-3.9-5.4-5.9-7.6-2.5.8-5.2,2.5-7.8,2.7.6-1.3,1.4-2.5,1.9-3.8-1.3-.9-2.5-1.8-3.8-2.6-1.7-.3-3.9.5-5.5-.1-2.5-3.5-4.8-7.2-7.5-10.6-2.7-.5-5.4-.5-8.1-.9-2,.5-3.9,1.6-5.9,2.1-1.6-1-2.3-3.4-3.9-4.4-1.8-.5-3.6-.9-5.3-1.4-2.6-2-5.1-4.3-7.6-6.5-1.5-1.2-1.9-3.5-2.9-5.1-2.2-1.5-4.9-2.3-7-3.9-1.3-2.1-2.3-4.3-3.7-6.3-3.1-1.3-6.2-2.4-9.3-3.8-1.6-2.5-3-5-4.6-7.5-1.6-1.1-3.6-1.8-5.4-2.6.2-.9.3-1.8.6-2.8-1.6-.7-3.4-.6-5.1-1-1.2-1.6,1.2-4.9,0-6.7-1.4-2.9-3-5.7-4.2-8.7-.5-2.8-.9-5.7-1.4-8.5-.9-2.1-2.2-4-3.3-5.9-2.2-.8-4.6-1.1-6.8-1.9-3.7-2.4-7.2-5.1-11-7.4-3-.9-6.1-1.5-9.1-2.3-2,1-4.1,2.3-5.9,3.5-3.8,4.5-5.1,9.6-10.5,12.5-2.9.6-5.9,1-8.9,1.5-.2-.6-.3-1.2-.4-1.8,1.2-2.2,3-3.9,4.2-6.1-.1-1.1-.7-2.1-1.6-3-1.6.4-3.2,1-4.9,1.3-2.2-1-4.8-2-6.7-3.6-1.2-2.1-2.4-4.4-3.4-6.7,1-1.9,2.8-3.4,3.9-5.2.3-1.4-.6-3.2-1.1-4.5-1.6-1-3.7-1.6-5-3-.6-1.2-1.8-2.8-1.6-4.2,2.7-1,5.7-1.6,8.3-2.7,1-1.7,1.7-3.6,2.3-5.5-1-1.2-2.4-2.1-3.4-3.2-1.2-2.7-2.2-5.6-3.2-8.5,1.2-.8,2.5-1.7,3.9-2.2,3.9,2,6.3-.3,10-1.6,2,.4,3.9,1.5,5.9,1.8,1.9-1.9,4.1-3.9,5.6-6.1-.3-1.3-.3-2.5-.2-3.7,1.9-1.1,3.7-2.8,5.8-3.5,0,1.3.1,2.6,0,3.9,2.3,2,5.2,3.3,7.5,5.3-1.6,3.1,1.1,4.7,2.9,6.7.7-7.4,7.5-10.5,6.5-17.9,4-2.6,2.6,3.4,4.8,4.6,2.7-.4,5.3-.9,8-1.3,1.5.3,2.6,2.4,4.1,2.1-.5-1.9-1.8-3.4-2.3-5.3.2-1.2.6-2.4,1.1-3.5,1.9-.3,4.1,1.2,6.1,1.5,0-1.4-.5-2.7-.8-4.1.3-1.6.8-3.1,1.1-4.7,3.4-.4,7.1,1.9,10.5,1.7,1.4-1.4,1.8-4.3,3.6-5.2,3.2-.1,6.4-.5,9.6-.6,2.6-.5,5.1-2,7.6-3Z"/>
  <path class="st7" d="M620.3,749.3c4.4-.4,9.2-.4,13.6-.2,3.1,4.4,7.8,5.1,11.8,8.2.4,2.1.3,4.3.6,6.5,3.5,5,10,5.5,15.3,7.7,1,2.5-.9,5.8-.4,8.4,1.3,1.1,2.8,1.9,4.3,2.7,2.1,1.3,5.1.7,7.5.8,1.9-.2,3.3,2.2,4.9,2.5,1.9-1.4,2.2-4.7,4.2-5.9,1.8.4,6.1,1.4,6.8,3.2-1.1,1.1-2.6,2-3.8,3.1.5,2.3,3.1,4.3,4.4,6.3,0,.9-.1,1.7-.2,2.6,0,3-2.1,3.6-3.9,5.4-1.3,5.5,1.9,8.5,4.4,12.9,2.3,2.3,5.9,3.5,8.7,5.2,1,.5,2.6,1.3,1.9,2.6-1.2,2.8-2,5.9-3.5,8.6-1.2.5-2.5.9-3.6,1.5-.8,2.1-.4,4.7-.5,6.9-.2,2,1.8,3.8,2.1,5.7-.7,1-2.1,1.9-2.5,3,1.1,1.2,2.3,2.3,3.6,3.4,2.2,1.6,5.9,1.2,7.9,3.1,1.5,2.2,3,4.5,4.3,6.8.4,3.5,0,7.2.2,10.8,1.2.2,2.3.2,3.5.2l-.4.5c-1.9.5-4.1.4-5.8,1.2-.6,1.3-.5,2.9-.8,4.2-2.9,2.2-6.3,2.8-9.9,2.6-1.9-.2-3.9,1.2-5.5,2.1-2.1,1.1-1.9,4.6-3.9,6-3.2,3.1-8.9,3.3-13.1,3.6-.9-.8-1.9-2.6-3-2.8-.5.7-1,1.4-1.4,2.1-1.1,0-2.1,0-3-.4-.6-1.4-.1-3.2-.2-4.7-1.1.3-2.2.6-3.3,1,.8,1.5,1.7,3,3,4.1,2.9.3,4.1-.4,5.6,2.7.7,1.3,1.5,2.6,2,3.9-.7,2.3-2.7,4.1-3.5,6.3-1.1,3.4-1.3,7.2-2.6,10.4-1.5,1.8-4.7,2.4-5.8,4.3.4,1.3,1.2,2.4,1.6,3.6-.9,2.2-2.3,4.3-3.8,6.2-1.6-.8-4.4-.8-4.4-3-.3-2.5-1-3.8-2.7-5.6-1.9-2.7-5.7-3.2-8.5-4.6-2.5-1-4.2-3.4-5.9-5.4,1.1.1,2.3.3,3.4.4-.2-1.5-.5-3.1-1-4.5-.9-1-2.2-1.7-3.2-2.6.2-5.7,1.6-11.5,1.8-17.2-.7-1.2-1.6-2.3-2.2-3.5,1.5-4.1,2.8-7.4,1.7-11.8-1.6-1.1-4.2-.7-5.9-2-4.3-3.3-8.5-6.9-12.8-10.2-1.6-1.2-3.9-1.4-5.6-2.3-.9-1.4-1.3-3.4-3-4-5.2-2.2-10.2-4.5-15.5-6.5-2.2-.6-2-3.7-2.6-5.5-4-2.3-4.9-6.1-7.4-9.7-1.1-1-3.2-.6-4.4-1.6-5.9-5.8-12.5-10.7-18.1-16.9-1.8-2.5-1.9-6-3.5-8.6-2.6-2.4-6-4.2-8.2-6.9-.2-2.6-.2-5.4,0-8,.7-2.1,2.8-3.8,5.1-3.3,2.1,1.3,3.9,3,6,4.1,2-.2,1.7-4.9,4-5,1.5-.2,3.1-.1,4.6-.3.9-.8,1.7-1.6,2.6-2.4,1.9,0,3.7,2,5.4,2.1,4.1-1.6,8.9,1,13.2,1.3,2.5-.8,4.8-2.5,7.3-3.3,1.4.1,2.8.8,4.2,1.1,1.7.5,3.8,0,5.4.6,1.6,1.4,2.9,3.2,4.5,4.6,1.8-.3,3.6-.8,5.4-1.1-.9-.1-1.8-.3-2.7-.5-.6-1.6-.8-4.3,0-5.9,1.4-1.4,3.9-1.7,5.6-2.6.1-.9-.2-1.6-1-2-2.1-1-4.5-1.5-6.5-2.6-.7-1.6-.3-3.5-1-5.1-1.2-2.4-3-4.5-4.4-6.8.2-1.3.8-2.5,1.2-3.8.7-.7,1.4-1.3,2.1-1.9,1.5-.2,3-.2,4.5-.6,1.5-1.7,2.8-3.9,4.6-5.3Z"/>
  <path class="st9" d="M374.8,755.3c-.1.6-.4,1-1,1.4-3.2.3-6.4.5-9.6.7.4-1.6.8-2.2,2.3-2.9,2.4-1.6,5.8.1,8.3.8Z"/>
  <path class="st11" d="M509,774.4c1-.3,2.9,1.2,1.4,2-1.5,1.3-2-1-1.4-2Z"/>
  <path class="st11" d="M774.2,776.3c2.8,0,5.8,2.2,8.6,2.3,3.1-.3,6-1.3,9.1-1.6,1.6.4,2.3,2.8,3.9,3.2,2.8,1.2,6.4,1.4,9.2-.2,1-.3,1.9-.3,2.7,0,.6,1.6,1.2,3.2,1.6,4.9-.4,1.6-1,3.2-1.6,4.8-1.8.8-5,0-6.3,1.5-.8,3.9-1.8,7.7-2.5,11.6.5,2.6,1.4,5.1,1.9,7.8-1.3.7-3,.9-3.6,2.5-.8,2-2,4-2.4,6.1.9,0,1.8.1,2.8.2,3.3,3.1,6.2,6.6,9.6,9.6l.3.9c-2.3,1.7-5.7,3.1-8.4,4-2.1-.7-4-2.2-6-3.2h-.9c-4,2.4-8,4.9-12,7.2-3.2,1.5-2.6,7.4-6.2,8.2-1.1.5-3.5.5-3.9,1.7,1.8,3.1,4.1,4.4,2.7,8.6-3,2.3-6.2,2.3-9.7,3.2-2.2.5-3.8,2.6-6,3.1-2.7-.2-5.3-1.5-8-2.1-1.3,0-2.6,1.3-3.8.8-1.8-.9-3.4-2.8-5.3-3.4-2.6.5-5.1,1.3-7.6,2-3.9.9-7,4.9-10.3,6.4-2.2.3-4.7.4-6.9,1.1-1.3.6-2.2,2.1-3.2,3.1-1.2,0-2.4,0-3.5-.2-.3-3.6.2-7.2-.2-10.8-1.4-2.3-2.8-4.6-4.3-6.8-2-1.9-5.7-1.5-7.9-3.1-1.2-1.1-2.4-2.2-3.6-3.4.4-1.1,1.8-2,2.5-3-.4-1.9-2.3-3.7-2.1-5.7.1-2.2-.2-4.8.5-6.9,1.2-.6,2.4-1,3.6-1.5,1.5-2.7,2.3-5.7,3.5-8.6.7-1.3-.9-2.1-1.9-2.6-2.8-1.7-6.4-3-8.7-5.2-2.5-4.4-5.7-7.4-4.4-12.9,1.8-1.8,3.9-2.4,3.9-5.4,1.3-2.3,4.6.1,6.5.4-.5,1.2-1.2,2.4-1.7,3.6.6,1.2.7,3.7,2,4.1,2.7-.6,5.2-2.1,8-2.8,5.3-.1,10.6.2,15.9.1,2.7,0,5.3-2.1,8-2.3,4.1-.3,7.5-1.4,11.6-.5,2.1.3,5,1.1,6.9,0,2.1-1.1,4.5-2.1,6.4-3.6,2.6-2.7,3.8-6.9,6.5-9.5,4.9-2.8,9.9-5.4,14.9-8.1Z"/>
  <path class="st1" d="M78,792.1c2.2.6,4.4,1.5,6.5,2.5,1.9,1.3,3,3.7,4.9,5,4.1,2.3,8.2,2.9,12.8,4.1,3.5,1,6.8-.3,10.3.8,3.9,1.1,7.8,2.1,11.7,3.2,3,.7,5,3,8,4.1,4.6,1.7,9.2,3.7,13.9,5.1,5.5.1,11.1-.5,16.6-.4,1.8,3.6,4.8,4.4,8.4,5.7,2.6,0,5.3-1.3,7.9-1.1,3.6,1.8,5.8,4.5,9.9,5.2,2.9.9,5.3-.2,8.3-.3.4.9.8,1.8,1.2,2.6,1.7,1,4,1.2,5.5,2.5.2,1.2-1,2.4-1.4,3.5,5.1.7,7.6,5.2,12.6,6.1,2.6.3,3.3,3.4,5.1,5,1.6.7,3.8-.2,5.5-.3,1.7,1.2,3,2.8,4.6,4.1,4,1.4,8.7,1.3,12.9,1.8,1.5.4,1.8-2.2,2.4-3.1,1.8-.7,4.5,1.2,6.3,1.7,2.5,1.2,6.5,1.6,7.6,4.3,1.1,1.7,1.1,5,2.6,6.2,1.3-.4,2.5-.9,3.8-1.2,2.6,1.1,4.6,3.5,7.2,4.6,1.5-.4,3-1.1,4.6-1.5,1.4.7,2.8,2.5,4.4,2.4,3.1-.6,6.2-2,9.3-2.4,1.6.2,3.2.7,4.8,1.1.8.9,2.4,2,2.5,3.1-1.1,1.5-2.5,2.8-3.7,4.3-.6,1.8,1.7,4,.9,5.8-2.1,2.2-4.3,4.5-6.8,6.3-4.1,2-8.5,3.4-12.6,5.4-3.1,1.6-4.8,5.4-8.5,5.3-6.8.7-13.5,2-20.1,3.9-2.5,1.3-4.6,3.5-6.6,5.5.5,1.3,1.8,2.3,2.5,3.5-2.2,1.2-4.7,1.9-6.9,3.1-2.4,2.6-3.9,6-6.6,8.5-3,2.7-5.9,5.3-8.2,8.7-2.2,3.3-5.4,6.4-7.1,10,.3,4,.6,8,1.1,11.9.9,2,2.1,3.9,3.3,5.7,1.2,1.8,3.6,2.6,4.8,4.4-2,2.2-5.2,4-7.8,5.4-3.7.8-6.8,1.6-9.3,4.7-1.6,2.8-2.6,6-4.3,8.8-1.4,2.2-3.2,4.1-4.7,6.3,0,1.4,1.9,2.3,1.8,3.7-4.2,1.8-7.4-.1-11.5-.4-5.6,2.7-12.1,4.1-14.5,10.5-1.3,4.2-4.1,7.4-7.9,9.5-1.8-.9-3.2-2.5-5-3.4-1.5,0-3.2-.3-4.6.2-.8.8-1.5,1.8-2.4,2.5-2.8-.8-5-2.3-7.9-2.6-8.8-1.2-17.5-2.5-26.3-3.8-1.5-.2-3.2-.7-4.7-.4-2.6,1.3-4.9,3.2-7.5,4.5-1.5,0-3-.7-4.5-.8-2.2.3-4.6.7-6.7,1.6-2.6,2.6-4.7,6.1-7.7,8.3-4.5,1.6-5.2-1.8-8.1-4.2-1.2-1.4-2.9-1.6-4.2-2.7-1.8-3.9-3.4-8-5.1-12-.9-2,1.4-4.5.4-6.5-1.2-4.9-6.2-7.7-9.7-11.1-2.8-3-6.3-2.5-10.1-3.4-.4-3.5-1.2-7.7-.4-11.2,2.2-2.8,4.4-5.7,6.7-8.3,1.4-1.7,4.7-.3,6.4-1.5,1-1.3,1.8-2.7,2.2-4.3-1.3-.6-3.5-.5-4.1-2-1.1-2-2.2-4.1-2.8-6.4.4-2.5,1.8-4.9,2.9-7.1,1.5-1.4,4.3-1.6,5.6-3.3.8-1,1.7-2.1,2.1-3.4-.8-1.4-2.1-2.4-3.1-3.7-1.4-3.5-2.9-6.6-1.6-10.5-.7-2-2.6-3.9-2.8-5.9,3.2,0,6.4,1.3,9.6,1.4,2-2.5,4.1-5.5,5.3-8.5-.5-1.6-1.8-3.3-1.8-4.9,1.1-1.7,3.9-2.2,5.2-3.9-.8-4.4,1.1-8,1.7-12.2.3-1.8-.4-3.8-.5-5.6,2.9-1.5,4.5-3.8,6.8-5.8,4.9-.1,7.1-3.6,10.5-6.6-.8-2.3-4.2-4.2-5.7-6.2-.8-2,.6-4.7-.3-6.6-3.5-1.3-7.2-2.7-10.9-3.3-1.2.8-2.2,1.8-3.4,2.6-2.2-.2-5.8,0-7.4-1.7-2.2-3.1-6.9-.4-10-1.7.6-1.7,1.8-3.3,2-5.1-.5-1.3-1.3-4.2-3.2-3.9-4.3.5-8.3.6-12,3.2l-1.5-1.2c.2-4.4,3.2-4.9,6.1-7.5-.3-1.6-2.1-3-2.5-4.6.8-1.9,2.3-3.5,2.7-5.5-1.6-.1-3.3.1-4.7-.4,0-1.9,3.2-3.1,3-4.9-3.3-.7-5.7-1.5-6.2-5.3.8-1.9,1.6-3.8,2.8-5.4,7-1.2,14.1-1.4,21-2.8-.2-1.2-.6-2.4-.5-3.6,2.8-1.5,5.8-3,8.9-4Z"/>
  <path class="st7" d="M807.2,829.2c1.7,2.3.4,5,2.5,7.1,2.5,3.6,6.3,5.3,10.3,6.5,4.7.8,9,1.9,13.7,1.8.7,0,1.4.7,2,1.1.9-.8,1.7-1.6,2.6-2.3,4.4-.6,9.2-.5,13.6-1.5,2.5-.9,4.7-2.8,7.2-3.6,1.6-.2,3.3,0,4.9,0v129.7c-1-.7-1.8-.9-2.6-.7-.3.8-.5,1.7-.8,2.5-3,.6-5.7-.4-7.9-2.5-1.8-.7-4.7,0-6.4.9-.8,2.1-1.2,4.3-1.8,6.4-1.3.5-2.1,0-3.1-.7.1-.6.2-1.2.3-1.8-2.1.3-4.3.6-6.3,1.2-.6,1-1,2.3-1.8,3.1-1.4.5-2.9.5-4.4.4,1.1-1.6,2.4-3.4,4.1-4.5,2.5-.7,5-1,7.5-1.7-.1-3.1.4-4.3,2.1-6.8h-1c-5.6,1.4-10.9,3.9-16.4,5.7-.8.3-1.6.4-2.4.2l-.6-1.8c1.3-1.8,4.1-2.3,5.8-3.8.7-.8-.3-2.3-.6-3-2.3-1.2-5-1.7-7.4-2.7-.8-1.6-1.2-3.4-2.1-4.9-1.3-.4-2.7-.7-4-1.1,1.3-1.2,2.9-2.2,4-3.5.2-1.6,0-3.3-.5-4.8-2.2-.9-4.6-1.3-6.9-2-2-.7-3.7-2.2-5.6-2.8-.9,1.1-1.7,2.2-2.6,3.3-2.5-.7-5.1-1.7-7.5-2.8v-.7c.8-1,2.2-1.8,2.8-3-1-2-2.5-3.8-3.6-5.7.8-.9,2.2-1.9,3.4-1.1,1.5,1.7,2.5,4.8,4.8,5.3,2,1,4-.7,4.8-2.5-1-2.1-5.2-4.6-5.1-6.8,2.5-1.8,4.6-2.6,4.7-6.1-.9-.2-1.8-.3-2.8-.5-1-1-.8-2.9-1.9-3.9-1.6-1.4-4-2.2-5.3-3.8.5-2.3,2.7-4.2,3.7-6.3.9-1.2.1-3.4-1.6-2.8-5.1,1.7-9.8,4.5-15,6-.6-2.2.2-4.6-.2-6.9-.3-2-1.1-4-1-5.9,1.8-2.3,3.4-3.9,3.2-7.1-1.5.3-2.2,3.1-3.7,3-.3-2.3-.6-4.7-.3-6.9,3.1-3.6,7.2-6.3,10.1-10l-.2-.9c-4.8-.2-10,3.6-14.8,3.8-.8-1.1-1.4-2.3-2-3.5,1.9-1.9,3.4-4.1,4.7-6.5.6-2.7-1.5-5.8-1.5-8.6,1.5-1.7,3.5-3,5.1-4.6-.2-1.7-1.2-3.6-1.9-5.2-2.3-1.2-5.1-1.6-7.7-2.1,3.5-.9,3-6.7,6.2-8.2,4-2.4,8-4.8,12-7.2h.9c2,.9,3.9,2.4,6,3.1,2.8-.9,6.1-2.3,8.4-4l-.3-.9Z"/>
  <path class="st7" d="M61,834.1c1.8-.3,2.7,2.6,3.2,3.9-.2,1.8-1.4,3.4-2,5.1,3.2,1.3,7.8-1.3,10,1.7,1.6,1.7,5.2,1.5,7.4,1.7,1.2-.8,2.2-1.8,3.4-2.6,3.7.6,7.4,2,10.9,3.3.9,1.9-.4,4.6.3,6.6,1.5,2.1,4.9,3.9,5.7,6.2-3.4,3-5.6,6.4-10.5,6.6-2.3,2.1-4,4.4-6.8,5.8.2,1.8.9,3.8.5,5.6-.6,4.3-2.5,7.8-1.7,12.2-1.3,1.7-4.2,2.2-5.2,3.9,0,1.7,1.3,3.3,1.8,4.9-1.2,3-3.2,6-5.3,8.5-3.2-.1-6.4-1.4-9.6-1.4.2,2.1,2,4,2.8,5.9-1.2,3.8.2,6.9,1.6,10.5,1,1.2,2.3,2.3,3.1,3.7-.4,1.2-1.3,2.3-2.1,3.4-1.3,1.7-4.1,1.9-5.6,3.3-1.2,2.2-2.6,4.6-2.9,7.1.6,2.2,1.7,4.4,2.8,6.4.6,1.5,2.8,1.4,4.1,2-.5,1.6-1.2,3-2.2,4.3-1.7,1.2-5.1-.2-6.4,1.5-2.3,2.7-4.5,5.5-6.7,8.3-.8,3.4,0,7.6.4,11.2-3.7.6-7,2.4-10.7,3-4.4-2.3-8.2-4.8-13.1-5.9-3.8-1.7-7-.5-10.9,0-.7-.4-1-.9-.9-1.6,2-4.6,6.7-8.9,7-14,.4-3.7,1.7-6.5.7-10.1,1-2.7,3.3-4.2,3.5-7.3.7-2.5-.7-5.4-2.6-6.9-2,0-3.6.3-5.5,0,.3-2.9-.4-5.8,2.4-7.5-2.2-.4-4.4-.9-6.6-1.6,1.7-5.2,4.1-10.2,6.1-15.3,1.2-3.3,6-4.1,7.9-7.1,2.3-3.7,4.4-7.6,6.6-11.4,1-1.6.3-3.3,1.1-4.8,2.1-4.5,4.9-8.7,6.9-13.2,1.2-3.2,2.3-6.6,3-9.9.3-5.6-.8-11.3-.6-16.9.6-1.5,1.7-2.8,2.5-4.2-.2-1.3-1.6-1-1.3-2.8l1.5,1.2c3.8-2.6,7.7-2.6,12-3.2Z"/>
  <path class="st1" d="M773.9,846.3c2.5.5,5.3,1,7.7,2.1.7,1.6,1.7,3.5,1.9,5.2-1.6,1.6-3.6,2.9-5.1,4.6,0,2.8,2.2,5.9,1.5,8.6-1.2,2.4-2.8,4.5-4.7,6.5-4-3.4-7.5-.1-12-.8-3-.2-6.4-1.3-9.4-1-1.5,1.4-2.8,3.3-4.2,4.9-2.7.5-5.7-.8-8.5-.5-2.2,1.7-3.4,4.7-5.3,6.8-2.1.4-4.4,0-6.6.4-.5.7-1.8,1.7-1.8,2.6,1.2,2.3,2.9,4.5,4.7,6.5,1-.4,2-.7,3-1.1,2.2,1.1,5.3,2.8,6.9,4.7-2.7-.1-5.3-1.5-7.9-2-1.4,0-3.6.8-4.4,2.1,1.1,3.2,3.6,3,6.2,4.2.7,1,.7,2.4.8,3.6-4.5,2.1-5.3-5.8-9.6-5.1-1.6,0-4.1-.8-4.6,1.3,1.9,2.8,5.9,4.4,8.4,6.7-2.2.3-4.5.4-6.7,0-1.5-1.9-1.7-4.9-3.3-6.7-3.9-1.3-7.4-1.6-10.1-5.1.7-.9,1.4-1.8,2-2.8-.9-.5-1.8-.9-2.7-1.2-1.7,1-3.2,3.2-4.2,4.9,2.2,4,.4,7.8,1.3,11.9,3.4,3.6,7.2,6,9.3,10.8,4.5,2.1,7.5,5.6,10.4,9.5.3.6-1.7,2.8-2.4,2.6-.7-1.4-1.2-2.8-2-4.1-1.3-.6-2.9-.9-4.4-1.1-.9.6-2.4,1.8-1.4,3,1.2,2.2,3.5,4.1,4.3,6.4-1.3,2-5.4,4.2-3.6,6.8,1.8.2,3.7.2,5.6.6,1.2.9,1.8,2.1,3.4,2.4,3.6.7,7.1,1.9,10.8,2.3l-.4-1.5c-2.8-2.2-6.1-3.9-9.1-5.8-1.9-1.2-4-1-6.1-1.7,1.1-2,3.8-3.9,5.8-5.2,3.7,3.8,8.3,5.1,13.1,6.9,2,.6,5-.8,6.7.4,1.3,2.9,1.7,5.8,3.8,8.3,1,1.1,2,3.1,3.4,3.6,1.6-.3,3.2-.6,4.8-.9,0,1.6.6,4-.4,5.4-1.8.4-3.2,1.1-4.8-.2-4.1-2.1-4.8-6.3-7.8-9.1-2.6.2-5.2.6-7.8,1.1-.2.8.1,1.4,1,1.8,2.5,1,5.3,1.3,7.9,2.1-1.8,4.8,3,9.9,2.7,14.4-3.5,1.8-6.6-4.5-9.7-5.5-3.2.4-6.4.7-9.6,1.3-1.1.9-2.1,1.9-3,3-.7,1.6,1.6,1.3,2.5,1.8.5,1.5.6,3.1,1.1,4.6,3.2-.4,5.1,1,7.6,2.7.2,1.3-1.9,1.7-2.8,2.3-1.5.5-3.8,2.5-5.3,2.1-.4-3.4-6.2-2.2-8.6-2.7-.6,1.2.5,2.8,1.1,3.9,3.4,4.8,7.3,8.7,9.6,14.3,0,1.4-1,3,0,4.1.9,1.6,3.3,3.3,3.2,5.2-1.5-.2-3.1-.3-4.6-.9-2-2-3.6-4.4-5.5-6.5-1.6.4-3.2,1.9-4.5,2.9-.8,1.9-.4,4.4-.7,6.4-.6.8-1.4.8-2.4.2-1.2-1.4-.4-3.9-1.5-5.4-1.8-2.5-3.5-5.3-5.6-7.5-1.4,0-4.1.3-4.3,2.1-.3,2.3-.4,4.5-.9,6.8-1.5-.7-3.7-1.5-4.4-3-1.3-2.5-2.8-5-3.7-7.6.5-1.4,1-2.7,1.4-4-.8-2.3-2.2-4.5-3.5-6.6-2-1.4-4.9-1.5-6.9-3.1-1.2-1-2.6-2-3.5-3.3.7-2,2.3-3.6,3.3-5.5.4-1.7.4-3.6.7-5.3,1.6,0,3.6.7,5.1.2,2-2.9,3-5.2,6.8-6,3,.9,5.3,2.8,8.6,3.2,3.2.7,7,.4,9.8,2.1,1,.4,2.2,1.6,3.2,1.2.3-1.1.6-2.2,1-3.2.9-.9,4.4-1,4.3-2.4-4.5-1-9.4-4.3-13.8-2.5-.9-.8-1.6-1.6-2.4-2.4-.8.6-1.4,1.5-2.1,2.2-2.5,0-5.1-.4-7.6-.4-3.5.8-6.5,3.3-9.9,4.2-1.3-.5-2.6-1-4-1.4-1.4.9-2.7,1.9-4,2.8-2.3-2.3-3-5.9-5.2-8.4-1.7-2.4-4.4-4.5-5.6-7.1,1.2-.5,2.5-.9,3.8-1,1,.5,1.9,1,2.9,1.5.5-1,1.2-2.3,1-3.5-2.2-.8-4.9-2-7.2-1.7-.6,1-.6,3-1.6,3.5-4.2-2.3-5.2-7.7-10.7-8.3-1.5-2.3-2.5-5.1-3.5-7.7,1.4-1.9,2.9-4,3.8-6.2-.4-1.2-1.1-2.4-1.6-3.6,1.1-1.9,4.3-2.5,5.8-4.3,1.4-3.3,1.6-7,2.6-10.4.8-2.2,2.9-4,3.5-6.3-.6-1.3-1.3-2.6-2-3.9.8-.7,1.6-1.3,2.5-2,4.2-.3,9.9-.5,13.1-3.6,2-1.4,1.8-4.9,3.9-6,1.6-.9,3.6-2.2,5.5-2.1,3.6.2,7-.4,9.9-2.6.3-1.4.2-3,.8-4.2,1.8-.8,4-.7,5.8-1.2l.4-.5c1-1,1.9-2.5,3.2-3.1,2.2-.7,4.6-.7,6.9-1.1,3.3-1.6,6.4-5.6,10.3-6.4,2.5-.7,5.1-1.5,7.6-2,1.9.6,3.5,2.5,5.3,3.4,1.2.4,2.5-.9,3.8-.8,2.7.6,5.3,1.9,8,2.1,2.2-.5,3.8-2.6,6-3.1,3.5-.9,6.7-.9,9.7-3.2,1.4-4.2-.8-5.5-2.7-8.6.3-1.3,2.8-1.3,3.9-1.7Z"/>
  <path class="st9" d="M834.6,850.6c2.2,2.4,5.8,3.7,8.7,5,2.8,0,5.5-1.9,8.5-1.4-4.2,3.3-10.1,4.4-14.8,6.8-1,.9-3.3,3.1-2.7,4.6,1.8,0,3.7-.2,5.5-.2.4,1,.4,1.8,0,2.5-4.1,1.7-8.5,2.8-12.8,3.2-3.2.3-5.6,2.1-8.8,2.8-.2-.9-.3-1.8-.4-2.7-1.9,0-3.8.3-5.6.9,0,1.4,2.4,1.6,2.7,2.8-2.4,1.2-5,2.6-7.7,3-1.3-.6-2.5-2.1-3.9-2.5-2.9,1.2-5,3.3-8.2,3.6-2.3.2-3.3,1.1-4.9,2.6,0-1.3,0-2.5,1-3.4,2.5-2.5,5.7-4.3,8.2-6.8,2.5-3.3,4.4-6.9,5.2-11,1.8-1.4,4.7-1.3,6.9-2,3-.4,4.6-3.3,7.1-5,4.2,0,7.6,1.5,11.7-.3,2.5-.9,2.6-1.1,4.5-2.6Z"/>
  <path class="st7" d="M424.9,852.2c1.3,3.2.2,7.2,1.6,10.2,1.8,3.7,1.1,8.5,1.4,12.6.5,3.7-3.6,5.1-3,9,.5,4.5-1.7,8.2-4.2,11.7-3.3-.5-6.3-1.2-8.5-3.9.4-1,1-1.8,1.5-2.7-1-.6-2.2-1-3.3-1.5.5-1.5,1.1-2.8,1.4-4.3-.9-.2-1.8-.4-2.8-.7.5-1.3,1.1-2.4,1.7-3.6-.7-1.4-2.3-2.4-2.8-3.9.5-.9,1.2-1.8,1.5-2.7-.7-.9-1.4-1.8-2.1-2.7.9-1.7,2-3.5,3.3-5,2.1-1.7,4.6-2.8,6.9-4.1,1.5-1,3.4.5,5,.1.4-2.4.4-5,.8-7.4.3-.9.8-1.3,1.5-1.2Z"/>
  <path class="st9" d="M631.3,855.7h.2c.6,1.6,1.3,3.5,1.6,5.3-.4.7-.9,1.3-1.4,1.9-1.4-1.3-4.1-2.9-4.6-4.7,1.4-.9,2.8-1.7,4.2-2.5Z"/>
  <path class="st0" d="M445.8,857.3c0,1-.4,1.8-1,2.5-1.4-.3-3.5-.1-4.6-1.2,1.9-.3,3.7-.8,5.5-1.3Z"/>
  <path class="st1" d="M746.2,879.2c.8-.1,3.7,3,3.6,3.8-1.5,2.8-3.6,1.7-5.3-.3.5-1.2,1.1-2.4,1.8-3.5Z"/>
  <path class="st9" d="M664.7,885.3c0,1.5-.3,3.2.2,4.7.9.3,1.9.5,3,.4.5-.7,1-1.4,1.4-2.1,1.2.2,2.2,2.1,3,2.8-.8.7-1.7,1.3-2.5,2-1.4-3-2.7-2.3-5.6-2.7-1.2-1.1-2.2-2.6-3-4.1,1.1-.4,2.2-.7,3.3-1Z"/>
  <path class="st1" d="M766.8,896.4c0,1.5-.4,2.9-1.2,4.2-1.5.7-3,1.2-4.6,1.6-1.3,0-1.7-1.8-1.8-2.8,2.4-1.2,5-2.1,7.6-2.9Z"/>
  <path class="st0" d="M421.3,901.2c2.1.3,4.4,2.2,6.5,3.1,1,1.8.3,4.7,1.2,6.7,1.7,3.4,3.5,6.7,5.2,10.1-.9,2.5-2.8,4.7-4.1,7,.4,2,2.2,3.8,2.2,5.9-1,8.4-1.6,16.8-3.4,25.2-3,.8-7.7-2-10.7-1.2-.5,1.9-.6,4-1.4,5.8-1.3,1-2.4,2.2-3.9,3-1.4,0-2.8,0-4.2-.3-2-3-4-6.3-5.8-9.4.8-4.9,2.7-9.1,1.6-14.1.7-1,1.4-2,2.2-3-1.1-.5-2.1-1.1-2.9-1.9.4-1.7,1.2-3.3,1.7-4.9.2-5-1.5-9.4-3.9-13.6-1.1-.3-2.2-.7-3.2-1.2.2-2.5,1.2-5.6,2-8,1.9.8,3.7,1.6,5.5,2.4,6.1-1.4,10.5-7.4,15.3-11.5Z"/>
  <path class="st1" d="M790,909.8c1.8,1,6,5.4,7,7.2-.7,1.3-2.5,3.2-4,3.1-3.5-.4-7-1-10.4-1.7-1.7-.3-1.8-1.8-2.3-3.1,3-1.9,6.3-4.4,9.6-5.5Z"/>
  <path class="st9" d="M26.7,919.2c.2,1.2.3,2.4.1,3.6-.9.2-1.8.2-2.7.1.4-1.6,1.4-2.6,2.6-3.7Z"/>
  <path class="st5" d="M650.9,924.1c-.2,2.8.9,5.2,1.1,7.8-2.8-1.2-6-3.4-5.9-6.8,1.5-.6,3.1-.9,4.8-1Z"/>
  <path class="st1" d="M306.3,930.5c2.7,0,5.3-.4,7.1,2.1,1.3,1.4,2.9,3.2.5,4.5-2.9-.5-5.9-2.2-8.6-3.5,0-1-.5-3.1,1-3.1Z"/>
  <path class="st1" d="M291,932.1c-.2,1.3-.5,2.5-.7,3.8,2,1,4.4,1.7,6.5,2.5-.4,2.4-2.5,4.7-3.5,6.9-1.4,2.6-2.8,4.7-5.9,5.3-2.1-1.1-4.1-2.4-5.9-3.9-.8-1.3-1.2-3.1-2.3-4.2-1.2.4-2.5,1.5-3.8,1.3-.8-1.1-1.6-2.3-2.1-3.7,1.8-1.5,4.2-2.5,6.2-3.7,3.9-2,6.9-4.6,11.6-4.3Z"/>
  <path class="st1" d="M790.4,933.6c.7,2,1.5,4.2,1.5,6.3-.8,1.5-1.8,2.8-3,4-.9-.2-1.7-.6-2.5-1.2-.3-1.4,1.1-2.9,1.3-4.3-.9-1.5-3.4-3-3.3-4.8,1.8-.2,4.9-2.1,6,.1Z"/>
  <path class="st1" d="M671.7,949.2c.9,1.3.5,5-1.6,4.5-.5-.8.4-4.7,1.6-4.5Z"/>
  <path class="st5" d="M811.8,950.4c.5,1.5-.2,2.3-1,3.5-1.6-.5-3.6-1.4-4.7-2.7,1.9-.4,3.8-.7,5.7-.8Z"/>
  <path class="st1" d="M254.7,952.5c.5.7.8,1.4.9,2.2-1.5,1.8-3.2,3.4-5,4.9-1.3-.4-3.3-1.3-3.8-2.6.8-1.4,1.8-3,3.2-4,1.5-.4,3.1-.5,4.6-.5Z"/>
  <path class="st5" d="M767.9,956.2c1.1,1.3,1.3,3.2,1.1,4.9-1.2.2-5.8-2.8-5.8-4,1.4-.6,3.2-1.2,4.7-.9Z"/>
  <path class="st5" d="M798.9,957.2c-1.2,1.5-2.9,3.4-4.8,3.8-.2-1-.2-2,0-2.9,1.5-.6,3.1-1,4.8-1Z"/>
  <path class="st1" d="M670.8,959.2c2,3.1,4.2,6.2,5.8,9.5-2,0-4,0-6-.3-1.3-1.6-2.7-3.5-3.3-5.4.3-1.1,2.2-4,3.4-3.8Z"/>
  <path class="st1" d="M784.8,973.2c2.3,1.7.8,5.3-.9,6.8-1.1-.3-2.4-1.9-2.8-3,.6-1.2,2.3-3.7,3.7-3.8Z"/>
  <path class="st5" d="M821.3,973.4c3-.3.4,3.9-1.2,3.3-.5-1,.6-2.5,1.2-3.3Z"/>
  <path class="st1" d="M674.1,975.2c1.9-.5,3.7-.3,5.6.2,0,1.6-.3,3-.8,4.5-1.9-1.1-3.4-3-4.7-4.7Z"/>
  <path class="st0" d="M560,976.9c1.6-.2,2.6,0,3.1,1-2.8,4.7-5.5,9.4-8.2,14.2-1.5,4.2-3,8-1.4,12.5,1.7,2.4,3.5,4.8,5.2,7.3-.5,1.5-2.8,2.1-3.3,3.6-.5,2.3-1.1,4.6-1.4,6.9l-.8.5c-4.3-1.3-8.8-1.7-13-3-1.7-2-3.2-4.3-5-6.2-2.9-.6-5.9-.6-8.8-1.2-3.5-1.7-7.2-3.4-10.6-5.3-3.8-2.8-7-5.5-11.8-6.4-1.7,0-3.3.5-5,.4-2-2.1-4.3-4-6.1-6.2.2-1.9.8-3.8,1.3-5.7,1.6-1.7,3.6-3.8,5.6-5.1,1.1,1.2,2.1,2.5,3.2,3.8,1.7-1.2,2.7-3.2,4.4-4.4,1.5-.4,3-1.1,4.6-1.2,3.6,2,7.2,4.4,10.9,6.1,1.7-.8,3.3-1.8,5-2.4,3.5-.2,7-.3,10.6-.5,2.9-1.3,5.6-3.2,8.5-4.6,1.4.3,2.6.9,4,1.3,3.1-1.3,6-3.6,9-5.3Z"/>
  <path class="st1" d="M796.3,977.4c.5.2.9.5,1.3.8-1.1,1.4-2.6,3-4.3,3.6.9-1.5,1.9-3,3-4.4Z"/>
  <path class="st1" d="M847.9,980c-.2,3.2-.7,6.6-1.3,9.7-1.4,1.8-3.4,5.4-5.5,6.2-1.3-2.7-4.4-5.9-2-8.7,1.5-3.4,5.2-6.3,8.7-7.2Z"/>
  <path class="st1" d="M829.7,1003c.2,3,.5,6,.1,8.9-.9-1-2.3-2.5-2.4-3.9.5-1.7,1-3.8,2.3-5Z"/>
  <path class="st5" d="M731.3,1007.2c1.4.7,3.5,2.8,2.4,4.5-.8.1-1.6.2-2.5.1-.2-1.5,0-3.1,0-4.6Z"/>
  <path class="st1" d="M810.7,1021.4c.5,2.1.9,4.2,1,6.4-5.6,2.3-12,2.8-17.6,5.4-4.4,2-11,5.1-15.8,4.5-.5-1.2-1-2.4-1.5-3.5-8.4-2.8-18.7-.2-27.6-.5-.3-2.4-.1-4.9,0-7.4,1.1.1,2.2.3,3.2.4,0-1.2,0-2.4,0-3.6,1.8-.2,3,2.3,4.6,2.6,2-.7,3.8-1.7,5.8-2.4,1.7,1.6,3.1,3.6,4.6,5.2,3-.8,5.6-2.8,8.6-3.5,5.6-.3,11.3,0,16.9-.4,2.3-.5,4.3-1.8,6.6-2.4.2,1.6.3,3.2.5,4.8h.9c3.3-1.8,6.4-3.9,9.7-5.8Z"/>
  <text class="st4" transform="translate(85 25.6)"><tspan class="st3"><tspan x="0" y="0">B) Excess Coal Emissions</tspan></tspan><tspan class="st8"><tspan x="0" y="36">Kt CO2 per Year</tspan></tspan></text>
  <text class="st2" transform="translate(106.4 250.9)"><tspan x="0" y="0">Total: 73,587 Kt CO2</tspan></text>
  <text class="st10" transform="translate(128.3 545.2)"><tspan x="0" y="0">Ireland</tspan></text>
</svg>